<svg height="512pt" viewBox="0 0 512 512" width="512pt" xmlns="http://www.w3.org/2000/svg"><path d="m512 256c0 75.117188-32.351562 142.671875-83.882812 189.503906-21.871094 19.871094-47.1875 36.007813-74.953126 47.417969-29.957031 12.296875-62.765624 19.078125-97.164062 19.078125-34.410156 0-67.21875-6.78125-97.1875-19.101562-12.714844-5.203126-24.910156-11.417969-36.484375-18.523438-13.730469-8.421875-26.59375-18.097656-38.453125-28.882812-51.523438-46.820313-83.875-114.386719-83.875-189.492188 0-141.386719 114.613281-256 256-256s256 114.613281 256 256zm0 0" fill="#52b5d8"/><path d="m388.054688 174.546875v230.050781h-264.121094v-230.050781c0-72.929687 59.132812-132.054687 132.066406-132.054687s132.054688 59.125 132.054688 132.054687zm0 0" fill="#55627a"/><path d="m233.472656 340.613281c2.425782 10.042969-19.511718 55.5-18.519531 63.984375h-91.019531v-230.050781c0-72.929687 59.132812-132.054687 132.066406-132.054687-49.089844 0-81.222656 103.125-61.921875 250.3125 3.5 26.675781 32.316406 18.589843 39.394531 47.808593zm0 0" fill="#36435e"/><path d="m428.117188 445.503906c-45.464844 41.3125-105.839844 66.496094-172.117188 66.496094-48.996094 0-94.773438-13.761719-133.671875-37.625-13.730469-8.421875-26.59375-18.097656-38.453125-28.882812l46.613281-64.59375c6.894531-9.542969 17.949219-15.203126 29.726563-15.203126h191.550781c11.765625 0 22.832031 5.660157 29.726563 15.203126zm0 0" fill="#f76c59"/><path d="m295.902344 324.871094v44.390625c-17.554688 31.042969-62.273438 31.042969-79.828125 0v-44.390625zm0 0" fill="#efa492"/><path d="m359.902344 217.160156v29.480469c0 53.703125-40.726563 97.867187-92.976563 103.332031-3.582031.375-7.238281.566406-10.921875.566406-57.390625 0-103.914062-46.507812-103.914062-103.898437v-29.480469c0-57.375 46.523437-103.894531 103.914062-103.894531 3.683594 0 7.339844.1875 10.921875.566406 24.339844 2.535157 46.160157 13.472657 62.546875 29.859375 18.789063 18.804688 30.429688 44.789063 30.429688 73.46875zm0 0" fill="#efa492"/><path d="m359.902344 217.160156v29.480469c0 53.703125-40.726563 97.867187-92.976563 103.332031-52.261719-5.464844-92.984375-49.628906-92.984375-103.332031v-29.480469c0-53.6875 40.722656-97.867187 92.984375-103.328125 24.339844 2.535157 46.160157 13.472657 62.546875 29.859375 18.789063 18.804688 30.429688 44.789063 30.429688 73.46875zm0 0" fill="#ffbda9"/><path d="m211.46875 200.238281c6.167969 0 11.167969 5 11.167969 11.167969v17.507812c0 6.167969-5 11.167969-11.167969 11.167969s-11.167969-5-11.167969-11.167969v-17.507812c0-6.167969 5-11.167969 11.167969-11.167969zm0 0" fill="#3b404d"/><path d="m300.507812 200.238281c6.167969 0 11.167969 5 11.167969 11.167969v17.507812c0 6.167969-5 11.167969-11.167969 11.167969-6.167968 0-11.167968-5-11.167968-11.167969v-17.507812c0-6.167969 5-11.167969 11.167968-11.167969zm0 0" fill="#3b404d"/><g fill="#efa492"><path d="m230.628906 216.777344c0-10.582032-8.578125-19.160156-19.160156-19.160156s-19.160156 8.578124-19.160156 19.160156zm0 0"/><path d="m319.667969 216.777344c0-10.582032-8.578125-19.160156-19.160157-19.160156-10.582031 0-19.160156 8.578124-19.160156 19.160156zm0 0"/><path d="m255.996094 162.625-16.019532 99.910156h16.019532"/></g><path d="m373.59375 212.324219c-101 0-165.089844-58.261719-165.089844-58.261719 0 10.3125-8.386718 22.707031-19.617187 32.832031-15.222657 13.734375-35.644531 23.261719-47.382813 17.667969l-2.914062-31.070312 24.28125-51.472657 36.429687-9.191406 67.46875-17.027344 83.519531 33.019531zm0 0" fill="#55627a"/><path d="m199.300781 112.828125c-5.519531 20.855469-9.148437 45.808594-10.414062 74.066406-15.222657 13.734375-35.644531 23.261719-47.382813 17.667969l-2.914062-31.070312 25.925781-72.347657zm0 0" fill="#36435e"/><path d="m335.5625 256.058594c0-5.230469-8.640625-9.46875-19.300781-9.46875-10.65625 0-19.296875 4.238281-19.296875 9.46875 0 5.230468 8.640625 9.46875 19.296875 9.46875 10.660156 0 19.300781-4.238282 19.300781-9.46875zm0 0" fill="#efa492"/><path d="m215.03125 256.058594c0-5.230469-8.640625-9.46875-19.300781-9.46875-10.660157 0-19.300781 4.238281-19.300781 9.46875 0 5.230468 8.640624 9.46875 19.300781 9.46875 10.660156 0 19.300781-4.238282 19.300781-9.46875zm0 0" fill="#efa492"/><path d="m259.132812 310.160156c-7.636718 0-15.28125-1.648437-22.707031-4.953125-1.714843-.761719-2.722656-3.632812-2.253906-6.417969.46875-2.78125 2.238281-4.421874 3.949219-3.660156 13.746094 6.113282 28.28125 6.113282 42.027344 0 1.710937-.757812 3.480468.878906 3.949218 3.660156.46875 2.785157-.539062 5.660157-2.253906 6.417969-7.425781 3.304688-15.070312 4.953125-22.710938 4.953125zm0 0" fill="#efa492"/><path d="m410.527344 205.671875h-24.144532v-51.097656c0-71.898438-58.492187-130.386719-130.386718-130.386719-71.898438 0-130.390625 58.488281-130.390625 130.386719v51.097656h-24.144531v-51.097656c0-85.210938 69.324218-154.5351565 154.535156-154.5351565 85.210937 0 154.53125 69.3242185 154.53125 154.5351565zm0 0" fill="#f76c59"/><path d="m380.625 316.742188h-24.417969v-24.144532h24.417969c3.175781 0 5.757812-2.582031 5.757812-5.757812v-24.425782h24.144532v24.425782c0 16.488281-13.414063 29.902344-29.902344 29.902344zm0 0" fill="#f76c59"/><path d="m216.074219 365.695312-39.875 16.203126c-12.277344 5.007812-22.023438 14.734374-27.050781 27l-26.820313 65.476562c-13.730469-8.421875-26.59375-18.097656-38.453125-28.882812l46.613281-64.59375c6.894531-9.542969 17.949219-15.203126 29.726563-15.203126zm0 0" fill="#e85142"/><path d="m408.71875 148.929688h-20.527344c-11.667968 0-21.125 9.457031-21.125 21.125v71.234374c0 11.667969 9.457032 21.125 21.125 21.125h20.527344c11.667969 0 21.128906-9.457031 21.128906-21.125v-71.234374c0-11.667969-9.460937-21.125-21.128906-21.125zm0 0" fill="#ffda73"/><path d="m123.796875 148.929688h-20.527344c-11.667969 0-21.125 9.457031-21.125 21.125v71.234374c0 11.667969 9.457031 21.125 21.125 21.125h20.527344c11.667969 0 21.128906-9.457031 21.128906-21.125v-71.234374c-.003906-11.667969-9.460937-21.125-21.128906-21.125zm0 0" fill="#ffda73"/><path d="m429.847656 215.933594v25.355468c0 11.671876-9.453125 21.125-21.128906 21.125h-20.523438c-11.671874 0-21.125-9.453124-21.125-21.125v-25.355468c0 11.675781 9.453126 21.128906 21.125 21.128906h20.523438c11.675781 0 21.128906-9.453125 21.128906-21.128906zm0 0" fill="#f9a54b"/><path d="m144.925781 215.933594v25.355468c0 11.671876-9.453125 21.125-21.128906 21.125h-20.523437c-11.671876 0-21.125-9.453124-21.125-21.125v-25.355468c0 11.675781 9.453124 21.128906 21.125 21.128906h20.523437c11.675781 0 21.128906-9.453125 21.128906-21.128906zm0 0" fill="#f9a54b"/><path d="m355.308594 283.542969h-11.886719c-11.5 0-20.820313 9.320312-20.820313 20.820312 0 11.496094 9.320313 20.816407 20.820313 20.816407h11.886719c11.496094 0 20.816406-9.320313 20.816406-20.816407 0-11.5-9.320312-20.820312-20.816406-20.820312zm0 0" fill="#3b404d"/><path d="m353.164062 403.046875v89.875c-29.957031 12.296875-62.765624 19.078125-97.164062 19.078125-34.410156 0-67.21875-6.78125-97.1875-19.101562v-89.851563zm0 0" fill="#e6e6e6"/><path d="m181.101562 434.429688h149.777344v18.808593h-149.777344zm0 0" fill="#55627a"/><path d="m181.101562 470.839844h149.777344v18.808594h-149.777344zm0 0" fill="#55627a"/></svg>