<svg height="512" viewBox="0 0 512 512" width="512" xmlns="http://www.w3.org/2000/svg"><path d="m80 40h288a32 32 0 0 1 32 32v256a0 0 0 0 1 0 0h-352a0 0 0 0 1 0 0v-256a32 32 0 0 1 32-32z" fill="#e4e4e2"/><path d="m408 328h-368a16 16 0 0 1 -16-16v-32h400v32a16 16 0 0 1 -16 16z" fill="#ebebeb"/><path d="m184 280h80v8a16 16 0 0 1 -16 16h-48a16 16 0 0 1 -16-16z" fill="#dbdbdb"/><path d="m88 72h272a8 8 0 0 1 8 8v200a0 0 0 0 1 0 0h-288a0 0 0 0 1 0 0v-200a8 8 0 0 1 8-8z" fill="#41dfd0"/><path d="m400 328v-128h-88a16 16 0 0 0 -16 16v112z" fill="#dbdbd9"/><path d="m368 280v-80h-56a16 16 0 0 0 -16 16v64z" fill="#2bc9c4"/><path d="m168 144 56-40 56 40v19.074a92.4 92.4 0 0 1 -56 84.926l-9.445-5.4a92.4 92.4 0 0 1 -46.555-80.22z" fill="#8bc89c"/><path d="m223.992 224a7.96 7.96 0 0 1 -4.43-1.344 61.778 61.778 0 0 1 -27.562-51.5v-11.156a8 8 0 0 1 3.562-6.656l24-16a8 8 0 1 1 8.875 13.312l-20.437 13.625v6.875a45.81 45.81 0 0 0 20.437 38.188 8 8 0 0 1 -4.445 14.656z" fill="#76aa84"/><g fill="#2bc9c4"><path d="m104 240h16v16h-16z"/><path d="m136 240h16v16h-16z"/><path d="m104 208h16v16h-16z"/></g><rect fill="#e4e4e2" height="256" rx="16" width="160" x="312" y="216"/><path d="m312 248h160v176h-160z" fill="#41dfd0"/><path d="m352 304 40-24 40 24v20.919a63.632 63.632 0 0 1 -40 59.081 63.632 63.632 0 0 1 -40-59.081z" fill="#83bd93"/><path d="m352 304 40-24 40 24v20.919a63.632 63.632 0 0 1 -40 59.081 63.632 63.632 0 0 1 -40-59.081z" fill="#83bd93"/><path d="m384 284.8v95.275a63.507 63.507 0 0 0 8 3.925 63.507 63.507 0 0 0 8-3.925v-95.275l-8-4.8z" fill="#8bc99c"/><path d="m336 384h16v16h-16z" fill="#2bc9c4"/></svg>