<svg id="Layer_1" enable-background="new 0 0 256 256" height="512" viewBox="0 0 256 256" width="512" xmlns="http://www.w3.org/2000/svg"><path d="m212 248h-168c-5.523 0-10-4.477-10-10v-220c0-5.523 4.477-10 10-10h168c5.523 0 10 4.477 10 10v220c0 5.523-4.477 10-10 10z" fill="#4671c6"/><path d="m212 250h-168c-6.617 0-12-5.383-12-12v-220c0-6.617 5.383-12 12-12h168c6.617 0 12 5.383 12 12v220c0 6.617-5.383 12-12 12zm-168-240c-4.411 0-8 3.589-8 8v220c0 4.411 3.589 8 8 8h168c4.411 0 8-3.589 8-8v-220c0-4.411-3.589-8-8-8z" fill="#3762cc"/><path d="m31.75 41.75h192.5v160h-192.5z" fill="#e0ebfc" transform="matrix(0 1 -1 0 249.75 -6.25)"/><circle cx="128" cy="233" fill="#e0ebfc" r="8.772"/><circle cx="128" cy="17" fill="#f9cfcf" r="4.36"/><path d="m128 243.772c-5.94 0-10.772-4.832-10.772-10.772s4.832-10.772 10.772-10.772 10.772 4.832 10.772 10.772-4.832 10.772-10.772 10.772zm0-17.544c-3.734 0-6.772 3.038-6.772 6.772s3.038 6.772 6.772 6.772 6.772-3.038 6.772-6.772-3.038-6.772-6.772-6.772z" fill="#3762cc"/><g fill="#b9befc"><path d="m98.438 81.175h-28c-2.209 0-4-1.791-4-4v-28c0-2.209 1.791-4 4-4h28c2.209 0 4 1.791 4 4v28c0 2.209-1.791 4-4 4z"/><path d="m183.563 81.175h-65c-3.314 0-6-2.686-6-6 0-3.314 2.686-6 6-6h65c3.314 0 6 2.686 6 6 0 3.314-2.687 6-6 6z"/><path d="m183.563 109.175h-111.126c-3.314 0-6-2.686-6-6 0-3.314 2.686-6 6-6h111.125c3.314 0 6 2.686 6 6 .001 3.314-2.686 6-5.999 6z"/><path d="m183.563 137.175h-111.126c-3.314 0-6-2.686-6-6 0-3.314 2.686-6 6-6h111.125c3.314 0 6 2.686 6 6 .001 3.314-2.686 6-5.999 6z"/><path d="m183.563 165.175h-111.126c-3.314 0-6-2.686-6-6 0-3.314 2.686-6 6-6h111.125c3.314 0 6 2.686 6 6 .001 3.314-2.686 6-5.999 6z"/><path d="m183.563 193.175h-111.126c-3.314 0-6-2.686-6-6 0-3.314 2.686-6 6-6h111.125c3.314 0 6 2.686 6 6 .001 3.314-2.686 6-5.999 6z"/></g><path d="m91.347 76.5-2.395-7.051c-.138-.406-.519-.678-.947-.678h-6.599c-.431 0-.814.277-.95.686l-2.323 7.035c-.135.41-.518.686-.95.686h-3.569c-.685 0-1.167-.673-.947-1.322l9.081-26.729c.138-.406.519-.678.947-.678h4.165c.428 0 .808.272.946.677l9.12 26.729c.221.649-.261 1.323-.946 1.323h-3.688c-.427 0-.808-.272-.945-.678zm-5.415-12.426c.685 0 1.167-.673.947-1.322l-1.717-5.05c-.175-.513-.333-1.011-.479-1.498-.146.497-.29.974-.438 1.439l-1.729 5.111c-.219.648.263 1.32.947 1.32z" fill="#e0ebfc"/><path d="m151.563 25.5v64.631c0 1.852 2.301 2.709 3.513 1.308l13.514-15.622c.784-.906 2.183-.924 2.99-.039l14.505 15.908c1.231 1.35 3.478.479 3.478-1.348v-64.838z" fill="#f9a7a7"/><path d="m208 220h-160c-1.104 0-2-.896-2-2v-192.5c0-1.104.896-2 2-2h160c1.104 0 2 .896 2 2v192.5c0 1.104-.896 2-2 2zm-158-4h156v-188.5h-156z" fill="#3762cc"/><path d="m209.119 248v-20.832c7.729-4.773 12.881-13.317 12.881-23.068v-23.695-33.295c0-2.813-2.281-5.094-5.094-5.094h-9.618c-2.813 0-5.094 2.281-5.094 5.094 0-2.813-2.281-5.094-5.094-5.094h-9.618c-2.813 0-5.094 2.281-5.094 5.094 0-2.813-2.281-5.094-5.094-5.094h-9.618c-2.814 0-5.094 2.281-5.094 5.094v-45.519c0-5.291-4.289-9.579-9.579-9.579h-.648c-5.291 0-9.579 4.289-9.579 9.579v51.722 42.221 8.565c0 9.751 5.152 18.295 12.881 23.068v20.833z" fill="#f9cfcf"/><path d="m142.774 204.1v-8.565-34.518l-9.74 13.076c-.755 1.013-1.16 2.224-1.16 3.465v16.706c0 1.173.361 2.319 1.04 3.298l12.297 17.75c-1.557-3.418-2.437-7.21-2.437-11.212z" fill="#f9cfcf"/><path d="m209.119 250h-53.465c-1.104 0-2-.896-2-2v-19.741c-8.087-5.427-12.881-14.375-12.881-24.158l.001-102.509c0-6.386 5.194-11.58 11.579-11.58h.647c6.385 0 11.579 5.194 11.579 11.58v39.136c.936-.455 1.986-.711 3.095-.711h9.618c1.997 0 3.804.829 5.094 2.161 1.291-1.332 3.098-2.161 5.095-2.161h9.618c1.997 0 3.804.829 5.094 2.161 1.291-1.332 3.098-2.161 5.095-2.161h9.618c3.911 0 7.094 3.183 7.094 7.094v56.99c0 9.784-4.794 18.732-12.881 24.158v19.741c0 1.104-.895 2-2 2zm-51.465-4h49.465v-18.832c0-.693.359-1.337.949-1.701 7.471-4.615 11.932-12.603 11.932-21.366v-56.99c0-1.706-1.388-3.094-3.094-3.094h-9.618c-1.706 0-3.095 1.388-3.095 3.094 0 1.104-.896 2-2 2s-2-.896-2-2c0-1.706-1.388-3.094-3.094-3.094h-9.618c-1.706 0-3.095 1.388-3.095 3.094 0 1.104-.896 2-2 2s-2-.896-2-2c0-1.706-1.388-3.094-3.094-3.094h-9.618c-1.706 0-3.095 1.388-3.095 3.094 0 1.104-.896 2-2 2s-2-.896-2-2v-45.519c0-4.18-3.4-7.58-7.579-7.58h-.647c-4.179 0-7.579 3.4-7.579 7.58l-.001 102.509c0 8.764 4.461 16.751 11.932 21.366.59.364.949 1.008.949 1.701z" fill="#3762cc"/><path d="m145.212 217.312c-.637 0-1.259-.304-1.645-.861l-12.297-17.75c-.914-1.317-1.396-2.853-1.396-4.438v-16.705c0-1.684.538-3.295 1.557-4.661l9.74-13.074c.515-.692 1.418-.975 2.232-.704.818.271 1.371 1.036 1.371 1.898l-.001 43.084c0 3.602.76 7.095 2.258 10.382.429.942.068 2.057-.832 2.568-.311.177-.651.261-.987.261zm-4.438-50.263-6.137 8.237c-.5.671-.764 1.456-.764 2.271v16.705c0 .768.236 1.514.684 2.16l6.246 9.015c-.021-.444-.03-.89-.03-1.337z" fill="#3762cc"/><path d="m162.58 164.68c-1.104 0-2-.896-2-2v-15.57c0-1.104.896-2 2-2s2 .896 2 2v15.569c0 1.105-.895 2.001-2 2.001z" fill="#3762cc"/><path d="m182.387 164.68c-1.104 0-2-.896-2-2v-15.57c0-1.104.896-2 2-2s2 .896 2 2v15.569c0 1.105-.896 2.001-2 2.001z" fill="#3762cc"/><path d="m202.172 164.68c-1.104 0-2-.896-2-2v-15.57c0-1.104.896-2 2-2s2 .896 2 2v15.569c0 1.105-.896 2.001-2 2.001z" fill="#3762cc"/></svg>