<svg height="512" viewBox="0 0 64 64" width="512" xmlns="http://www.w3.org/2000/svg"><g id="Game_Console" data-name="Game Console"><path d="m13 3h38v20h-38z" fill="#c6c5ca"/><path d="m35 48a7 7 0 0 1 7-7h12a7 7 0 0 1 7 7v11a2.006 2.006 0 0 1 -2 2h-2.25a2 2 0 0 1 -1.98-1.74l-.72-5.39a1 1 0 0 0 -.99-.87h-10.12a1 1 0 0 0 -.99.87l-.72 5.39a2 2 0 0 1 -1.98 1.74h-2.25a2.006 2.006 0 0 1 -2-2z" fill="#acabb1"/><path d="m3 48a7 7 0 0 1 7-7h12a7 7 0 0 1 7 7v11a2.006 2.006 0 0 1 -2 2h-2.25a2 2 0 0 1 -1.98-1.74l-.72-5.39a1 1 0 0 0 -.99-.87h-10.12a1 1 0 0 0 -.99.87l-.72 5.39a2 2 0 0 1 -1.98 1.74h-2.25a2.006 2.006 0 0 1 -2-2z" fill="#acabb1"/><path d="m42 41h2a7 7 0 0 0 -7 7v11a2.006 2.006 0 0 0 2 2h-2a2.006 2.006 0 0 1 -2-2v-11a7 7 0 0 1 7-7z" fill="#898890"/><path d="m58.75 61h-2a2 2 0 0 1 -1.98-1.74l-.72-5.39a1 1 0 0 0 -.99-.87h2a1 1 0 0 1 .99.87l.72 5.39a2 2 0 0 0 1.98 1.74z" fill="#898890"/><path d="m10 41h2a7 7 0 0 0 -7 7v11a2.006 2.006 0 0 0 2 2h-2a2.006 2.006 0 0 1 -2-2v-11a7 7 0 0 1 7-7z" fill="#898890"/><path d="m26.75 61h-2a2 2 0 0 1 -1.98-1.74l-.72-5.39a1 1 0 0 0 -.99-.87h2a1 1 0 0 1 .99.87l.72 5.39a2 2 0 0 0 1.98 1.74z" fill="#898890"/><path d="m28 31h-15v-6-2h12 14 12v2 6h-15z" fill="#acabb1"/><path d="m13 3h2v20h-2z" fill="#acabb1"/><path d="m13 23h2v8h-2z" fill="#898890"/><circle cx="45" cy="17" fill="#ffa733" r="2"/><path d="m39 14.86v8.14h-14v-8.14a7.988 7.988 0 0 0 14 0z" fill="#d1d3d4"/><path d="m40 11a7.866 7.866 0 0 1 -1 3.86 7.988 7.988 0 0 1 -14 0 7.866 7.866 0 0 1 -1-3.86 7.961 7.961 0 0 1 2-5.28v-2.72h12v2.72a7.961 7.961 0 0 1 2 5.28z" fill="#e6e7e8"/><circle cx="19" cy="17" fill="#ff5023" r="2"/><path d="m12 46h-2v-2h-2v2h-2v2h2v2h2v-2h2z" fill="#ff9811"/><path d="m22 44h2v2h-2z" fill="#d8d7da"/><path d="m24 46h2v2h-2z" fill="#d8d7da"/><path d="m22 48h2v2h-2z" fill="#d8d7da"/><path d="m20 46h2v2h-2z" fill="#d8d7da"/><path d="m13 44h2v2h-2z" fill="#c6c5ca"/><path d="m17 44h2v2h-2z" fill="#c6c5ca"/><path d="m44 46h-2v-2h-2v2h-2v2h2v2h2v-2h2z" fill="#ff9811"/><path d="m54 44h2v2h-2z" fill="#d8d7da"/><path d="m56 46h2v2h-2z" fill="#d8d7da"/><path d="m54 48h2v2h-2z" fill="#d8d7da"/><path d="m52 46h2v2h-2z" fill="#d8d7da"/><g fill="#c6c5ca"><path d="m45 44h2v2h-2z"/><path d="m49 44h2v2h-2z"/><path d="m49 41h-2v-3h-11a1 1 0 0 1 -1-1v-10h2v9h11a1 1 0 0 1 1 1z"/><path d="m17 41h-2v-6a1 1 0 0 1 1-1h11v-7h2v8a1 1 0 0 1 -1 1h-11z"/></g><path d="m34 26h4v2h-4z" fill="#898890"/><path d="m26 26h4v2h-4z" fill="#898890"/><path d="m29 14h6v2h-6z" fill="#c6c5ca"/><path d="m30 11h4v2h-4z" fill="#c6c5ca"/></g></svg>