<svg height="512" viewBox="0 0 64 64" width="512" xmlns="http://www.w3.org/2000/svg"><g fill="#57565c"><path d="m61 32v20a9 9 0 0 1 -18 0v-20z"/><path d="m21 32v20a9 9 0 0 1 -18 0v-20z"/><path d="m14 23h36v18h-36z"/></g><path d="m61 32a12.011 12.011 0 0 1 -18 10.4 11.669 11.669 0 0 1 -1.94-1.4 12 12 0 1 1 19.94-9z" fill="#acabb1"/><path d="m27 32a11.982 11.982 0 0 1 -4.06 9 11.669 11.669 0 0 1 -1.94 1.4 12.01 12.01 0 1 1 6-10.4z" fill="#acabb1"/><path d="m9 7v3h-6v-6h6z" fill="#e0e0e2"/><path d="m9 3h10v8h-10z" fill="#3e3d42"/><path d="m29 18h6v5h-6z" fill="#3e3d42"/><circle cx="55" cy="32" fill="#004fac" r="1.994"/><circle cx="49" cy="38" fill="#64c37d" r="1.994"/><circle cx="49" cy="26" fill="#ffda44" r="1.994"/><circle cx="43" cy="32" fill="#ff5023" r="1.994"/><path d="m22 29v6h-4v4h-6v-4h-4v-6h4v-4h6v4z" fill="#57a4ff"/><path d="m33 18h-2v-4a3 3 0 0 1 3-3h24.5a1.5 1.5 0 0 0 0-3h-39.5v-2h39.5a3.5 3.5 0 0 1 0 7h-24.5a1 1 0 0 0 -1 1z" fill="#006468"/><path d="m6 6h3v2h-3z" fill="#fff"/><rect fill="#787680" height="7" rx="1.5" width="3" x="5" y="45"/></svg>