<svg height="512" viewBox="0 0 64 64" width="512" xmlns="http://www.w3.org/2000/svg"><g id="Joystick-6" data-name="Joystick"><path d="m61 43a14 14 0 0 1 -14 14h-30a14 14 0 1 1 0-28h30a13.973 13.973 0 0 1 14 14z" fill="#acabb1"/><circle cx="47" cy="43" fill="#d8d7da" r="10"/><circle cx="17" cy="43" fill="#d8d7da" r="10"/><circle cx="42" cy="42" fill="#ff5023" r="2"/><circle cx="46" cy="47" fill="#ffd422" r="2"/><circle cx="52" cy="44" fill="#78b9eb" r="2"/><circle cx="48" cy="39" fill="#00ccb3" r="2"/><path d="m45 26h4a1 1 0 0 1 1 1v2.32a14.14 14.14 0 0 0 -3-.32h-3v-2a1 1 0 0 1 1-1z" fill="#898890"/><path d="m23 41v4h-4v4h-4v-4h-4v-4h4v-4h4v4z" fill="#ffa733"/><path d="m15 26h4a1 1 0 0 1 1 1v2h-3a14.14 14.14 0 0 0 -3 .32v-2.32a1 1 0 0 1 1-1z" fill="#898890"/><circle cx="32" cy="21" fill="#3d9ae2" r="2"/><path d="m27 34h2v2h-2z" fill="#ed1c24"/><path d="m31 34h2v2h-2z" fill="#ed1c24"/><path d="m35 34h2v2h-2z" fill="#ed1c24"/><path d="m29 48h2v2h-2z" fill="#c6c5ca"/><path d="m33 48h2v2h-2z" fill="#c6c5ca"/><g fill="#3d9ae2"><path d="m35.536 17.464a5.008 5.008 0 0 0 -7.072 0l-1.414-1.414a7.009 7.009 0 0 1 9.9 0z"/><path d="m38.364 14.636a9.01 9.01 0 0 0 -12.728 0l-1.414-1.414a11.012 11.012 0 0 1 15.556 0z"/><path d="m41.192 11.808a13.013 13.013 0 0 0 -18.384 0l-1.414-1.414a15.015 15.015 0 0 1 21.212 0z"/></g></g></svg>