<svg height="512" viewBox="0 0 64 64" width="512" xmlns="http://www.w3.org/2000/svg"><path d="m56 56h-4a1 1 0 0 1 0-2h4a1 1 0 0 1 0 2z" fill="#ffd782"/><rect fill="#394d5c" height="20" rx="2" width="6" x="15" y="28"/><path d="m21 31h4v14h-4z" fill="#5a6470"/><path d="m9 36h2a0 0 0 0 1 0 0v4a0 0 0 0 1 0 0h-2a2 2 0 0 1 -2-2 2 2 0 0 1 2-2z" fill="#5a6470"/><path d="m10 22h2v12h-2z" fill="#2d75bb"/><rect fill="#394d5c" height="20" rx="2" transform="matrix(-1 0 0 -1 92 76)" width="6" x="43" y="28"/><path d="m39 31h4v14h-4z" fill="#5a6470" transform="matrix(-1 0 0 -1 82 76)"/><path d="m55 36h2a0 0 0 0 1 0 0v4a0 0 0 0 1 0 0h-2a2 2 0 0 1 -2-2 2 2 0 0 1 2-2z" fill="#5a6470" transform="matrix(-1 0 0 -1 110 76)"/><path d="m52 22h2v12h-2z" fill="#2d75bb"/><path d="m9 23h4a16 16 0 0 1 16-16h6a16 16 0 0 1 16 16h4a20 20 0 0 0 -20-20h-6a20 20 0 0 0 -20 20z" fill="#b11e48"/><path d="m29 3h6v4h-6z" fill="#8e1b42"/><path d="m40 62h-24a3 3 0 0 1 0-6h20a1 1 0 0 0 0-2h-16a3 3 0 0 1 -3-3v-3h2v3a1 1 0 0 0 1 1h16a3 3 0 0 1 0 6h-20a1 1 0 0 0 0 2h24a1 1 0 0 0 1-1v-2a3 3 0 0 1 3-3h2v2h-2a1 1 0 0 0 -1 1v2a3 3 0 0 1 -3 3z" fill="#2d75bb"/><path d="m46 53h6v4h-6z" fill="#394d5c"/><g fill="#7d8d9c"><path d="m15 31h3v2h-3z"/><path d="m15 35h3v2h-3z"/><path d="m15 39h3v2h-3z"/><path d="m15 43h3v2h-3z"/><path d="m46 31h3v2h-3z"/><path d="m46 35h3v2h-3z"/><path d="m46 39h3v2h-3z"/><path d="m46 43h3v2h-3z"/></g><path d="m49 34h5v8h-5z" fill="#b11e48" transform="matrix(-1 0 0 -1 103 76)"/><path d="m10 34h5v8h-5z" fill="#b11e48"/></svg>