<svg height="512pt" viewBox="0 0 512 512" width="512pt" xmlns="http://www.w3.org/2000/svg"><path d="m0 0v512h292.648438v-512zm0 0" fill="#f2f2fc"/><path d="m147.324219 0h145.324219v512h-145.324219zm0 0" fill="#e2d9fb"/><path d="m0 412.167969v99.832031h292.648438v-99.832031zm0 0" fill="#4c60de"/><path d="m147.324219 412.167969h145.324219v99.832031h-145.324219zm0 0" fill="#25509f"/><path d="m147.464844 475.839844c7.828125 0 15.332031-6.886719 14.96875-14.972656-.363282-8.109376-6.578125-14.96875-14.96875-14.96875-7.832032 0-15.335938 6.886718-14.972656 14.96875.363281 8.113281 6.578124 14.972656 14.972656 14.972656zm0 0" fill="#25509f"/><path d="m147.464844 475.839844c7.828125 0 15.332031-6.886719 14.96875-14.972656-.363282-8.109376-6.578125-14.96875-14.96875-14.96875-.050782 0-.09375.007812-.140625.007812v29.929688c.046875-.003907.089843.003906.140625.003906zm0 0" fill="#19408e"/><path d="m207.472656 214.757812h-144.84375v-152.207031h170.941406v129.339844h-26.097656zm0 0" fill="#fd982c"/><path d="m62.523438 244.703125h157.410156v29.945313h-157.410156zm0 0" fill="#ffda2d"/><path d="m62.523438 297.605469h171.148437v29.945312h-171.148437zm0 0" fill="#ffda2d"/><path d="m207.472656 191.894531h26.097656v-129.34375h-86.246093v152.207031h60.148437zm0 0" fill="#fa502e"/><path d="m147.324219 244.703125h72.609375v29.945313h-72.609375zm0 0" fill="#fdbf00"/><path d="m147.324219 297.605469h86.347656v29.945312h-86.347656zm0 0" fill="#fdbf00"/><path d="m474.464844 442.890625 1.625-75.757813-51.511719-117.175781-.066406-.15625c-8.355469-18.429687-30.144531-26.628906-48.578125-18.273437-2.316406 1.046875-4.46875 2.3125-6.453125 3.753906-9.957031-14.054688-28.824219-19.570312-45.082031-12.203125-4.050782 1.835937-7.605469 4.320313-10.597657 7.277344-2.148437-1.371094-4.449219-2.535157-6.890625-3.453125-9.171875-3.449219-19.144531-3.121094-28.070312.925781-2.085938.945313-4.054688 2.074219-5.894532 3.359375l-15.0625-33.226562c-4.046874-8.929688-11.328124-15.75-20.503906-19.199219-9.171875-3.453125-19.144531-3.125-28.070312.921875-8.929688 4.046875-15.746094 11.328125-19.199219 20.503906s-3.125 19.144531.921875 28.070312l51.304688 113.191407c-9.507813 7.503906-16.53125 17.695312-20.144532 29.492187-4.617187 15.066406-3.191406 31.082032 4.019532 45.09375l14.222656 25.027344c7.722656 13.582031 20.71875 23.734375 35.746094 27.964844l39.996093 15.417968 22.179688 27.554688h173.644531zm0 0" fill="#ffdfcf"/><path d="m340 512h172l-37.535156-69.109375 1.625-75.757813-51.511719-117.175781-.066406-.15625c-8.355469-18.429687-30.144531-26.628906-48.578125-18.273437-2.316406 1.046875-4.46875 2.3125-6.453125 3.753906-6.855469-9.675781-17.9375-15.277344-29.480469-15.4375zm0 0" fill="#ffcebf"/></svg>