<svg height="512" viewBox="0 0 64 64" width="512" xmlns="http://www.w3.org/2000/svg"><g id="Portable_console-game-device" data-name="Portable console-game-device"><path d="m53 5v46a10 10 0 0 1 -10 10h-30a2.006 2.006 0 0 1 -2-2v-54a2.006 2.006 0 0 1 2-2h38a2.006 2.006 0 0 1 2 2z" fill="#e0e0e2"/><path d="m27 46v4h-4v4h-4v-4h-4v-4h4v-4h4v4z" fill="#005ece"/><circle cx="40" cy="50" fill="#d80027" r="1.994"/><circle cx="47" cy="44" fill="#ffda44" r="1.994"/><path d="m15 7h34v31h-34z" fill="#bdfdff"/><g fill="#3e3d42"><path d="m39 57h2v4h-2z"/><path d="m35 57h2v4h-2z"/><path d="m31 57h2v4h-2z"/></g><rect fill="#fff" height="7" rx="1.5" width="3" x="18" y="9"/></g></svg>