<svg id="icons" enable-background="new 0 0 64 64" height="512" viewBox="0 0 64 64" width="512" xmlns="http://www.w3.org/2000/svg"><g fill="#545c66"><path d="m18 63.499c-1.654 0-3-1.346-3-3 0-.553.447-1 1-1s1 .447 1 1c0 .552.448 1 1 1 .553 0 1 .447 1 1s-.447 1-1 1z"/><path d="m16 61.499c-.553 0-1-.447-1-1v-3c0-.553.447-1 1-1s1 .447 1 1v3c0 .553-.447 1-1 1z"/><path d="m47.004 63.499c-.553 0-1-.447-1-1s.447-1 1-1c.552 0 1-.448 1-1 0-.553.447-1 1-1s1 .447 1 1c0 1.654-1.346 3-3 3z"/><path d="m49.004 61.499c-.553 0-1-.447-1-1v-3c0-.553.447-1 1-1s1 .447 1 1v3c0 .553-.447 1-1 1z"/><path d="m47.004 63.499h-29.004c-.553 0-1-.447-1-1s.447-1 1-1h29.004c.553 0 1 .447 1 1s-.447 1-1 1z"/></g><path d="m1.005 6.501v35.99h14.99 15v-35.99z" fill="#5d9cec"/><path d="m30.995 6.501h-29.99v-1c0-2.76 2.23-5 5-5h19.99c2.77 0 5 2.24 5 5z" fill="#656d78"/><path d="m15.995 42.491h-14.99v2c0 3.3 2.7 6 6 6h8.99 9c3.3 0 6-2.7 6-6v-2z" fill="#656d78"/><path d="m51.005 54.501v3h-2-1.99v-3-1h3.99z" fill="#656d78"/><path d="m39.005 50.501h19.99c2.2 0 4-1.79 4-4v4c0 2.2-1.8 4-4 4h-7.99v-1h-3.99v1h-.02-7.99c-2.2 0-4-1.8-4-4v-4c0 2.21 1.8 4 4 4z" fill="#ccd1d9"/><path d="m62.995 10.501v36c0 2.21-1.8 4-4 4h-19.99c-2.2 0-4-1.79-4-4v-36-6c0-2.2 1.8-4 4-4h19.99c2.2 0 4 1.8 4 4z" fill="#e6e9ed"/><path d="m13.995 53.501v.99h-.08-6.91c-3.3 0-6-2.7-6-6v-4c0 3.3 2.7 6 6 6h8.99 9c3.3 0 6-2.7 6-6v4c0 3.3-2.7 6-6 6h-7v-.99z" fill="#545c66"/><path d="m17.995 54.491v3.01h-2-2v-3.01-.99h4z" fill="#656d78"/><path d="m15.995 44.491c1.109 0 2 .899 2 2 0 1.109-.891 2-2 2-1.101 0-2-.891-2-2 0-1.1.9-2 2-2z" fill="#aab2bd"/><path d="m13.03 4.499c-.553 0-1.005-.447-1.005-1s.442-1 .994-1h.011c.552 0 1 .447 1 1s-.448 1-1 1z" fill="#5d9cec"/><path d="m19 4.499h-3c-.553 0-1-.447-1-1s.447-1 1-1h3c.553 0 1 .447 1 1s-.447 1-1 1z" fill="#545c66"/><path d="m46.011 26.499c-.19 0-.384-.055-.554-.168-.46-.307-.584-.928-.277-1.387l4-5.998c.305-.46.928-.584 1.387-.277.46.307.584.928.277 1.387l-4 5.998c-.193.289-.51.445-.833.445z" fill="#f6bb42"/><path d="m48.011 32.497c-.19 0-.384-.055-.554-.168-.46-.307-.584-.928-.277-1.387l4-5.998c.306-.46.928-.583 1.387-.277.46.307.584.928.277 1.387l-4 5.998c-.193.289-.51.445-.833.445z" fill="#f6bb42"/><path d="m52.012 26.499h-6c-.553 0-1-.447-1-1s.447-1 1-1h6c.553 0 1 .447 1 1s-.448 1-1 1z" fill="#f6bb42"/><path d="m18 58.499h-4c-.553 0-1-.447-1-1v-4c0-.553.447-1 1-1h4c.553 0 1 .447 1 1v4c0 .553-.447 1-1 1zm-3-2h2v-2h-2z" fill="#656d78"/><path d="m51.01 58.499h-3.998c-.553 0-1-.447-1-1v-4c0-.553.447-1 1-1h3.998c.553 0 1 .447 1 1v4c0 .553-.447 1-1 1zm-2.998-2h1.998v-2h-1.998z" fill="#656d78"/><path d="m23.991 23.501c.55 0 1 .45 1 1v1c0 .55-.45 1-1 1h-1c-.55 0-1-.45-1-1v-1c0-.55.45-1 1-1z" fill="#e6e9ed"/><path d="m14.992 21.501h4v7h-4z" fill="#e6e9ed"/><path d="m10.992 21.501h4v7h-4z" fill="#fff"/><path d="m7.992 21.501c-.55 0-1 .45-1 1v5c0 .55.45 1 1 1h3v-7z" fill="#e6e9ed"/><path d="m21.992 21.501h-3v7h3c.55 0 1-.45 1-1v-1-3-1c0-.55-.45-1-1-1z" fill="#fff"/><path d="m1.005 6.501h1.995v35.99h-1.995z" fill="#656d78"/><path d="m29 6.501h1.995v35.99h-1.995z" fill="#656d78"/></svg>