<svg id="Flat" height="512" viewBox="0 0 64 64" width="512" xmlns="http://www.w3.org/2000/svg"><path d="m2 23h22v6a2 2 0 0 1 -2 2h-20z" fill="#efefef"/><circle cx="5" cy="27" fill="#a3a3a3" r="1"/><rect fill="#d6d6d6" height="8" rx="1" width="10" x="11" y="40"/><path d="m14 35h4a1 1 0 0 1 1 1v4a0 0 0 0 1 0 0h-6a0 0 0 0 1 0 0v-4a1 1 0 0 1 1-1z" fill="#efefef"/><path d="m14 48h4a0 0 0 0 1 0 0v5a1 1 0 0 1 -1 1h-2a1 1 0 0 1 -1-1v-5a0 0 0 0 1 0 0z" fill="#bcbcbc"/><path d="m48 62h-28a5.00588 5.00588 0 0 1 -5-5v-3h2v3a3.00328 3.00328 0 0 0 3 3h28a3.00328 3.00328 0 0 0 3-3v-1h2v1a5.00588 5.00588 0 0 1 -5 5z" fill="#7c7c7c"/><path d="m61 36v7a2 2 0 0 1 -2 2h-29a2 2 0 0 1 -2-2v-7z" fill="#73c97c"/><path d="m28 2h33v34h-33z" fill="#efefef"/><path d="m47 45h10a0 0 0 0 1 0 0v5a1 1 0 0 1 -1 1h-8a1 1 0 0 1 -1-1v-5a0 0 0 0 1 0 0z" fill="#efefef"/><path d="m50 51h4a0 0 0 0 1 0 0v4a1 1 0 0 1 -1 1h-2a1 1 0 0 1 -1-1v-4a0 0 0 0 1 0 0z" fill="#d6d6d6"/><g fill="#64af6c"><path d="m43 39h2v2h-2z"/><path d="m47 39h2v2h-2z"/><path d="m51 39h2v2h-2z"/><path d="m55 39h2v2h-2z"/></g><path d="m42.92536 9.10663-6.65 9.5a.25.25 0 0 0 .2048.39337h7.23664a.25.25 0 0 1 .24807.281l-.8481 6.78487a.25.25 0 0 0 .44806.181l8.13517-10.84687a.25.25 0 0 0 -.2-.4h-6.03287a.25.25 0 0 1 -.208-.38868l3.48176-5.22264a.25.25 0 0 0 -.20802-.38868h-5.40271a.25.25 0 0 0 -.2048.10663z" fill="#ffde7e"/><path d="m2 2h22v21h-22z" fill="#8eccff"/></svg>