<?xml version="1.0" encoding="iso-8859-1"?>
<!-- Generator: Adobe Illustrator 19.0.0, SVG Export Plug-In . SVG Version: 6.00 Build 0)  -->
<svg version="1.1" id="Layer_1" xmlns="http://www.w3.org/2000/svg" xmlns:xlink="http://www.w3.org/1999/xlink" x="0px" y="0px"
	 viewBox="0 0 512 512" style="enable-background:new 0 0 512 512;" xml:space="preserve">
<path style="fill:#C6C5CB;" d="M476.108,183.465L309.189,87.094c-10.007-5.777-19.073-6.313-25.62-2.509L10.505,243.274
	c0.021-0.012,0.042-0.023,0.063-0.034C4.067,246.98,0.033,254.982,0,266.37c-0.065,22.851,16.003,50.684,35.889,62.165
	l166.919,96.371c10.132,5.85,19.3,6.323,25.865,2.36c-0.082,0.049-0.162,0.1-0.243,0.148l273.065-158.688
	c6.464-3.756,10.472-11.744,10.504-23.095C512.065,222.78,495.994,194.946,476.108,183.465z"/>
<path style="fill:#ACABB1;" d="M10.505,243.274L283.57,84.585c6.547-3.804,15.613-3.268,25.62,2.509L36.124,245.782
	C26.117,240.005,17.052,239.469,10.505,243.274z"/>
<polygon style="fill:#898890;" points="36.124,245.782 309.19,87.094 476.108,183.465 203.044,342.153 "/>
<path style="fill:#77767E;" d="M501.496,268.727L228.431,427.415c6.464-3.756,10.472-11.744,10.504-23.095
	c0.065-22.851-16.006-50.686-35.891-62.166l273.064-158.689c19.887,11.481,35.956,39.315,35.891,62.166
	C511.968,256.984,507.96,264.971,501.496,268.727z"/>
<path style="fill:#C6C5CB;" d="M203.044,342.153c19.886,11.481,35.956,39.315,35.891,62.166
	c-0.065,22.851-16.24,32.068-36.126,20.588L35.889,328.536C16.003,317.055-0.065,289.221,0,266.37
	c0.065-22.851,16.238-32.07,36.124-20.589L203.044,342.153z"/>
<g>
	<path style="fill:#CCFB5D;" d="M133.99,339.961c2.666,1.539,4.818,5.27,4.81,8.333c-0.008,3.064-2.175,4.3-4.841,2.761
		s-4.82-5.27-4.812-8.334C129.155,339.658,131.323,338.422,133.99,339.961z"/>
	<path style="fill:#CCFB5D;" d="M149.21,348.749c2.666,1.539,4.82,5.27,4.812,8.334c-0.008,3.064-2.178,4.299-4.843,2.76
		c-2.666-1.539-4.82-5.272-4.812-8.334C144.375,348.446,146.544,347.21,149.21,348.749z"/>
	<path style="fill:#CCFB5D;" d="M164.433,357.537c2.666,1.539,4.82,5.27,4.812,8.334c-0.008,3.064-2.178,4.299-4.843,2.76
		s-4.82-5.27-4.812-8.334C159.598,357.234,161.766,355.998,164.433,357.537z"/>
</g>
<path style="fill:#ACABB1;" d="M198.907,358.906c10.703,6.18,19.35,21.156,19.315,33.456c-0.035,12.299-8.738,17.261-19.441,11.081
	c-10.703-6.18-19.352-21.159-19.317-33.459C179.499,357.685,188.204,352.727,198.907,358.906z"/>
<path style="fill:#C6C5CB;" d="M198.898,362.242c9.099,5.254,16.45,17.986,16.421,28.442c-0.029,10.456-7.428,14.675-16.528,9.421
	c-9.099-5.254-16.452-17.989-16.423-28.445C182.398,361.205,189.799,356.989,198.898,362.242z"/>
<path style="fill:#CCFB5D;" d="M118.766,331.172c2.666,1.539,4.82,5.27,4.812,8.334c-0.008,3.064-2.178,4.299-4.843,2.76
	c-2.666-1.539-4.82-5.27-4.812-8.334C113.932,330.869,116.101,329.633,118.766,331.172z"/>
<polygon style="fill:#77767E;" points="46.975,285.343 44.982,286.502 35.973,291.743 28.774,295.931 25.884,297.611 
	25.884,275.477 27.879,274.32 39.413,280.977 "/>
<polygon style="fill:#57565C;" points="25.884,297.611 44.982,286.502 80.244,306.86 80.18,328.997 "/>
<polygon style="fill:#2E2E30;" points="78.433,312.53 78.433,320.344 76.603,321.408 74.228,322.788 74.228,314.973 76.603,313.594 
	"/>
<polygon style="fill:#57565C;" points="82.198,305.679 82.198,313.228 80.244,314.364 77.707,315.837 35.973,291.743 
	28.408,287.373 37.417,282.135 39.413,280.977 46.975,285.343 "/>
<path style="fill:#D8D8DA;" d="M46.763,284.757l-7.824-4.518l-11.934-6.889l-4.073-2.351v27.674l60.277,34.802v-27.677
	L46.763,284.757z M80.244,328.997H80.18l-54.296-31.386v-22.134l11.534,6.658l7.565,4.367l35.262,20.358v22.137H80.244z"/>
<polygon style="fill:#3E3D43;" points="77.708,315.836 77.708,324.183 28.407,295.718 28.407,287.372 "/>
<g>
</g>
<g>
</g>
<g>
</g>
<g>
</g>
<g>
</g>
<g>
</g>
<g>
</g>
<g>
</g>
<g>
</g>
<g>
</g>
<g>
</g>
<g>
</g>
<g>
</g>
<g>
</g>
<g>
</g>
</svg>
