<svg height="512pt" viewBox="-105 0 512 512" width="512pt" xmlns="http://www.w3.org/2000/svg"><path d="m302.84375 32.003906v414.742188h-302.84375v-414.742188c0-17.679687 14.324219-32.003906 31.996094-32.003906h238.851562c17.667969 0 31.996094 14.324219 31.996094 32.003906zm0 0" fill="#fff49c"/><path d="m302.84375 32.003906v414.742188h-151.421875v-446.746094h119.425781c17.667969 0 31.996094 14.324219 31.996094 32.003906zm0 0" fill="#ffb963"/><path d="m302.84375 439.117188v40.878906c0 17.679687-14.328125 32.003906-31.996094 32.003906h-238.851562c-17.671875 0-31.996094-14.324219-31.996094-32.003906v-40.878906zm0 0" fill="#1b6aa6"/><g fill="#173755"><path d="m302.84375 439.117188v40.878906c0 17.679687-14.328125 32.003906-31.996094 32.003906h-119.425781v-72.882812zm0 0"/><path d="m255.738281 26.417969h-5.550781c-8.316406 0-15.058594 6.742187-15.058594 15.058593 0 8.316407 6.742188 15.058594 15.058594 15.058594h5.550781c8.316407 0 15.058594-6.742187 15.058594-15.058594 0-8.316406-6.738281-15.058593-15.058594-15.058593zm0 0"/><path d="m204.582031 26.417969h-5.554687c-8.316406 0-15.058594 6.742187-15.058594 15.058593 0 8.316407 6.742188 15.058594 15.058594 15.058594h5.554687c8.316407 0 15.058594-6.742187 15.058594-15.058594 0-8.316406-6.742187-15.058593-15.058594-15.058593zm0 0"/></g><path d="m113.753906 166.046875v85.453125h-50.496094c-5.546874 0-10.039062-4.496094-10.039062-10.039062v-65.375c0-5.542969 4.492188-10.039063 10.039062-10.039063zm0 0" fill="#89e5ff"/><path d="m247.996094 205.027344v36.4375c0 5.542968-4.496094 10.039062-10.039063 10.039062h-48.789062v-56.515625h48.789062c5.542969 0 10.039063 4.492188 10.039063 10.039063zm0 0" fill="#4bb9e4"/><path d="m191.289062 143.792969v107.710937h-79.652343v-129.949218c0-7.007813 6.996093-11.855469 13.550781-9.40625l26.234375 9.789062 33.339844 12.449219c3.914062 1.464843 6.527343 5.21875 6.527343 9.40625zm0 0" fill="#4bb9e4"/><path d="m191.289062 143.792969v107.710937h-39.867187v-129.566406l33.339844 12.449219c3.914062 1.464843 6.527343 5.21875 6.527343 9.40625zm0 0" fill="#1b6aa6"/><path d="m263.058594 312.421875c0 8.3125-6.746094 15.058594-15.058594 15.058594h-194.78125c-8.3125 0-15.058594-6.746094-15.058594-15.058594 0-8.324219 6.746094-15.058594 15.058594-15.058594h194.78125c8.3125 0 15.058594 6.734375 15.058594 15.058594zm0 0" fill="#4bb9e4"/><path d="m248 327.480469h-96.578125v-30.117188h96.578125c8.3125 0 15.058594 6.734375 15.058594 15.058594 0 8.3125-6.746094 15.058594-15.058594 15.058594zm0 0" fill="#1b6aa6"/><path d="m263.058594 373.339844c0 8.3125-6.746094 15.058594-15.058594 15.058594h-194.78125c-8.3125 0-15.058594-6.746094-15.058594-15.058594 0-8.324219 6.746094-15.058594 15.058594-15.058594h194.78125c8.3125 0 15.058594 6.734375 15.058594 15.058594zm0 0" fill="#4bb9e4"/><path d="m263.058594 373.339844c0 8.3125-6.746094 15.058594-15.058594 15.058594h-96.578125v-30.117188h96.578125c8.3125 0 15.058594 6.734375 15.058594 15.058594zm0 0" fill="#1b6aa6"/></svg>