<svg height="512" viewBox="0 0 64 64" width="512" xmlns="http://www.w3.org/2000/svg"><rect fill="#a7a9ac" height="58" rx="4" width="26" x="3" y="3"/><path d="m5 57v-50a4 4 0 0 1 4-4h-2a4 4 0 0 0 -4 4v50a4 4 0 0 0 4 4h2a4 4 0 0 1 -4-4z" fill="#939598"/><path d="m24.9 39.54a1 1 0 0 1 -1.36 1.36l-2.54-1.41a9.008 9.008 0 0 1 -10 0l-2.54 1.41a1 1 0 0 1 -1.36-1.36l1.41-2.54a9.008 9.008 0 0 1 0-10l-1.41-2.54a1 1 0 0 1 1.36-1.36l2.54 1.41a9.008 9.008 0 0 1 10 0l2.54-1.41a1 1 0 0 1 1.36 1.36l-1.41 2.54a9.008 9.008 0 0 1 0 10z" fill="#ffc477"/><circle cx="16" cy="32" fill="#d1e7f8" r="6"/><circle cx="16" cy="32" fill="#ff3051" r="2"/><circle cx="16" cy="13" fill="#ff3051" r="4"/><circle cx="16" cy="13" fill="#f1f2f2" r="1"/><circle cx="16" cy="51" fill="#2488ff" r="6"/><circle cx="16" cy="51" fill="#f1f2f2" r="2"/><rect fill="#a7a9ac" height="36" rx="4" width="26" x="35" y="25"/><path d="m37 57v-28a4 4 0 0 1 4-4h-2a4 4 0 0 0 -4 4v28a4 4 0 0 0 4 4h2a4 4 0 0 1 -4-4z" fill="#939598"/><path d="m56.9 50.54-1.41-2.54a9.008 9.008 0 0 0 0-10l1.41-2.54a1 1 0 0 0 -1.36-1.36l-2.54 1.41a9.008 9.008 0 0 0 -10 0l-2.54-1.41a1 1 0 0 0 -1.36 1.36l1.41 2.54a9.008 9.008 0 0 0 0 10l-1.41 2.54a1 1 0 0 0 1.36 1.36l2.54-1.41a9.008 9.008 0 0 0 10 0l2.54 1.41a1 1 0 0 0 1.36-1.36zm-8.9-1.54a6 6 0 1 1 6-6 6 6 0 0 1 -6 6z" fill="#ffc477"/><path d="m48 37a6 6 0 1 0 6 6 6 6 0 0 0 -6-6zm0 8a2 2 0 1 1 2-2 2 2 0 0 1 -2 2z" fill="#d1e7f8"/><circle cx="48" cy="43" fill="#ff3051" r="2"/><g fill="#f1f2f2"><path d="m56 28h2v2h-2z"/><path d="m38 28h2v2h-2z"/><path d="m56 56h2v2h-2z"/><path d="m38 56h2v2h-2z"/><path d="m24 56h2v2h-2z"/><path d="m6 56h2v2h-2z"/><path d="m6 6h2v2h-2z"/><path d="m24 6h2v2h-2z"/></g></svg>