<svg height="512" viewBox="0 0 512 512" width="512" xmlns="http://www.w3.org/2000/svg"><path d="m80 24h320v464h-320z" fill="#cd201c"/><path d="m80 488h320v-320c0 176.731-143.269 320-320 320z" fill="#a31111"/><circle cx="240" cy="120" fill="#37383a" r="64"/><circle cx="240" cy="352" fill="#37383a" r="96"/><path d="m109.657 138.343-48-48a8 8 0 0 0 -13.657 5.657v57.376a24 24 0 1 0 16 22.624v-60.687l32 32v54.063a24 24 0 1 0 16 22.624v-80a8 8 0 0 0 -2.343-5.657zm-69.657 45.657a8 8 0 1 1 8-8 8.009 8.009 0 0 1 -8 8zm48 48a8 8 0 1 1 8-8 8.009 8.009 0 0 1 -8 8z" fill="#fccd31"/><path d="m469.657 298.343a8 8 0 0 0 -13.657 5.657v57.376a24 24 0 1 0 16 22.624v-60.687l10.343 10.344 11.314-11.314zm-21.657 93.657a8 8 0 1 1 8-8 8.009 8.009 0 0 1 -8 8z" fill="#fccd31"/><circle cx="240" cy="352" fill="#6d7072" r="56"/><path d="m265.733 302.267a55.993 55.993 0 0 1 -75.466 75.466 56 56 0 1 0 75.466-75.466z" fill="#4a4d4f"/><circle cx="240" cy="120" fill="#6d7072" r="24"/><path d="m252.494 99.506a24 24 0 0 1 -32.988 32.988 24 24 0 1 0 32.988-32.988z" fill="#4a4d4f"/><g fill="#37383a"><circle cx="112" cy="256" r="8"/><circle cx="112" cy="56" r="8"/><circle cx="112" cy="456" r="8"/><circle cx="368" cy="256" r="8"/><circle cx="368" cy="56" r="8"/><circle cx="368" cy="456" r="8"/></g></svg>