<svg id="Layer_1" enable-background="new 0 0 256 256" height="512" viewBox="0 0 256 256" width="512" xmlns="http://www.w3.org/2000/svg"><path d="m208 248h-168c-5.523 0-10-4.477-10-10v-220c0-5.523 4.477-10 10-10h168c5.523 0 10 4.477 10 10v220c0 5.523-4.477 10-10 10z" fill="#4671c6"/><path d="m208 250h-168c-6.617 0-12-5.383-12-12v-220c0-6.617 5.383-12 12-12h168c6.617 0 12 5.383 12 12v220c0 6.617-5.383 12-12 12zm-168-240c-4.411 0-8 3.589-8 8v220c0 4.411 3.589 8 8 8h168c4.411 0 8-3.589 8-8v-220c0-4.411-3.589-8-8-8z" fill="#3762cc"/><path d="m27.75 41.75h192.5v160h-192.5z" fill="#e0ebfc" transform="matrix(0 1 -1 0 245.75 -2.25)"/><path d="m204 220h-160c-1.104 0-2-.896-2-2v-192.5c0-1.104.896-2 2-2h160c1.104 0 2 .896 2 2v192.5c0 1.104-.896 2-2 2zm-158-4h156v-188.5h-156z" fill="#3762cc"/><circle cx="124" cy="233" fill="#e0ebfc" r="8.772"/><path d="m87 81h-14c-4.418 0-8-3.582-8-8v-14c0-4.418 3.582-8 8-8h14c4.418 0 8 3.582 8 8v14c0 4.418-3.582 8-8 8z" fill="#f9cfcf"/><path d="m131 81h-14c-4.418 0-8-3.582-8-8v-14c0-4.418 3.582-8 8-8h14c4.418 0 8 3.582 8 8v14c0 4.418-3.582 8-8 8z" fill="#6bdddd"/><path d="m175 81h-14c-4.418 0-8-3.582-8-8v-14c0-4.418 3.582-8 8-8h14c4.418 0 8 3.582 8 8v14c0 4.418-3.582 8-8 8z" fill="#f9cfcf"/><path d="m87 131h-14c-4.418 0-8-3.582-8-8v-14c0-4.418 3.582-8 8-8h14c4.418 0 8 3.582 8 8v14c0 4.418-3.582 8-8 8z" fill="#6bdddd"/><path d="m131 131h-14c-4.418 0-8-3.582-8-8v-14c0-4.418 3.582-8 8-8h14c4.418 0 8 3.582 8 8v14c0 4.418-3.582 8-8 8z" fill="#f9cfcf"/><path d="m175 131h-14c-4.418 0-8-3.582-8-8v-14c0-4.418 3.582-8 8-8h14c4.418 0 8 3.582 8 8v14c0 4.418-3.582 8-8 8z" fill="#6bdddd"/><path d="m87 181h-14c-4.418 0-8-3.582-8-8v-14c0-4.418 3.582-8 8-8h14c4.418 0 8 3.582 8 8v14c0 4.418-3.582 8-8 8z" fill="#f9cfcf"/><path d="m131 181h-14c-4.418 0-8-3.582-8-8v-14c0-4.418 3.582-8 8-8h14c4.418 0 8 3.582 8 8v14c0 4.418-3.582 8-8 8z" fill="#6bdddd"/><path d="m175 181h-14c-4.418 0-8-3.582-8-8v-14c0-4.418 3.582-8 8-8h14c4.418 0 8 3.582 8 8v14c0 4.418-3.582 8-8 8z" fill="#f9cfcf"/><circle cx="124" cy="17" fill="#f9cfcf" r="4.36"/><path d="m140.227 150.948-11.468-8.03 82.021-117.139c2.217-3.167 6.582-3.936 9.749-1.719 3.167 2.217 3.936 6.582 1.719 9.749z" fill="#a4c9ff"/><path d="m134.493 146.933-5.734-4.015-6.918 12.725c-.486.894-.223 2.01.61 2.594l2.769 1.939 2.769 1.939c.833.584 1.972.448 2.646-.314l9.592-10.853z" fill="#e0ebfc"/><path d="m203.396 34.698h14v7.667h-14z" fill="#e0ebfc" transform="matrix(.819 .574 -.574 .819 60.151 -113.71)"/><path d="m125.22 160.176-2.457-1.721-3.226 4.608c-.95 1.357-.62 3.228.737 4.178s3.228.62 4.178-.737l3.226-4.608z" fill="#e0ebfc"/><g fill="#3762cc"><path d="m140.226 152.948c-.396 0-.796-.117-1.146-.361l-11.469-8.03c-.435-.305-.73-.769-.822-1.291s.027-1.061.331-1.495l82.021-117.139c2.849-4.065 8.472-5.054 12.534-2.211 4.065 2.847 5.058 8.47 2.212 12.535l-82.021 117.14c-.389.555-1.01.852-1.64.852zm-8.682-10.521 8.192 5.736 80.874-115.501c1.581-2.258 1.03-5.383-1.229-6.964-2.258-1.581-5.382-1.028-6.963 1.229z"/><path d="m129.136 164.478c-.796 0-1.597-.236-2.292-.723l-5.54-3.88c-1.667-1.167-2.192-3.396-1.221-5.187l6.919-12.726c.271-.501.744-.861 1.299-.992.553-.128 1.138-.018 1.605.309l5.734 4.015 5.734 4.016c.467.327.771.838.839 1.403.066.565-.11 1.133-.487 1.56l-9.592 10.853c-.785.889-1.886 1.352-2.998 1.352zm.31-18.637-5.849 10.758 5.539 3.879 8.109-9.176z"/><path d="m121.983 169.785c-1.017 0-2.007-.311-2.856-.905-1.095-.767-1.825-1.912-2.057-3.228-.232-1.315.062-2.643.827-3.736l3.227-4.608c.635-.903 1.882-1.124 2.785-.491l2.459 1.721 2.457 1.721c.904.634 1.124 1.881.491 2.786l-3.227 4.607c-.767 1.094-1.912 1.824-3.228 2.056-.292.051-.586.077-.878.077zm1.271-8.545-2.079 2.97c-.207.295-.192.595-.166.747.027.152.116.439.411.646.453.316 1.076.206 1.393-.245l2.08-2.97z"/><path d="m124 243.772c-5.94 0-10.772-4.832-10.772-10.772s4.832-10.772 10.772-10.772 10.772 4.832 10.772 10.772-4.832 10.772-10.772 10.772zm0-17.544c-3.734 0-6.772 3.038-6.772 6.772s3.038 6.772 6.772 6.772 6.772-3.038 6.772-6.772-3.038-6.772-6.772-6.772z"/></g></svg>