<svg height="512" viewBox="0 0 59 59" width="512" xmlns="http://www.w3.org/2000/svg"><g id="044---Streaming-TV" fill="none"><path id="Shape" d="m27 48.951s-1 2.011-4.988 4.266c-.624027.354549-1.0102318 1.0162873-1.012 1.734v2.049c0 1.1045695-.8954305 2-2 2h-12c-1.1045695 0-2-.8954305-2-2v-1c0-1.832-1.291-3.383-2.208-4.871-1.742-2.829-2.525-2.959-2.765-6.178-.124-1.654.221-6.164.264-7.833.024-.923-.021-4.079-.056-6.979-.00984568-1.3670013.52410993-2.6818509 1.48425818-3.6549412.96014826-.9730903 2.26773127-1.5246017 3.63474182-1.5330588 2.67-.006 3.463 1.515 5.646 2.137 1.3905293.3821085 2.8078753.6588921 4.24.828.9979646.1079021 1.755636.9482285 1.76 1.952 0 2.362-1.878 4.57-6 4.57-.6.149-5-.5-6-2.5z" fill="#fdd7ad"/><path id="Shape" d="m26.91 35h23.09v-8h-23z" fill="#2c2f38"/><path id="Shape" d="m56.44 1.05c-6.9.39-34.44 3.46-34.44 27.95v-26c.0032948-1.10320187.8967981-1.9967052 2-2 34.183 0 32.078-.028 32.44.05z" fill="#67b9cc"/><path id="Shape" d="m58 3v24c-.0032948 1.1032019-.8967981 1.9967052-2 2h-34c0-24.49 27.54-27.56 34.44-27.95.01.01.01 0 .01 0 .8994064.22280093 1.5358723 1.023516 1.55 1.95z" fill="#2fa8cc"/><path id="Shape" d="m56 30h-34c-.5522847 0-1-.4477153-1-1v-26c0-1.65685425 1.3431458-3 3-3h32c1.6568542 0 3 1.34314575 3 3v24c0 1.6568542-1.3431458 3-3 3zm-33-2h33c.5522847 0 1-.4477153 1-1v-24c0-.55228475-.4477153-1-1-1h-32c-.5522847 0-1 .44771525-1 1z" fill="#464f5d"/><path id="Shape" d="m26.18 33h26.82c.5522847 0 1 .4477153 1 1v2c0 .5522847-.4477153 1-1 1h-27z" fill="#464f5d"/><path id="Shape" d="m54 9c-.2651948-.00005664-.5195073-.10545063-.707-.293l-3-3c-.3789722-.39237889-.3735524-1.01608478.0121814-1.40181858.3857338-.38573379 1.0094397-.39115363 1.4018186-.01218142l3 3c.2859079.28599425.3714219.71603662.216678 1.08965456s-.5192821.61725909-.923678.61734544z" fill="#fff"/><path id="Shape" d="m54 14c-.2651948-.0000566-.5195073-.1054506-.707-.293l-8-8c-.3789722-.39237889-.3735524-1.01608478.0121814-1.40181858.3857338-.38573379 1.0094397-.39115363 1.4018186-.01218142l8 8c.2859079.2859943.3714219.7160366.216678 1.0896546-.1547439.3736179-.5192821.6172591-.923678.6173454z" fill="#fff"/><path id="Shape" d="m31.01 24.433 4.1-1.69c1.5408745-.6130361 2.2930361-2.3591255 1.68-3.9s-2.3591255-2.2930361-3.9-1.68l-1.879.75z" fill="#fdd7ad"/><path id="Shape" d="m38 30.951c0 1.6568542-1.3431458 3-3 3h-3c-1.6568542 0-3-1.3431458-3-3s1.3431458-3 3-3h3c1.6568542 0 3 1.3431458 3 3z" fill="#fdd7ad"/><path id="Shape" d="m37 36.951c0 1.6568542-1.3431458 3-3 3h-2c-1.6568542 0-3-1.3431458-3-3s1.3431458-3 3-3h2c1.6568542 0 3 1.3431458 3 3z" fill="#fdd7ad"/><path id="Shape" d="m36.03 42.951c0 1.6568542-1.3431458 3-3 3h-1.03c-1.6568542 0-3-1.3431458-3-3s1.3431458-3 3-3h1.03c1.6568542 0 3 1.3431458 3 3z" fill="#fdd7ad"/><path id="Shape" d="m31 45.771c.0496719.8263511-.2443313 1.6364986-.8124139 2.2386661-.5680825.6021676-1.3597448.9428254-2.1875861.9413339h-18c-1.65685425 0-3-1.3431458-3-3v-30.951c0-3.8659932 3.1340068-7 7-7h10c3.8659932 0 7 3.1340068 7 7z" fill="#5d4c72"/><circle id="Oval" cx="14" cy="15" fill="#24ae5f" r="2"/><circle id="Oval" cx="24" cy="15" fill="#ff5364" r="2"/><path id="Shape" d="m21 22c-.55 0-.686-.272-2-1.586l-1.293 1.293c-.3923789.3789722-1.0160848.3735524-1.4018186-.0121814s-.3911536-1.0094397-.0121814-1.4018186l2-2c.3904999-.3903819 1.0235001-.3903819 1.414 0l2 2c.2859079.2859943.3714219.7160366.216678 1.0896546-.1547439.3736179-.5192821.6172591-.923678.6173454z" fill="#000"/><path id="Shape" d="m21 22c-.55 0-.686-.272-2-1.586l-1.293 1.293c-.3923789.3789722-1.0160848.3735524-1.4018186-.0121814s-.3911536-1.0094397-.0121814-1.4018186l2-2c.3904999-.3903819 1.0235001-.3903819 1.414 0l2 2c.2859079.2859943.3714219.7160366.216678 1.0896546-.1547439.3736179-.5192821.6172591-.923678.6173454z" fill="#bdc3c7"/><path id="Shape" d="m19 34c-.543 0-.565-.151-2.707-2.293-.3789722-.3923789-.3735524-1.0160848.0121814-1.4018186s1.0094397-.3911536 1.4018186-.0121814l1.293 1.293 1.293-1.293c.3923789-.3789722 1.0160848-.3735524 1.4018186.0121814s.3911536 1.0094397.0121814 1.4018186c-2.18 2.18-2.168 2.293-2.707 2.293z" fill="#bdc3c7"/><path id="Shape" d="m13.69 28.69c-.536 0-.6-.185-2.4-1.983-.3903819-.3904999-.3903819-1.0235001 0-1.414l2-2c.3923789-.3789722 1.0160848-.3735524 1.4018186.0121814s.3911536 1.0094397.0121814 1.4018186l-1.29 1.293.983.983c.2859079.2859943.3714219.7160366.216678 1.0896546-.1547439.3736179-.5192821.6172591-.923678.6173454z" fill="#000"/><g fill="#bdc3c7"><path id="Shape" d="m13.69 28.69c-.536 0-.6-.185-2.4-1.983-.3903819-.3904999-.3903819-1.0235001 0-1.414l2-2c.3923789-.3789722 1.0160848-.3735524 1.4018186.0121814s.3911536 1.0094397.0121814 1.4018186l-1.29 1.293.983.983c.2859079.2859943.3714219.7160366.216678 1.0896546-.1547439.3736179-.5192821.6172591-.923678.6173454z"/><path id="Shape" d="m24 29c-.4043959-.0000863-.7689341-.2437275-.923678-.6173454-.1547439-.373618-.0692299-.8036603.216678-1.0896546l1.293-1.293-1.293-1.293c-.3789722-.3923789-.3735524-1.0160848.0121814-1.4018186s1.0094397-.3911536 1.4018186-.0121814l2 2c.3903819.3904999.3903819 1.0235001 0 1.414-2.18 2.18-2.168 2.293-2.707 2.293z"/><circle id="Oval" cx="19" cy="26" r="2"/><path id="Shape" d="m14 38h-2c-.5522847 0-1-.4477153-1-1s.4477153-1 1-1h2c.5522847 0 1 .4477153 1 1s-.4477153 1-1 1z"/><path id="Shape" d="m20 38h-2c-.5522847 0-1-.4477153-1-1s.4477153-1 1-1h2c.5522847 0 1 .4477153 1 1s-.4477153 1-1 1z"/><path id="Shape" d="m14 42h-2c-.5522847 0-1-.4477153-1-1s.4477153-1 1-1h2c.5522847 0 1 .4477153 1 1s-.4477153 1-1 1z"/><path id="Shape" d="m20 42h-2c-.5522847 0-1-.4477153-1-1s.4477153-1 1-1h2c.5522847 0 1 .4477153 1 1s-.4477153 1-1 1z"/><path id="Shape" d="m26 42h-2c-.5522847 0-1-.4477153-1-1s.4477153-1 1-1h2c.5522847 0 1 .4477153 1 1s-.4477153 1-1 1z"/><path id="Shape" d="m14 46h-2c-.5522847 0-1-.4477153-1-1s.4477153-1 1-1h2c.5522847 0 1 .4477153 1 1s-.4477153 1-1 1z"/><path id="Shape" d="m20 46h-2c-.5522847 0-1-.4477153-1-1s.4477153-1 1-1h2c.5522847 0 1 .4477153 1 1s-.4477153 1-1 1z"/><path id="Shape" d="m26 46h-2c-.5522847 0-1-.4477153-1-1s.4477153-1 1-1h2c.5522847 0 1 .4477153 1 1s-.4477153 1-1 1z"/></g><path id="Shape" d="m5.354 24.951c2.67-.006 3.463 1.515 5.646 2.137 1.3905293.3821085 2.8078753.6588921 4.24.828.9979646.1079021 1.755636.9482285 1.76 1.952 0 2.362-1.878 4.57-6 4.57-.6.149-5-.5-6-2.5z" fill="#fdd7ad"/></g></svg>