<svg height="511pt" viewBox="0 -41 511.9999 511" width="511pt" xmlns="http://www.w3.org/2000/svg"><path d="m171.78125 276.121094h81.753906v70.484375h-81.753906zm0 0" fill="#0064db"/><path d="m212.660156 276.121094h40.875v70.484375h-40.875zm0 0" fill="#0050c4"/><path d="m147.421875 339.027344h130.476563c5.726562 0 10.367187 4.640625 10.367187 10.367187v4.128907c0 5.726562-4.640625 10.367187-10.367187 10.367187h-130.476563c-5.726563 0-10.371094-4.640625-10.371094-10.367187v-4.128907c0-5.726562 4.644531-10.367187 10.371094-10.367187zm0 0" fill="#0086f4"/><path d="m278.796875 339.027344h-63.519531c5.234375 0 9.472656 4.238281 9.472656 9.46875v5.925781c0 5.230469-4.238281 9.46875-9.472656 9.46875h63.519531c5.230469 0 9.46875-4.238281 9.46875-9.46875v-5.925781c0-5.230469-4.242187-9.46875-9.46875-9.46875zm0 0" fill="#0064db"/><path d="m412.488281.5h-399.660156c-7.085937 0-12.828125 5.742188-12.828125 12.828125v266.40625c0 7.085937 5.742188 12.828125 12.828125 12.828125h399.660156c7.085938 0 12.828125-5.742188 12.828125-12.828125v-266.40625c0-7.085937-5.742187-12.828125-12.828125-12.828125zm0 0" fill="#0086f4"/><path d="m412.488281.5h-6.964843v256.957031c0 7.085938-5.742188 12.832031-12.828126 12.832031h-392.695312v9.445313c0 7.085937 5.742188 12.828125 12.828125 12.828125h399.660156c7.085938 0 12.828125-5.742188 12.828125-12.828125v-266.40625c0-7.085937-5.742187-12.828125-12.828125-12.828125zm0 0" fill="#0064db"/><path d="m379.804688 246.914062h-334.292969c-5.523438 0-10-4.476562-10-10v-191.941406c0-5.523437 4.476562-10 10-10h334.292969c5.523437 0 10 4.476563 10 10v191.941406c0 5.523438-4.476563 10-10 10zm0 0" fill="#87ffff"/><path d="m379.179688 34.972656h-45.765626v167.347656c0 5-4.054687 9.058594-9.058593 9.058594h-288.839844v24.910156c0 5.871094 4.757813 10.628907 10.625 10.628907h333.039063c5.867187 0 10.625-4.757813 10.625-10.628907v-190.6875c0-5.871093-4.757813-10.628906-10.625-10.628906zm0 0" fill="#00f0f5"/><path d="m327.03125 349.875h81.269531l10.0625 55.355469c9.148438 33.167969 56.332031 32.738281 64.875-.59375l26.53125-103.558594c11.027344-43.042969-20.125-86.144531-64.535156-87.644531-.8125-.027344-1.628906-.039063-2.449219-.039063h-150.242187c-.816407 0-1.632813.011719-2.445313.039063-44.414062 1.5-75.566406 44.601562-64.535156 87.644531l26.53125 103.558594c8.539062 33.332031 55.726562 33.761719 64.875.59375zm0 0" fill="#c152c1"/><path d="m327.03125 349.875h81.269531l10.0625 55.355469c9.148438 33.167969 56.332031 32.738281 64.875-.59375l26.53125-103.558594c11.027344-43.042969-20.125-86.144531-64.535156-87.644531-.8125-.027344-1.628906-.039063-2.449219-.039063h-150.242187c-.816407 0-1.632813.011719-2.445313.039063-44.414062 1.5-75.566406 44.601562-64.535156 87.644531l26.53125 103.558594c8.539062 33.332031 55.726562 33.761719 64.875.59375zm0 0" fill="#c152c1"/><path d="m286.503906 405.230469c-2.824218 10.25-9.289062 17.28125-17.117187 21.132812 17.308593 8.5 41.328125 1.539063 47.582031-21.132812l10.058594-55.355469h-30.460938zm0 0" fill="#aa40ad"/><path d="m445.234375 213.433594c-.8125-.027344-1.628906-.039063-2.449219-.039063h-30.460937c.816406 0 1.632812.011719 2.445312.039063 44.414063 1.5 75.566407 44.601562 64.535157 87.644531l-26.53125 103.558594c-2.703126 10.546875-9.28125 17.789062-17.292969 21.726562 17.503906 8.617188 41.855469 1.304688 47.757812-21.726562l26.53125-103.558594c11.027344-43.042969-20.125-86.144531-64.535156-87.644531zm0 0" fill="#aa40ad"/><path d="m427.472656 100.566406c15.332032 0 27.808594 12.472656 27.808594 27.808594 0 15.332031-12.476562 27.808594-27.808594 27.808594h-29.25c-21.113281 0-38.289062 17.175781-38.289062 38.289062v26.039063c0 4.269531 3.460937 7.730469 7.730468 7.730469 4.273438 0 7.734376-3.460938 7.734376-7.730469v-26.039063c0-12.585937 10.238281-22.824218 22.824218-22.824218h29.25c23.863282 0 43.273438-19.410157 43.273438-43.273438s-19.410156-43.277344-43.273438-43.277344h-2.152344v15.46875zm0 0" fill="#c152c1"/><path d="m445.234375 213.433594c-.8125-.027344-1.628906-.039063-2.449219-.039063h-150.242187c-.816407 0-1.632813.011719-2.445313.039063-44.414062 1.5-75.566406 44.601562-64.535156 87.644531 7.355469 28.714844 33.230469 48.796875 62.871094 48.796875h11.699218c7.46875 8.351562 18.328126 13.617188 30.417969 13.617188 12.085938 0 22.941407-5.265626 30.414063-13.617188h14.722656c7.472656 8.351562 18.328125 13.617188 30.417969 13.617188 12.089843 0 22.945312-5.265626 30.414062-13.617188h10.378907c29.636718 0 55.511718-20.082031 62.871093-48.796875 11.027344-43.042969-20.125-86.144531-64.535156-87.644531zm0 0" fill="#d866d3"/><path d="m445.234375 213.433594c-.8125-.027344-1.628906-.039063-2.449219-.039063h-60.945312c.816406 0 1.632812.011719 2.445312.039063 44.414063 1.5 75.566406 44.601562 64.535156 87.644531-7.355468 28.714844-33.230468 48.796875-62.871093 48.796875h-10.261719c7.472656 8.351562 18.328125 13.617188 30.417969 13.617188 12.089843 0 22.945312-5.265626 30.414062-13.617188h10.378907c29.636718 0 55.511718-20.082031 62.871093-48.796875 11.027344-43.042969-20.125-86.144531-64.535156-87.644531zm0 0" fill="#c152c1"/><g fill="#0050c4"><path d="m312.675781 269.832031h-20.871093v-20.867187c0-4.273438-3.460938-7.734375-7.734376-7.734375-4.269531 0-7.730468 3.460937-7.730468 7.734375v20.867187h-20.871094c-4.273438 0-7.734375 3.464844-7.734375 7.734375 0 4.273438 3.460937 7.734375 7.734375 7.734375h20.871094v20.871094c0 4.269531 3.460937 7.734375 7.730468 7.734375 4.273438 0 7.734376-3.460938 7.734376-7.734375v-20.871094h20.871093c4.273438 0 7.734375-3.460937 7.734375-7.734375 0-4.269531-3.460937-7.734375-7.734375-7.734375zm0 0"/><path d="m466.199219 303.746094c0 7.519531-6.09375 13.617187-13.613281 13.617187-7.523438 0-13.617188-6.097656-13.617188-13.617187 0-7.519532 6.09375-13.617188 13.617188-13.617188 7.519531 0 13.613281 6.097656 13.613281 13.617188zm0 0"/><path d="m466.199219 253.070312c0 7.519532-6.09375 13.617188-13.613281 13.617188-7.523438 0-13.617188-6.097656-13.617188-13.617188 0-7.519531 6.09375-13.617187 13.617188-13.617187 7.519531 0 13.613281 6.097656 13.613281 13.617187zm0 0"/><path d="m440.863281 278.40625c0 7.523438-6.097656 13.617188-13.617187 13.617188-7.519532 0-13.617188-6.09375-13.617188-13.617188 0-7.519531 6.097656-13.617188 13.617188-13.617188 7.519531 0 13.617187 6.097657 13.617187 13.617188zm0 0"/><path d="m491.539062 278.40625c0 7.523438-6.097656 13.617188-13.617187 13.617188s-13.617187-6.09375-13.617187-13.617188c0-7.519531 6.097656-13.617188 13.617187-13.617188s13.617187 6.097657 13.617187 13.617188zm0 0"/></g><path d="m262.933594 171.582031c0 9.394531-4.660156 18.433594-12.820313 23.089844-1.089843.621094-2.367187 1.007813-3.9375 1.007813-8.378906 0-8.378906-10.914063-16.761719-10.914063-8.378906 0-8.378906 10.914063-16.757812 10.914063s-8.378906-10.914063-16.757812-10.914063c-8.378907 0-8.378907 10.914063-16.757813 10.914063-1.570313 0-2.847656-.386719-3.941406-1.007813-8.15625-4.65625-12.816407-13.695313-12.816407-23.089844v-51.1875c0-27.769531 22.507813-50.277343 50.273438-50.277343s50.277344 22.507812 50.277344 50.277343zm0 0" fill="#d866d3"/><path d="m212.660156 70.117188c-4.566406 0-8.988281.621093-13.195312 1.761718 21.363281 5.796875 37.082031 25.316406 37.082031 48.515625v51.1875c0 4.9375-1.296875 9.769531-3.703125 13.925781 5.160156 2.457032 6.285156 10.171876 13.332031 10.171876 1.570313 0 2.847657-.382813 3.9375-1.007813 8.160157-4.65625 12.820313-13.695313 12.820313-23.089844v-51.1875c0-27.765625-22.507813-50.277343-50.273438-50.277343zm0 0" fill="#c152c1"/><path d="m205.265625 132.179688c0 7.519531-6.09375 13.617187-13.617187 13.617187-7.519532 0-13.617188-6.097656-13.617188-13.617187 0-7.519532 6.097656-13.617188 13.617188-13.617188 7.523437 0 13.617187 6.097656 13.617187 13.617188zm0 0" fill="#ffdc13"/><path d="m247.25 132.179688c0 7.519531-6.097656 13.617187-13.617188 13.617187-7.519531 0-13.617187-6.097656-13.617187-13.617187 0-7.519532 6.097656-13.617188 13.617187-13.617188 7.519532 0 13.617188 6.097656 13.617188 13.617188zm0 0" fill="#ffdc13"/><path d="m346.867188 322.695312c0 9.011719-7.304688 16.320313-16.316407 16.320313-9.015625 0-16.320312-7.308594-16.320312-16.320313 0-9.011718 7.304687-16.316406 16.320312-16.316406 9.011719 0 16.316407 7.304688 16.316407 16.316406zm0 0" fill="#c152c1"/><path d="m422.421875 322.695312c0 9.011719-7.304687 16.320313-16.316406 16.320313s-16.320313-7.308594-16.320313-16.320313c0-9.011718 7.308594-16.316406 16.320313-16.316406s16.316406 7.304688 16.316406 16.316406zm0 0" fill="#c152c1"/><path d="m330.550781 306.375c-2.046875 0-3.996093.394531-5.796875 1.082031 6.144532 2.339844 10.523438 8.269531 10.523438 15.238281s-4.378906 12.898438-10.523438 15.238282c1.800782.6875 3.75 1.082031 5.796875 1.082031 9.011719 0 16.316407-7.308594 16.316407-16.320313 0-9.011718-7.304688-16.320312-16.316407-16.320312zm0 0" fill="#aa40ad"/><path d="m406.105469 306.375c-2.042969 0-3.992188.394531-5.796875 1.082031 6.148437 2.339844 10.523437 8.269531 10.523437 15.238281s-4.375 12.898438-10.523437 15.238282c1.804687.6875 3.753906 1.082031 5.796875 1.082031 9.011719 0 16.320312-7.308594 16.320312-16.320313-.003906-9.011718-7.308593-16.320312-16.320312-16.320312zm0 0" fill="#aa40ad"/></svg>