<svg height="512" viewBox="0 0 64 64" width="512" xmlns="http://www.w3.org/2000/svg"><rect fill="#d1e7f8" height="24" rx="2" width="58" x="3" y="33"/><path d="m5 55v-20a2.006 2.006 0 0 1 2-2h-2a2.006 2.006 0 0 0 -2 2v20a2.006 2.006 0 0 0 2 2h2a2.006 2.006 0 0 1 -2-2z" fill="#9bc9ff"/><path d="m7 37h50v16h-50z" fill="#2488ff"/><path d="m11 58a3 3 0 0 0 6 0v-1h-6z" fill="#6d6e71"/><path d="m47 58a3 3 0 0 0 6 0v-1h-6z" fill="#6d6e71"/><path d="m12.267 11h-4.534l-.733 22h6z" fill="#ffc477"/><path d="m12.067 5a2.068 2.068 0 0 0 -4.134 0l-.2 6h4.534z" fill="#ff3051"/><path d="m56.267 11h-4.534l-.733 22h6z" fill="#ffc477"/><path d="m56.067 5a2.068 2.068 0 0 0 -4.134 0l-.2 6h4.534z" fill="#ff3051"/><path d="m13 41h24v8h-24z" fill="#ffdaaa"/><g fill="#9cdd05"><path d="m42 42h4v2h-4z"/><path d="m48 42h4v2h-4z"/><path d="m42 46h4v2h-4z"/><path d="m48 46h4v2h-4z"/></g></svg>