<svg height="512" viewBox="0 0 64 64" width="512" xmlns="http://www.w3.org/2000/svg"><path d="m19 4v3h-8v-3a1 1 0 0 1 1-1h6a1 1 0 0 1 1 1z" fill="#e0e0e2"/><path d="m58 11v12h-52v-12a4 4 0 0 1 4-4h44a4 4 0 0 1 4 4z" fill="#00e7f0"/><path d="m10 11h6v4h-6z" fill="#ffda44"/><circle cx="52" cy="13" fill="#d80027" r="2"/><path d="m6 23h52v21h-52z" fill="#009698"/><path d="m61 46.5a4.507 4.507 0 0 1 -4.5 4.5h-49a4.5 4.5 0 0 1 -1.42-8.77 4.448 4.448 0 0 1 1.42-.23h49a4.448 4.448 0 0 1 1.42.23 4.494 4.494 0 0 1 3.08 4.27z" fill="#006468"/><path d="m52 51v10h-40v-10-5h40z" fill="#ebe5dd"/><path d="m44 25a12 12 0 0 1 -24 0 11.64 11.64 0 0 1 .16-1.97 12 12 0 0 1 23.68 0 11.64 11.64 0 0 1 .16 1.97z" fill="#57565c"/><circle cx="32" cy="25" fill="#bdfdff" r="8"/><path d="m9 45h46v2h-46z" fill="#3e3d42"/><circle cx="29" cy="23" fill="#fff" r="2"/></svg>