<?xml version="1.0"?>
<svg xmlns="http://www.w3.org/2000/svg" id="Layer_1" data-name="Layer 1" viewBox="0 0 512 512" width="512" height="512"><title>Computer Game</title><polygon points="482.32 325.93 482.32 400.93 316 400.93 196 400.93 29.68 400.93 29.68 325.93 482.32 325.93" style="fill:#00acea"/><path d="M482.32,39.74V325.93H29.68V39.74Z" style="fill:#00efd1"/><polygon points="351.52 211.6 351.52 240.86 290.33 240.86 290.33 151.9 351.52 211.6" style="fill:#f4b844"/><polygon points="316 400.93 336 472.26 176 472.26 196 400.93 316 400.93" style="fill:#f4b844"/><polygon points="290.33 240.86 290.33 263.83 271.67 263.83 240.33 263.83 221.67 263.83 221.67 240.86 221.67 151.9 221.67 116.08 290.33 116.08 290.33 151.9 290.33 240.86" style="fill:#fedb41"/><polygon points="256 71.3 290.33 116.08 221.67 116.08 256 71.3" style="fill:#00acea"/><polygon points="271.67 263.83 286.6 290.7 225.4 290.7 240.33 263.83 271.67 263.83" style="fill:#00acea"/><polygon points="221.67 151.9 221.67 240.86 160.48 240.86 160.48 211.6 221.67 151.9" style="fill:#f4b844"/><path d="M369.53,480.26H142.47a8,8,0,0,1,0-16H369.53a8,8,0,0,1,0,16Z" style="fill:#fedb41"/></svg>
