<svg id="Layer_1" enable-background="new 0 0 256 256" height="512" viewBox="0 0 256 256" width="512" xmlns="http://www.w3.org/2000/svg"><path d="m128 170.574c-2.209 0-4-1.791-4-4v-6c0-2.209 1.791-4 4-4s4 1.791 4 4v6c0 2.209-1.791 4-4 4z" fill="#f9cfcf"/><path d="m128 152.744c-2.209 0-4-1.791-4-4v-11.83c0-2.209 1.791-4 4-4s4 1.791 4 4v11.83c0 2.209-1.791 4-4 4zm0-23.659c-2.209 0-4-1.791-4-4v-11.83c0-2.209 1.791-4 4-4s4 1.791 4 4v11.83c0 2.209-1.791 4-4 4z" fill="#f9cfcf"/><path d="m128 105.426c-2.209 0-4-1.791-4-4v-6c0-2.209 1.791-4 4-4s4 1.791 4 4v6c0 2.209-1.791 4-4 4z" fill="#f9cfcf"/><path d="m244 151.583h-232c-2.209 0-4 1.791-4 4v26.167c0 1.104.896 2 2 2h6 76 125.778c1.779 0 3.222 1.442 3.222 3.222v6.557c0 1.779-1.442 3.222-3.222 3.222h-125.778-76-6c-1.104 0-2 .896-2 2v26.833c0 2.209 1.791 4 4 4h232c2.209 0 4-1.791 4-4v-70c0-2.21-1.791-4.001-4-4.001z" fill="#e0ebfc"/><path d="m220.751 107.779-2.104-10.524-3.807-19.039c-3.627-18.14-9.613-35.467-17.712-51.372-.11-.217-.224-.428-.351-.635-2.013-3.3-9.892-13.793-28.675-13.793h-24.548-30.755-24.535c-19.98 0-27.619 11.869-28.987 14.327-8.125 15.932-14.129 33.294-17.764 51.473l-6.068 30.346c-1.829 9.147 2.118 18.539 9.357 22.267 5.933 3.055 12.82 1.624 17.537-3.645l29.353-32.789c1.845-2.062 4.489-3.241 7.265-3.241h13.842 30.755 13.842c2.776 0 5.42 1.179 7.265 3.241l29.353 32.789c4.716 5.268 11.604 6.7 17.536 3.645 3.585-1.846 6.359-5.084 8.028-8.991 1.578-4.462 1.628-9.622 1.173-14.059z" fill="#4671c6"/><path d="m220.751 107.779-2.104-10.524-3.807-19.039c-3.627-18.14-9.613-35.467-17.712-51.372-.11-.217-.224-.428-.351-.635-2.013-3.3-9.892-13.793-28.675-13.793h-24.548-30.755-24.535c-19.98 0-27.619 11.869-28.987 14.327-8.125 15.932-14.129 33.294-17.764 51.473l-6.068 30.346c-1.829 9.147 2.118 18.539 9.357 22.267 5.933 3.055 12.82 1.624 17.537-3.645l29.353-32.789c1.845-2.062 4.489-3.241 7.265-3.241h13.842 30.755 13.842c2.776 0 5.42 1.179 7.265 3.241l29.353 32.789c4.716 5.268 11.604 6.7 17.536 3.645 3.585-1.846 6.359-5.084 8.028-8.991 1.578-4.462 1.628-9.622 1.173-14.059z" fill="#4671c6"/><path d="m138 57.308h-20c-1.105 0-2-.895-2-2v-5.761c0-1.105.895-2 2-2h20c1.105 0 2 .895 2 2v5.761c0 1.105-.895 2-2 2z" fill="#f9a7a7"/><path d="m236.653 243.583h-217.306c-1.848 0-3.347-1.498-3.347-3.347v-10.653h224v10.653c0 1.849-1.498 3.347-3.347 3.347z" fill="#a4c9ff"/><path d="m217.778 183.75h-201.778v13h201.778c1.779 0 3.222-1.442 3.222-3.222v-6.556c0-1.78-1.442-3.222-3.222-3.222z" fill="#6bdddd"/><path d="m236.653 245.583h-217.306c-2.948 0-5.347-2.398-5.347-5.347v-10.653c0-1.104.896-2 2-2h224c1.104 0 2 .896 2 2v10.653c0 2.949-2.398 5.347-5.347 5.347zm-218.653-14v8.653c0 .742.604 1.347 1.347 1.347h217.307c.742 0 1.347-.604 1.347-1.347v-8.653z" fill="#3762cc"/><path d="m229.906 223.306h-.123c-5.743 0-10.4-4.656-10.4-10.4v-.123c0-5.743 4.656-10.4 10.4-10.4h.123c5.743 0 10.4 4.656 10.4 10.4v.123c0 5.744-4.656 10.4-10.4 10.4z" fill="#a4c9ff"/><path d="m229.913 218.718h-.136c-3.201 0-5.805-2.604-5.805-5.805v-.136c0-.635.515-1.15 1.15-1.15s1.15.515 1.15 1.15v.136c0 1.933 1.573 3.505 3.505 3.505h.136c1.933 0 3.505-1.573 3.505-3.505v-.136c0-.635.514-1.15 1.15-1.15s1.15.515 1.15 1.15v.136c0 3.201-2.604 5.805-5.805 5.805z" fill="#ffea92"/><path d="m229.845 213.14c-.635 0-1.15-.441-1.15-.986v-4.928c0-.544.515-.986 1.15-.986s1.15.441 1.15.986v4.928c0 .545-.515.986-1.15.986z" fill="#ffea92"/><path d="m229.906 225.306h-.122c-6.838 0-12.4-5.563-12.4-12.399v-.122c0-6.837 5.563-12.399 12.4-12.399h.122c6.837 0 12.399 5.563 12.399 12.399v.122c.001 6.836-5.562 12.399-12.399 12.399zm-.122-20.921c-4.632 0-8.4 3.768-8.4 8.399v.122c0 4.632 3.769 8.399 8.4 8.399h.122c4.632 0 8.399-3.768 8.399-8.399v-.122c0-4.632-3.768-8.399-8.399-8.399z" fill="#3762cc"/><circle cx="172.602" cy="51.657" fill="#e0ebfc" r="24.606"/><circle cx="172.602" cy="40.07" fill="#6bdddd" r="6.935"/><circle cx="172.602" cy="63.244" fill="#6bdddd" r="6.935"/><circle cx="184.19" cy="51.657" fill="#6bdddd" r="6.935"/><circle cx="161.015" cy="51.657" fill="#6bdddd" r="6.935"/><circle cx="82.102" cy="51.657" fill="#e0ebfc" r="23.311"/><path d="m96.358 46.054h-8.652v-8.652c0-.792-.642-1.434-1.434-1.434h-8.338c-.792 0-1.434.642-1.434 1.434v8.652h-8.652c-.792 0-1.435.642-1.435 1.434v8.338c0 .792.642 1.435 1.435 1.435h8.652v8.652c0 .792.642 1.435 1.434 1.435h8.338c.792 0 1.434-.642 1.434-1.435v-8.652h8.652c.792 0 1.434-.642 1.434-1.435v-8.338c0-.792-.642-1.434-1.434-1.434z" fill="#6bdddd"/><g fill="#3762cc"><path d="m217.778 198.75h-201.778c-1.104 0-2-.896-2-2v-13c0-1.104.896-2 2-2h201.778c2.879 0 5.222 2.343 5.222 5.222v6.557c0 2.878-2.343 5.221-5.222 5.221zm-199.778-4h199.778c.674 0 1.222-.548 1.222-1.222v-6.557c0-.674-.548-1.222-1.222-1.222h-199.778z"/><path d="m244 231.583h-232c-3.309 0-6-2.691-6-6v-26.833c0-2.206 1.794-4 4-4h207.778c.674 0 1.222-.548 1.222-1.222v-6.557c0-.674-.548-1.222-1.222-1.222h-207.778c-2.206 0-4-1.794-4-4v-26.167c0-3.309 2.691-6 6-6h232c3.309 0 6 2.691 6 6v70c0 3.31-2.691 6.001-6 6.001zm-234-32.833v26.833c0 1.103.897 2 2 2h232c1.103 0 2-.897 2-2v-70c0-1.103-.897-2-2-2h-232c-1.103 0-2 .897-2 2v26.167h207.778c2.879 0 5.222 2.343 5.222 5.222v6.557c0 2.879-2.343 5.222-5.222 5.222h-207.778z"/><path d="m51.256 134.429c-2.485 0-4.992-.597-7.37-1.82-8.031-4.137-12.406-14.414-10.401-24.438l6.067-30.347c3.667-18.34 9.704-35.831 17.944-51.988 1.461-2.628 9.649-15.418 30.768-15.418h79.839c19.839 0 28.271 11.29 30.382 14.75.153.252.291.507.424.767 8.213 16.128 14.231 33.585 17.893 51.89l5.911 29.563c.013.063.022.125.028.188.598 5.823.168 10.847-1.276 14.932-.015.04-.029.079-.046.118-1.896 4.441-5.075 7.987-8.951 9.984-6.773 3.485-14.599 1.881-19.942-4.09l-29.354-32.789c-1.465-1.636-3.569-2.574-5.774-2.574h-58.441c-2.206 0-4.311.938-5.775 2.574l-29.354 32.789c-3.467 3.873-7.981 5.909-12.572 5.909zm37.008-120.012c-18.88 0-26.003 11.078-27.239 13.299-8.039 15.768-13.955 32.911-17.551 50.893l-6.067 30.347c-1.661 8.309 1.834 16.761 8.312 20.097 5.101 2.627 11.038 1.368 15.13-3.201l29.354-32.789c2.223-2.482 5.414-3.906 8.756-3.906h58.439c3.341 0 6.532 1.424 8.755 3.906l29.354 32.789c4.09 4.57 10.031 5.827 15.13 3.201 3.033-1.563 5.545-4.381 7.079-7.939 1.221-3.491 1.576-7.876 1.057-13.036l-5.892-29.468c-3.59-17.947-9.488-35.058-17.533-50.857-.086-.169-.177-.338-.277-.502-1.836-3.009-9.21-12.832-26.966-12.832h-79.841z"/><path d="m51.256 134.429c-2.485 0-4.992-.597-7.37-1.82-8.031-4.137-12.406-14.414-10.401-24.438l6.067-30.347c3.667-18.34 9.704-35.831 17.944-51.988 1.461-2.628 9.649-15.418 30.768-15.418h79.839c19.839 0 28.271 11.29 30.382 14.75.153.252.291.507.424.767 8.213 16.128 14.231 33.585 17.893 51.89l5.911 29.563c.013.063.022.125.028.188.598 5.823.168 10.847-1.276 14.932-.015.04-.029.079-.046.118-1.896 4.441-5.075 7.987-8.951 9.984-6.773 3.485-14.599 1.881-19.942-4.09l-29.354-32.789c-1.465-1.636-3.569-2.574-5.774-2.574h-58.441c-2.206 0-4.311.938-5.775 2.574l-29.354 32.789c-3.467 3.873-7.981 5.909-12.572 5.909zm37.008-120.012c-18.88 0-26.003 11.078-27.239 13.299-8.039 15.768-13.955 32.911-17.551 50.893l-6.067 30.347c-1.661 8.309 1.834 16.761 8.312 20.097 5.101 2.627 11.038 1.368 15.13-3.201l29.354-32.789c2.223-2.482 5.414-3.906 8.756-3.906h58.439c3.341 0 6.532 1.424 8.755 3.906l29.354 32.789c4.09 4.57 10.031 5.827 15.13 3.201 3.033-1.563 5.545-4.381 7.079-7.939 1.221-3.491 1.576-7.876 1.057-13.036l-5.892-29.468c-3.59-17.947-9.488-35.058-17.533-50.857-.086-.169-.177-.338-.277-.502-1.836-3.009-9.21-12.832-26.966-12.832h-79.841z"/><path d="m172.603 78.264c-14.67 0-26.605-11.936-26.605-26.606s11.936-26.605 26.605-26.605 26.605 11.936 26.605 26.605c0 14.67-11.936 26.606-26.605 26.606zm0-49.212c-12.465 0-22.605 10.141-22.605 22.605s10.141 22.606 22.605 22.606 22.605-10.142 22.605-22.606-10.141-22.605-22.605-22.605z"/><path d="m82.103 76.968c-13.956 0-25.311-11.354-25.311-25.311s11.354-25.311 25.311-25.311 25.311 11.354 25.311 25.311-11.355 25.311-25.311 25.311zm0-46.621c-11.751 0-21.311 9.56-21.311 21.311s9.56 21.311 21.311 21.311 21.311-9.56 21.311-21.311-9.56-21.311-21.311-21.311z"/></g></svg>