<svg height="512" viewBox="0 0 64 64" width="512" xmlns="http://www.w3.org/2000/svg"><g id="Game_Console-9" data-name="Game Console"><path d="m61 19v26a2.006 2.006 0 0 1 -2 2h-10v-30h10a2.006 2.006 0 0 1 2 2z" fill="#acabb1"/><path d="m15 17v30h-10a2.006 2.006 0 0 1 -2-2v-26a2.006 2.006 0 0 1 2-2z" fill="#acabb1"/><path d="m7 47h-2a2.006 2.006 0 0 1 -2-2v-26a2.006 2.006 0 0 1 2-2h2a2.006 2.006 0 0 0 -2 2v26a2.006 2.006 0 0 0 2 2z" fill="#898890"/><circle cx="55" cy="29" fill="#ff5023" r="2"/><path d="m15 17h34v30h-34z" fill="#ffde55"/><circle cx="9" cy="29" fill="#ffa733" r="2"/><path d="m49 22.45v24.55h-26.58c7.48-3.66 18.97-11.09 26.58-24.55z" fill="#ffd422"/><g fill="#e6e7e8"><path d="m6 38h2v2h-2z"/><path d="m10 38h2v2h-2z"/><path d="m8 36h2v2h-2z"/><path d="m8 40h2v2h-2z"/><path d="m52 38h2v2h-2z"/><path d="m56 38h2v2h-2z"/><path d="m54 36h2v2h-2z"/><path d="m54 40h2v2h-2z"/></g><path d="m8 22h2v2h-2z" fill="#ee8700"/><path d="m54 22h2v2h-2z" fill="#ee8700"/></g></svg>