<svg height="512" viewBox="0 0 64 64" width="512" xmlns="http://www.w3.org/2000/svg"><g id="Home_theator" data-name="Home theator"><path d="m3 9h8v4h-8z" fill="#ff3051"/><path d="m3 39h2 4 2v-17l-8 8z" fill="#2488ff"/><path d="m3 30 8-8v-5l-8 8z" fill="#ffcd00"/><path d="m3 25 8-8v-4h-8z" fill="#2488ff"/><path d="m5 39h4v22h-4z" fill="#6d6e71"/><rect fill="#d1e7f8" height="21" rx="2" width="34" x="15" y="18"/><path d="m18 21h28v15h-28z" fill="#2488ff"/><path d="m53 9h8v4h-8z" fill="#ff3051"/><path d="m53 39h2 4 2v-17l-8 8z" fill="#2488ff"/><path d="m53 30 8-8v-5l-8 8z" fill="#ffcd00"/><path d="m53 25 8-8v-4h-8z" fill="#2488ff"/><path d="m55 39h4v22h-4z" fill="#6d6e71"/><rect fill="#a7a9ac" height="16" rx="2" width="30" x="17" y="45"/><path d="m19 59v-12a2.006 2.006 0 0 1 2-2h-2a2.006 2.006 0 0 0 -2 2v12a2.006 2.006 0 0 0 2 2h2a2.006 2.006 0 0 1 -2-2z" fill="#939598"/><circle cx="26" cy="53" fill="#ffc477" r="5"/><circle cx="26" cy="53" fill="#ff3051" r="2"/><circle cx="39" cy="53" fill="#ffc477" r="4"/><circle cx="39" cy="53" fill="#ff3051" r="1"/><path d="m18 25v11h11a10.994 10.994 0 0 1 -11-11z" fill="#006df0"/><g fill="#58595b"><rect height="2" rx="1" width="8" x="53" y="59"/><rect height="2" rx="1" width="8" x="3" y="59"/></g></g></svg>