<svg id="Capa_1" enable-background="new 0 0 510 510" height="512" viewBox="0 0 510 510" width="512" xmlns="http://www.w3.org/2000/svg" xmlns:xlink="http://www.w3.org/1999/xlink"><linearGradient id="lg1"><stop offset="0" stop-color="#f9f7fc"/><stop offset="1" stop-color="#f0ddfc"/></linearGradient><linearGradient id="SVGID_1_" gradientUnits="userSpaceOnUse" x1="39.554" x2="67.63" xlink:href="#lg1" y1="373.295" y2="373.295"/><linearGradient id="lg2"><stop offset="0" stop-color="#f0ddfc" stop-opacity="0"/><stop offset=".2889" stop-color="#c8b7e0" stop-opacity=".289"/><stop offset=".5915" stop-color="#a595c8" stop-opacity=".592"/><stop offset=".8395" stop-color="#8f81b8" stop-opacity=".84"/><stop offset="1" stop-color="#8779b3"/></linearGradient><linearGradient id="SVGID_2_" gradientUnits="userSpaceOnUse" x1="78.403" x2="30.596" xlink:href="#lg2" y1="370.113" y2="322.306"/><linearGradient id="lg3"><stop offset="0" stop-color="#7e8595"/><stop offset=".6135" stop-color="#656b79"/><stop offset="1" stop-color="#555a66"/></linearGradient><linearGradient id="SVGID_3_" gradientUnits="userSpaceOnUse" x1="16.371" x2="109.119" xlink:href="#lg3" y1="180.652" y2="232.823"/><linearGradient id="lg4"><stop offset="0" stop-color="#bec3d2" stop-opacity="0"/><stop offset=".221" stop-color="#c5c9d7" stop-opacity=".221"/><stop offset=".5343" stop-color="#d7dae3" stop-opacity=".534"/><stop offset=".9014" stop-color="#f6f6f8" stop-opacity=".901"/><stop offset="1" stop-color="#fff"/></linearGradient><linearGradient id="SVGID_4_" gradientUnits="userSpaceOnUse" x1="39.967" x2="-108.444" xlink:href="#lg4" y1="198.594" y2="144.845"/><linearGradient id="SVGID_5_" gradientUnits="userSpaceOnUse" x1="90.386" x2="7.108" xlink:href="#lg3" y1="151.724" y2="68.446"/><linearGradient id="SVGID_6_" gradientTransform="matrix(-1 0 0 -1 510 263.148)" gradientUnits="userSpaceOnUse" x1="485.502" x2="419.652" xlink:href="#lg3" y1="177.313" y2="111.462"/><linearGradient id="SVGID_7_" gradientUnits="userSpaceOnUse" x1="90.386" x2="7.108" xlink:href="#lg3" y1="238.383" y2="155.105"/><linearGradient id="SVGID_8_" gradientTransform="matrix(-1 0 0 -1 510 263.148)" gradientUnits="userSpaceOnUse" x1="485.502" x2="419.652" xlink:href="#lg3" y1="90.653" y2="24.802"/><linearGradient id="SVGID_9_" gradientUnits="userSpaceOnUse" x1="90.386" x2="7.108" xlink:href="#lg3" y1="325.043" y2="241.764"/><linearGradient id="SVGID_10_" gradientTransform="matrix(-1 0 0 -1 510 263.148)" gradientUnits="userSpaceOnUse" x1="485.502" x2="419.652" xlink:href="#lg3" y1="3.994" y2="-61.857"/><linearGradient id="lg5"><stop offset="0" stop-color="#555a66" stop-opacity="0"/><stop offset="1" stop-color="#555a66"/></linearGradient><linearGradient id="SVGID_11_" gradientUnits="userSpaceOnUse" x1="33.925" x2="89.093" xlink:href="#lg5" y1="199.324" y2="211.862"/><linearGradient id="lg6"><stop offset="0" stop-color="#7e8595"/><stop offset="1" stop-color="#555a66"/></linearGradient><linearGradient id="SVGID_12_" gradientUnits="userSpaceOnUse" x1="53.592" x2="53.592" xlink:href="#lg6" y1="413.506" y2="432.824"/><linearGradient id="SVGID_13_" gradientUnits="userSpaceOnUse" x1="53.592" x2="53.592" xlink:href="#lg6" y1="434.002" y2="466.92"/><linearGradient id="SVGID_14_" gradientUnits="userSpaceOnUse" x1="51.147" x2="-5.078" xlink:href="#lg4" y1="430.404" y2="388.511"/><linearGradient id="SVGID_15_" gradientUnits="userSpaceOnUse" x1="442.37" x2="470.446" xlink:href="#lg1" y1="373.295" y2="373.295"/><linearGradient id="SVGID_16_" gradientUnits="userSpaceOnUse" x1="481.219" x2="433.412" xlink:href="#lg2" y1="370.113" y2="322.306"/><linearGradient id="SVGID_17_" gradientUnits="userSpaceOnUse" x1="419.187" x2="511.935" xlink:href="#lg3" y1="180.652" y2="232.823"/><linearGradient id="SVGID_18_" gradientUnits="userSpaceOnUse" x1="442.783" x2="294.373" xlink:href="#lg4" y1="198.594" y2="144.845"/><linearGradient id="SVGID_19_" gradientUnits="userSpaceOnUse" x1="493.202" x2="409.924" xlink:href="#lg3" y1="151.724" y2="68.446"/><linearGradient id="SVGID_20_" gradientTransform="matrix(-1 0 0 -1 510 263.148)" gradientUnits="userSpaceOnUse" x1="82.686" x2="16.835" xlink:href="#lg3" y1="177.313" y2="111.462"/><linearGradient id="SVGID_21_" gradientUnits="userSpaceOnUse" x1="493.202" x2="409.924" xlink:href="#lg3" y1="238.383" y2="155.105"/><linearGradient id="SVGID_22_" gradientTransform="matrix(-1 0 0 -1 510 263.148)" gradientUnits="userSpaceOnUse" x1="82.686" x2="16.835" xlink:href="#lg3" y1="90.653" y2="24.802"/><linearGradient id="SVGID_23_" gradientUnits="userSpaceOnUse" x1="493.202" x2="409.924" xlink:href="#lg3" y1="325.043" y2="241.764"/><linearGradient id="SVGID_24_" gradientTransform="matrix(-1 0 0 -1 510 263.148)" gradientUnits="userSpaceOnUse" x1="82.686" x2="16.835" xlink:href="#lg3" y1="3.994" y2="-61.857"/><linearGradient id="SVGID_25_" gradientUnits="userSpaceOnUse" x1="436.741" x2="491.909" xlink:href="#lg5" y1="199.324" y2="211.862"/><linearGradient id="SVGID_26_" gradientUnits="userSpaceOnUse" x1="456.408" x2="456.408" xlink:href="#lg6" y1="413.506" y2="432.824"/><linearGradient id="SVGID_27_" gradientUnits="userSpaceOnUse" x1="456.408" x2="456.408" xlink:href="#lg6" y1="434.002" y2="466.92"/><linearGradient id="SVGID_28_" gradientUnits="userSpaceOnUse" x1="453.963" x2="397.738" xlink:href="#lg4" y1="430.404" y2="388.511"/><linearGradient id="SVGID_29_" gradientUnits="userSpaceOnUse" x1="224.067" x2="271.87" xlink:href="#lg6" y1="290.106" y2="294.659"/><linearGradient id="SVGID_30_" gradientUnits="userSpaceOnUse" x1="264.354" x2="187.313" xlink:href="#lg4" y1="296.016" y2="277.579"/><linearGradient id="SVGID_31_" gradientUnits="userSpaceOnUse" x1="292.912" x2="236.945" xlink:href="#lg5" y1="310.083" y2="254.477"/><linearGradient id="SVGID_32_" gradientUnits="userSpaceOnUse" x1="238.624" x2="326.005" xlink:href="#lg6" y1="147.704" y2="368.77"/><linearGradient id="SVGID_33_" gradientUnits="userSpaceOnUse" x1="368.098" x2="44.477" xlink:href="#lg6" y1="302.232" y2="-21.389"/><linearGradient id="lg7"><stop offset="0" stop-color="#18cffc"/><stop offset="1" stop-color="#4a98f7"/></linearGradient><linearGradient id="SVGID_34_" gradientUnits="userSpaceOnUse" x1="240.691" x2="317.041" xlink:href="#lg7" y1="152.934" y2="346.093"/><linearGradient id="lg8"><stop offset="0" stop-color="#0469bc" stop-opacity="0"/><stop offset="1" stop-color="#0469bc"/></linearGradient><linearGradient id="SVGID_35_" gradientUnits="userSpaceOnUse" x1="141.099" x2="118.537" xlink:href="#lg8" y1="189.134" y2="189.134"/><linearGradient id="SVGID_36_" gradientUnits="userSpaceOnUse" x1="255" x2="255" xlink:href="#lg8" y1="128.972" y2="105.123"/><linearGradient id="lg9"><stop offset="0" stop-color="#18cffc" stop-opacity="0"/><stop offset="1" stop-color="#65e1dc"/></linearGradient><linearGradient id="SVGID_37_" gradientUnits="userSpaceOnUse" x1="290.055" x2="148.856" xlink:href="#lg9" y1="264.541" y2="-39.193"/><linearGradient id="SVGID_38_" gradientUnits="userSpaceOnUse" x1="255" x2="255" xlink:href="#lg6" y1="309.213" y2="314.933"/><linearGradient id="SVGID_39_" gradientUnits="userSpaceOnUse" x1="254.416" x2="256.923" xlink:href="#lg3" y1="329.64" y2="363.233"/><linearGradient id="SVGID_40_" gradientUnits="userSpaceOnUse" x1="251.821" x2="230.6" xlink:href="#lg4" y1="315.951" y2="235.311"/><linearGradient id="SVGID_41_" gradientUnits="userSpaceOnUse" x1="195.558" x2="195.558" xlink:href="#lg3" y1="348.177" y2="323.077"/><linearGradient id="SVGID_42_" gradientTransform="matrix(1 0 0 -1 0 790.614)" gradientUnits="userSpaceOnUse" x1="195.558" x2="195.558" xlink:href="#lg3" y1="460.572" y2="443.177"/><linearGradient id="SVGID_43_" gradientUnits="userSpaceOnUse" x1="340.526" x2="317.159" xlink:href="#lg3" y1="351.098" y2="327.731"/><linearGradient id="SVGID_44_" gradientUnits="userSpaceOnUse" x1="361.963" x2="338.596" xlink:href="#lg3" y1="351.098" y2="327.731"/><linearGradient id="SVGID_45_" gradientUnits="userSpaceOnUse" x1="383.4" x2="360.033" xlink:href="#lg3" y1="351.098" y2="327.731"/><linearGradient id="SVGID_46_" gradientTransform="matrix(.961 .278 -.278 .961 -275.766 77.758)" gradientUnits="userSpaceOnUse" x1="668.103" x2="680.415" xlink:href="#lg7" y1="72.695" y2="85.007"/><linearGradient id="SVGID_47_" gradientTransform="matrix(.961 .278 -.278 .961 -275.766 77.758)" gradientUnits="userSpaceOnUse" x1="672.8" x2="666.935" xlink:href="#lg9" y1="77.868" y2="69.553"/><linearGradient id="SVGID_48_" gradientTransform="matrix(.961 .278 -.278 .961 -275.766 77.758)" gradientUnits="userSpaceOnUse" x1="671.99" x2="685.057" xlink:href="#lg8" y1="79.895" y2="55.592"/><linearGradient id="SVGID_49_" gradientUnits="userSpaceOnUse" x1="323.416" x2="335.728" y1="333.909" y2="346.221"><stop offset="0" stop-color="#ff7044"/><stop offset="1" stop-color="#f92814"/></linearGradient><linearGradient id="SVGID_50_" gradientUnits="userSpaceOnUse" x1="328.113" x2="322.248" y1="339.083" y2="330.767"><stop offset="0" stop-color="#ff7044" stop-opacity="0"/><stop offset="1" stop-color="#ffa425"/></linearGradient><linearGradient id="SVGID_51_" gradientUnits="userSpaceOnUse" x1="327.303" x2="340.37" y1="341.109" y2="316.806"><stop offset="0" stop-color="#f92814" stop-opacity="0"/><stop offset="1" stop-color="#c1272d"/></linearGradient><linearGradient id="SVGID_52_" gradientUnits="userSpaceOnUse" x1="366.131" x2="378.444" y1="333.909" y2="346.221"><stop offset="0" stop-color="#92f37f"/><stop offset="1" stop-color="#4ab272"/></linearGradient><linearGradient id="SVGID_53_" gradientUnits="userSpaceOnUse" x1="370.829" x2="364.963" y1="339.083" y2="330.767"><stop offset="0" stop-color="#92f37f" stop-opacity="0"/><stop offset="1" stop-color="#ffee83"/></linearGradient><linearGradient id="SVGID_54_" gradientUnits="userSpaceOnUse" x1="370.018" x2="383.085" y1="341.109" y2="316.806"><stop offset="0" stop-color="#4ab272" stop-opacity="0"/><stop offset="1" stop-color="#009245"/></linearGradient><linearGradient id="lg10"><stop offset="0" stop-color="#fcb37e"/><stop offset="1" stop-color="#8c6239"/></linearGradient><linearGradient id="SVGID_55_" gradientUnits="userSpaceOnUse" x1="247.046" x2="262.25" xlink:href="#lg10" y1="356.472" y2="424.672"/><linearGradient id="SVGID_56_" gradientUnits="userSpaceOnUse" x1="255" x2="255" xlink:href="#lg10" y1="417.196" y2="368.901"/><linearGradient id="lg11"><stop offset="0" stop-color="#8c6239" stop-opacity="0"/><stop offset="1" stop-color="#8c6239"/></linearGradient><linearGradient id="SVGID_57_" gradientUnits="userSpaceOnUse" x1="256.306" x2="253.536" xlink:href="#lg11" y1="390.991" y2="348.751"/><linearGradient id="SVGID_58_" gradientUnits="userSpaceOnUse" x1="254.401" x2="255.864" xlink:href="#lg1" y1="384.058" y2="403.82"/><linearGradient id="lg12"><stop offset="0" stop-color="#fff" stop-opacity="0"/><stop offset="1" stop-color="#fff"/></linearGradient><linearGradient id="SVGID_59_" gradientUnits="userSpaceOnUse" x1="271.229" x2="268.939" xlink:href="#lg12" y1="424.152" y2="376.634"/><linearGradient id="SVGID_60_" gradientUnits="userSpaceOnUse" x1="321.073" x2="319.475" xlink:href="#lg12" y1="412.976" y2="389.804"/><linearGradient id="SVGID_61_" gradientUnits="userSpaceOnUse" x1="254.381" x2="256.597" xlink:href="#lg10" y1="354.379" y2="392.047"/><linearGradient id="lg13"><stop offset="0" stop-color="#ffdaaa" stop-opacity="0"/><stop offset=".2054" stop-color="#ffdfb5" stop-opacity=".205"/><stop offset=".5703" stop-color="#ffecd4" stop-opacity=".57"/><stop offset="1" stop-color="#fff"/></linearGradient><linearGradient id="SVGID_62_" gradientUnits="userSpaceOnUse" x1="256.329" x2="253.07" xlink:href="#lg13" y1="362.463" y2="333.594"/><linearGradient id="SVGID_63_" gradientUnits="userSpaceOnUse" x1="255" x2="255" xlink:href="#lg10" y1="449.286" y2="415.216"/><linearGradient id="SVGID_64_" gradientUnits="userSpaceOnUse" x1="247.874" x2="267.187" xlink:href="#lg10" y1="412.47" y2="494.551"/><linearGradient id="SVGID_65_" gradientUnits="userSpaceOnUse" x1="127.068" x2="145.752" xlink:href="#lg10" y1="432.402" y2="432.402"/><linearGradient id="SVGID_66_" gradientUnits="userSpaceOnUse" x1="142.172" x2="129.471" xlink:href="#lg11" y1="436.15" y2="416.441"/><linearGradient id="SVGID_67_" gradientUnits="userSpaceOnUse" x1="367.224" x2="385.908" xlink:href="#lg10" y1="432.402" y2="432.402"/><linearGradient id="SVGID_68_" gradientUnits="userSpaceOnUse" x1="134.922" x2="134.922" xlink:href="#lg10" y1="440.148" y2="447.844"/><linearGradient id="SVGID_69_" gradientUnits="userSpaceOnUse" x1="134.922" x2="134.922" xlink:href="#lg10" y1="448.313" y2="461.427"/><linearGradient id="SVGID_70_" gradientUnits="userSpaceOnUse" x1="144.317" x2="144.317" xlink:href="#lg11" y1="448.313" y2="461.427"/><linearGradient id="SVGID_71_" gradientUnits="userSpaceOnUse" x1="135.419" x2="101.999" xlink:href="#lg13" y1="448.101" y2="435.247"/><linearGradient id="SVGID_72_" gradientUnits="userSpaceOnUse" x1="375.078" x2="375.078" xlink:href="#lg10" y1="440.148" y2="447.844"/><linearGradient id="SVGID_73_" gradientUnits="userSpaceOnUse" x1="375.078" x2="375.078" xlink:href="#lg10" y1="448.313" y2="461.427"/><linearGradient id="SVGID_74_" gradientUnits="userSpaceOnUse" x1="384.474" x2="384.474" xlink:href="#lg11" y1="448.313" y2="461.427"/><linearGradient id="SVGID_75_" gradientUnits="userSpaceOnUse" x1="375.575" x2="342.155" xlink:href="#lg13" y1="448.101" y2="435.247"/><linearGradient id="SVGID_76_" gradientUnits="userSpaceOnUse" x1="254.381" x2="256.597" xlink:href="#lg10" y1="408.301" y2="445.969"/><linearGradient id="SVGID_77_" gradientUnits="userSpaceOnUse" x1="256.329" x2="253.07" xlink:href="#lg13" y1="416.385" y2="387.516"/><path d="m39.554 339.7h28.075v67.189h-28.075z" fill="url(#SVGID_1_)"/><path d="m39.554 350.863.065.105 28.011 28.011v-39.279h-28.076z" fill="url(#SVGID_2_)"/><path d="m67.564 350.968h-27.945c-16.891 0-30.583-13.693-30.583-30.583v-237.592c0-16.891 13.693-30.583 30.583-30.583h27.945c16.891 0 30.583 13.693 30.583 30.583v237.591c.001 16.892-13.692 30.584-30.583 30.584z" fill="url(#SVGID_3_)"/><path d="m73.086 57.732h-27.945c-16.891 0-30.583 13.693-30.583 30.583v237.591c0 7.038 2.383 13.515 6.378 18.683 5.168 3.995 11.646 6.378 18.683 6.378h27.945c16.891 0 30.583-13.693 30.583-30.583v-237.591c0-.07 0-.141-.001-.211-.092-13.605-11.245-24.758-24.85-24.85-.069 0-.139 0-.21 0z" fill="url(#SVGID_4_)"/><circle cx="53.592" cy="114.93" fill="url(#SVGID_5_)" r="31.534"/><circle cx="53.592" cy="114.93" fill="url(#SVGID_6_)" r="24.935"/><circle cx="53.592" cy="201.589" fill="url(#SVGID_7_)" r="31.534"/><circle cx="53.592" cy="201.589" fill="url(#SVGID_8_)" r="24.935"/><circle cx="53.592" cy="288.248" fill="url(#SVGID_9_)" r="31.534"/><circle cx="53.592" cy="288.248" fill="url(#SVGID_10_)" r="24.935"/><path d="m73.086 57.732h-27.945c-16.891 0-30.583 13.693-30.583 30.583v237.591c0 7.038 2.383 13.515 6.378 18.683 5.168 3.995 11.646 6.378 18.683 6.378h27.945c16.891 0 30.583-13.693 30.583-30.583v-237.591c0-.07 0-.141-.001-.211-.092-13.605-11.245-24.758-24.85-24.85-.069 0-.139 0-.21 0z" fill="url(#SVGID_11_)"/><path d="m84.392 453.229h-61.6c-5.038 0-9.123-4.085-9.123-9.123v-27.618c0-5.038 4.085-9.123 9.123-9.123h61.601c5.038 0 9.123 4.085 9.123 9.123v27.618c-.001 5.038-4.086 9.123-9.124 9.123z" fill="url(#SVGID_12_)"/><path d="m98.061 457.79h-88.938c-5.038 0-9.123-4.084-9.123-9.123v-5.162c0-10.69 8.666-19.356 19.356-19.356h68.472c10.69 0 19.356 8.666 19.356 19.356v5.162c0 5.039-4.085 9.123-9.123 9.123z" fill="url(#SVGID_13_)"/><path d="m107.184 448.667v-5.162c0-8.711-5.754-16.076-13.669-18.505v-8.512c0-5.038-4.085-9.123-9.123-9.123h-46.987c-5.038 0-9.123 4.085-9.123 9.123v8.512c-7.914 2.429-13.669 9.794-13.669 18.505v5.162c0 5.038 4.085 9.123 9.123 9.123h74.324c5.039 0 9.124-4.084 9.124-9.123z" fill="url(#SVGID_14_)"/><path d="m442.37 339.7h28.075v67.189h-28.075z" fill="url(#SVGID_15_)"/><path d="m442.37 350.863.066.105 28.01 28.011v-39.279h-28.076z" fill="url(#SVGID_16_)"/><path d="m470.381 350.968h-27.945c-16.891 0-30.583-13.693-30.583-30.583v-237.592c0-16.891 13.693-30.583 30.583-30.583h27.945c16.891 0 30.583 13.693 30.583 30.583v237.591c0 16.892-13.693 30.584-30.583 30.584z" fill="url(#SVGID_17_)"/><path d="m475.902 57.732h-27.945c-16.891 0-30.583 13.693-30.583 30.583v237.591c0 7.038 2.383 13.515 6.378 18.683 5.168 3.995 11.646 6.378 18.683 6.378h27.945c16.891 0 30.583-13.693 30.583-30.583v-237.591c0-.07 0-.141-.001-.211-.092-13.605-11.245-24.758-24.85-24.85-.069 0-.139 0-.21 0z" fill="url(#SVGID_18_)"/><circle cx="456.408" cy="114.93" fill="url(#SVGID_19_)" r="31.534"/><circle cx="456.408" cy="114.93" fill="url(#SVGID_20_)" r="24.935"/><circle cx="456.408" cy="201.589" fill="url(#SVGID_21_)" r="31.534"/><circle cx="456.408" cy="201.589" fill="url(#SVGID_22_)" r="24.935"/><circle cx="456.408" cy="288.248" fill="url(#SVGID_23_)" r="31.534"/><circle cx="456.408" cy="288.248" fill="url(#SVGID_24_)" r="24.935"/><path d="m475.902 57.732h-27.945c-16.891 0-30.583 13.693-30.583 30.583v237.591c0 7.038 2.383 13.515 6.378 18.683 5.168 3.995 11.646 6.378 18.683 6.378h27.945c16.891 0 30.583-13.693 30.583-30.583v-237.591c0-.07 0-.141-.001-.211-.092-13.605-11.245-24.758-24.85-24.85-.069 0-.139 0-.21 0z" fill="url(#SVGID_25_)"/><path d="m487.208 453.229h-61.601c-5.038 0-9.123-4.085-9.123-9.123v-27.618c0-5.038 4.085-9.123 9.123-9.123h61.601c5.038 0 9.123 4.085 9.123 9.123v27.618c0 5.038-4.084 9.123-9.123 9.123z" fill="url(#SVGID_26_)"/><path d="m500.877 457.79h-88.938c-5.038 0-9.123-4.084-9.123-9.123v-5.162c0-10.69 8.666-19.356 19.356-19.356h68.472c10.69 0 19.356 8.666 19.356 19.356v5.162c0 5.039-4.085 9.123-9.123 9.123z" fill="url(#SVGID_27_)"/><path d="m510 448.667v-5.162c0-8.711-5.754-16.076-13.669-18.505v-8.512c0-5.038-4.085-9.123-9.123-9.123h-46.987c-5.038 0-9.123 4.085-9.123 9.123v8.512c-7.914 2.429-13.669 9.794-13.669 18.505v5.162c0 5.038 4.085 9.123 9.123 9.123h74.324c5.039 0 9.124-4.084 9.124-9.123z" fill="url(#SVGID_28_)"/><path d="m269.134 279.514-3.116-11.984h-22.037l-3.116 11.984c-3.292 12.66-13.328 23.623-27.595 30.143-3.73 1.705-2.183 6.168 2.137 6.168h79.184c4.32 0 5.867-4.464 2.137-6.168-14.266-6.52-24.302-17.483-27.594-30.143z" fill="url(#SVGID_29_)"/><path d="m296.729 309.657c-14.267-6.52-24.303-17.483-27.595-30.143l-3.116-11.984h-10.326l-3.116 11.984c-3.292 12.66-13.328 23.623-27.595 30.143-3.73 1.705-2.183 6.168 2.137 6.168h67.473c4.321 0 5.868-4.464 2.138-6.168z" fill="url(#SVGID_30_)"/><path d="m296.729 309.657c-14.267-6.52-24.304-17.483-27.595-30.143l-3.116-11.984h-22.037l-2.019 7.766 56.638 38.283c.59-1.371.088-3.027-1.871-3.922z" fill="url(#SVGID_31_)"/><path d="m389.819 279.47h-269.638c-4.952 0-8.967-4.014-8.967-8.967v-162.737c0-4.952 4.015-8.967 8.967-8.967h269.638c4.952 0 8.967 4.015 8.967 8.967v162.737c0 4.952-4.015 8.967-8.967 8.967z" fill="url(#SVGID_32_)"/><path d="m385.291 274.926h-260.582c-4.756 0-8.612-3.856-8.612-8.612v-154.359c0-4.756 3.856-8.612 8.612-8.612h260.581c4.756 0 8.612 3.856 8.612 8.612v154.359c.001 4.756-3.855 8.612-8.611 8.612z" fill="url(#SVGID_33_)"/><path d="m377.692 266.18h-245.384c-3.982 0-7.209-3.228-7.209-7.209v-139.673c0-3.982 3.228-7.209 7.209-7.209h245.384c3.982 0 7.209 3.228 7.209 7.209v139.672c0 3.982-3.228 7.21-7.209 7.21z" fill="url(#SVGID_34_)"/><path d="m148.429 112.089h-16.121c-3.982 0-7.209 3.228-7.209 7.209v139.672c0 3.982 3.228 7.209 7.209 7.209h16.121z" fill="url(#SVGID_35_)"/><path d="m377.692 112.089h-245.384c-3.982 0-7.209 3.228-7.209 7.209v13.057h259.803v-13.057c-.001-3.981-3.228-7.209-7.21-7.209z" fill="url(#SVGID_36_)"/><path d="m369.477 257.779h-228.954c-3.629 0-6.571-2.942-6.571-6.571v-124.147c0-3.629 2.942-6.571 6.571-6.571h228.954c3.629 0 6.571 2.942 6.571 6.571v124.146c0 3.63-2.942 6.572-6.571 6.572z" fill="url(#SVGID_37_)"/><path d="m301.653 316.611h-93.306c-2.893 0-5.239-2.346-5.239-5.239 0-2.893 2.346-5.239 5.239-5.239h93.306c2.893 0 5.239 2.346 5.239 5.239 0 2.894-2.346 5.239-5.239 5.239z" fill="url(#SVGID_38_)"/><path d="m393.407 358.32h-276.814c-2.97 0-5.378-2.408-5.378-5.378v-30.952c0-2.97 2.408-5.378 5.378-5.378h276.815c2.97 0 5.378 2.408 5.378 5.378v30.952c0 2.97-2.408 5.378-5.379 5.378z" fill="url(#SVGID_39_)"/><path d="m117.07 325.375v30.952c0 .706.144 1.375.391 1.993h275.947c2.97 0 5.378-2.408 5.378-5.378v-30.952c0-.706-.144-1.375-.391-1.993h-275.947c-2.971 0-5.378 2.408-5.378 5.378z" fill="url(#SVGID_40_)"/><path d="m259.904 346.924h-128.693c-3.112 0-5.634-2.522-5.634-5.634v-7.649c0-3.112 2.522-5.634 5.634-5.634h128.693c3.112 0 5.634 2.522 5.634 5.634v7.649c0 3.111-2.522 5.634-5.634 5.634z" fill="url(#SVGID_41_)"/><path d="m257.964 330.911h-124.813c-2.535 0-4.589 2.055-4.589 4.589v3.932c0 2.535 2.055 4.589 4.589 4.589h124.814c2.535 0 4.589-2.055 4.589-4.589v-3.932c0-2.535-2.055-4.589-4.59-4.589z" fill="url(#SVGID_42_)"/><path d="m337.636 337.466c0 5.933-4.81 10.743-10.743 10.743s-10.743-4.81-10.743-10.743 4.81-10.743 10.743-10.743c5.934 0 10.743 4.81 10.743 10.743z" fill="url(#SVGID_43_)"/><path d="m359.073 337.466c0 5.933-4.81 10.743-10.743 10.743s-10.743-4.81-10.743-10.743 4.81-10.743 10.743-10.743c5.934 0 10.743 4.81 10.743 10.743z" fill="url(#SVGID_44_)"/><path d="m380.51 337.466c0 5.933-4.81 10.743-10.743 10.743s-10.743-4.81-10.743-10.743 4.81-10.743 10.743-10.743 10.743 4.81 10.743 10.743z" fill="url(#SVGID_45_)"/><circle cx="348.331" cy="337.466" fill="url(#SVGID_46_)" r="9.506"/><path d="m355.953 339.668c-1.216 4.21-5.615 6.636-9.824 5.42-4.21-1.216-6.636-5.615-5.42-9.824 1.216-4.21 5.615-6.636 9.824-5.42s6.636 5.614 5.42 9.824z" fill="url(#SVGID_47_)"/><path d="m354.776 330.476c.261 1.407.207 2.895-.217 4.364-1.457 5.044-6.728 7.951-11.771 6.494-1.469-.424-2.756-1.172-3.807-2.143.635 3.426 3.136 6.375 6.711 7.408 5.044 1.457 10.314-1.45 11.771-6.494 1.033-3.576-.127-7.265-2.687-9.629z" fill="url(#SVGID_48_)"/><path d="m336.479 337.466c0 5.25-4.256 9.506-9.506 9.506s-9.506-4.256-9.506-9.506 4.256-9.506 9.506-9.506 9.506 4.255 9.506 9.506z" fill="url(#SVGID_49_)"/><circle cx="326.973" cy="337.466" fill="url(#SVGID_50_)" r="7.934"/><path d="m331.225 328.962c.641 1.28 1.003 2.724 1.003 4.252 0 5.25-4.256 9.506-9.506 9.506-1.529 0-2.973-.361-4.253-1.003 1.561 3.115 4.782 5.254 8.504 5.254 5.25 0 9.506-4.256 9.506-9.506 0-3.721-2.139-6.942-5.254-8.503z" fill="url(#SVGID_51_)"/><path d="m379.195 337.466c0 5.25-4.256 9.506-9.506 9.506s-9.506-4.256-9.506-9.506 4.256-9.506 9.506-9.506c5.249-.001 9.506 4.255 9.506 9.506z" fill="url(#SVGID_52_)"/><circle cx="369.688" cy="337.466" fill="url(#SVGID_53_)" r="7.934"/><path d="m373.941 328.962c.641 1.28 1.003 2.724 1.003 4.252 0 5.25-4.256 9.506-9.506 9.506-1.529 0-2.973-.361-4.252-1.003 1.561 3.115 4.782 5.254 8.504 5.254 5.25 0 9.506-4.256 9.506-9.506-.001-3.721-2.14-6.942-5.255-8.503z" fill="url(#SVGID_54_)"/><path d="m114.138 368.48h281.725v47.341h-281.725z" fill="url(#SVGID_55_)"/><path d="m386.79 376.784h-263.58c-1.541 0-2.79 1.249-2.79 2.79v25.151c0 1.541 1.249 2.79 2.79 2.79h263.58c1.541 0 2.79-1.249 2.79-2.79v-25.151c0-1.541-1.249-2.79-2.79-2.79z" fill="url(#SVGID_56_)"/><path d="m255 370.693v.002h-140.862v.785l47.026 40.764h93.836v-.003h140.862v-41.548z" fill="url(#SVGID_57_)"/><path d="m382.053 380.616h-254.106c-1.309 0-2.371 1.061-2.371 2.371v18.326c0 1.309 1.061 2.371 2.371 2.371h254.105c1.309 0 2.371-1.061 2.371-2.371v-18.326c0-1.31-1.061-2.371-2.37-2.371z" fill="url(#SVGID_58_)"/><path d="m382.053 380.616h-151.21l-75.781 23.067h226.99c1.309 0 2.37-1.061 2.37-2.371v-18.326c.001-1.309-1.06-2.37-2.369-2.37z" fill="url(#SVGID_59_)"/><path d="m384.423 401.313v-18.326c0-1.309-1.061-2.371-2.37-2.371h-51.264l-75.781 23.067h127.045c1.309.001 2.37-1.061 2.37-2.37z" fill="url(#SVGID_60_)"/><path d="m399.092 371.481h-288.184c-2.057 0-3.724-1.667-3.724-3.724v-5.714c0-2.057 1.667-3.724 3.724-3.724h288.185c2.057 0 3.724 1.667 3.724 3.724v5.714c-.001 2.057-1.668 3.724-3.725 3.724z" fill="url(#SVGID_61_)"/><path d="m113.493 360.775c-1.559 0-2.824 1.096-2.824 2.448v7.247c0 .347.06.681.17.997.114.008.228.015.344.015h287.633c2.209 0 4-1.552 4-3.467v-6.227c0-.347-.06-.681-.17-.997-.114-.008-.228-.015-.344-.015h-288.809z" fill="url(#SVGID_62_)"/><path d="m255 424.397h-128.986v19.852s13.684-13.279 49.397-13.279 42.807 16.599 79.589 16.599 43.876-16.599 79.589-16.599 49.397 13.279 49.397 13.279v-19.852z" fill="url(#SVGID_63_)"/><path d="m175.411 427.983c35.713 0 42.807 16.599 79.589 16.599s43.876-16.599 79.589-16.599 49.397 13.279 49.397 13.279v2.987s-13.684-13.279-49.397-13.279-42.807 16.599-79.589 16.599-43.876-16.599-79.589-16.599-49.397 13.279-49.397 13.279v-2.987s13.684-13.279 49.397-13.279z" fill="url(#SVGID_64_)"/><path d="m126.014 424.397h17.816v16.009h-17.816z" fill="url(#SVGID_65_)"/><path d="m126.014 425.403 17.816 15.443v-16.449h-17.816z" fill="url(#SVGID_66_)"/><path d="m366.17 424.397h17.816v16.009h-17.816z" fill="url(#SVGID_67_)"/><path d="m145.521 455.973h-21.197c-2.156 0-3.904-1.748-3.904-3.904v-10.464c0-2.156 1.748-3.904 3.904-3.904h21.197c2.156 0 3.904 1.748 3.904 3.904v10.464c-.001 2.156-1.748 3.904-3.904 3.904z" fill="url(#SVGID_68_)"/><path d="m151.803 457.79h-33.761c-2.156 0-3.904-1.748-3.904-3.904v-1.216c0-4.574 3.708-8.282 8.282-8.282h25.004c4.574 0 8.282 3.708 8.282 8.282v1.216c0 2.156-1.747 3.904-3.903 3.904z" fill="url(#SVGID_69_)"/><path d="m146.811 444.388h-9.241c.921 1.54 1.445 3.288 1.445 5.142v2.985c0 2.913-2.725 5.275-6.085 5.275h18.585c2.316 0 4.193-1.627 4.193-3.634v-2.056c-.002-4.26-3.984-7.712-8.897-7.712z" fill="url(#SVGID_70_)"/><path d="m155.706 454.156v-2.056c0-3.47-2.645-6.404-6.282-7.372v-3.391c0-2.007-1.877-3.635-4.193-3.635h-15.189c-2.316 0-4.193 1.627-4.193 3.635v3.391c-3.637.968-6.282 3.902-6.282 7.372v2.056c0 2.007 1.877 3.634 4.193 3.634h27.753c2.316 0 4.193-1.627 4.193-3.634z" fill="url(#SVGID_71_)"/><path d="m385.677 455.973h-21.197c-2.156 0-3.904-1.748-3.904-3.904v-10.464c0-2.156 1.748-3.904 3.904-3.904h21.197c2.156 0 3.904 1.748 3.904 3.904v10.464c-.001 2.156-1.748 3.904-3.904 3.904z" fill="url(#SVGID_72_)"/><path d="m391.959 457.79h-33.761c-2.156 0-3.904-1.748-3.904-3.904v-1.216c0-4.574 3.708-8.282 8.282-8.282h25.004c4.574 0 8.282 3.708 8.282 8.282v1.216c0 2.156-1.747 3.904-3.903 3.904z" fill="url(#SVGID_73_)"/><path d="m386.967 444.388h-9.241c.921 1.54 1.445 3.288 1.445 5.142v2.985c0 2.913-2.725 5.275-6.085 5.275h18.585c2.316 0 4.193-1.627 4.193-3.634v-2.056c-.002-4.26-3.984-7.712-8.897-7.712z" fill="url(#SVGID_74_)"/><path d="m395.862 454.156v-2.056c0-3.47-2.645-6.404-6.282-7.372v-3.391c0-2.007-1.877-3.635-4.193-3.635h-15.189c-2.316 0-4.193 1.627-4.193 3.635v3.391c-3.637.968-6.282 3.902-6.282 7.372v2.056c0 2.007 1.877 3.634 4.193 3.634h27.753c2.316 0 4.193-1.627 4.193-3.634z" fill="url(#SVGID_75_)"/><path d="m399.092 425.403h-288.184c-2.057 0-3.724-1.667-3.724-3.724v-5.714c0-2.057 1.667-3.724 3.724-3.724h288.185c2.057 0 3.724 1.667 3.724 3.724v5.714c-.001 2.057-1.668 3.724-3.725 3.724z" fill="url(#SVGID_76_)"/><path d="m113.493 414.697c-1.559 0-2.824 1.096-2.824 2.447v7.247c0 .347.06.681.17.997.114.008.228.015.344.015h287.633c2.209 0 4-1.552 4-3.467v-6.227c0-.347-.06-.681-.17-.997-.114-.008-.228-.015-.344-.015z" fill="url(#SVGID_77_)"/></svg>