<svg height="512" viewBox="0 0 512 512" width="512" xmlns="http://www.w3.org/2000/svg"><path d="m472 384h-432v-272a16 16 0 0 1 16-16h400a16 16 0 0 1 16 16z" fill="#ebebeb"/><path d="m440 384h-368v-248a8 8 0 0 1 8-8h352a8 8 0 0 1 8 8z" fill="#35e0d1"/><path d="m303.571 193a27.859 27.859 0 0 0 -20.979-12.737 39.8 39.8 0 0 0 -73.879 12.648 31.962 31.962 0 0 0 7.287 63.089h80a31.95 31.95 0 0 0 7.573-63z" fill="#ebebeb"/><path d="m303.571 193a27.859 27.859 0 0 0 -20.979-12.737 39.8 39.8 0 0 0 -73.879 12.648 31.941 31.941 0 0 0 -24.342 26.789 31.893 31.893 0 0 0 31.629 28.3h80a31.892 31.892 0 0 0 31.629-28.31 31.936 31.936 0 0 0 -24.058-26.69z" fill="#f8f8f8"/><g fill="#2bc9c4"><path d="m255.998 231.997-40 56h16v40h48v-40h16z"/><path d="m303.998 311.997h16v16h-16z"/><path d="m191.998 311.997h16v16h-16z"/><path d="m159.998 311.997h16v16h-16z"/><path d="m335.998 311.997h16v16h-16z"/></g><path d="m24 376h464a0 0 0 0 1 0 0v16a32 32 0 0 1 -32 32h-400a32 32 0 0 1 -32-32v-16a0 0 0 0 1 0 0z" fill="#e4e4e2"/><rect fill="#cbcbcb" height="24" rx="12" width="96" x="207.998" y="375.997"/></svg>