<svg height="512" viewBox="0 0 64 64" width="512" xmlns="http://www.w3.org/2000/svg"><path d="m60.84 59.86a1 1 0 0 1 -.99 1.14h-55.7a1 1 0 0 1 -.99-1.14l3.6-26.13a2 2 0 0 1 1.98-1.73h46.52a2 2 0 0 1 1.98 1.73z" fill="#c6c5ca"/><path d="m13 32h38v3h-38z" fill="#898890"/><path d="m39.46 59.37.54 1.63h-16l.54-1.63a2.009 2.009 0 0 1 1.9-1.37h11.12a2.009 2.009 0 0 1 1.9 1.37z" fill="#898890"/><rect fill="#e0e0e2" height="29" rx="2" width="50" x="7" y="3"/><path d="m10 6h44v23h-44z" fill="#bdfdff"/><path d="m43 47 1 8h-24l1-8z" fill="#898890"/><g fill="#acabb1"><path d="m9 38h2v2h-2z"/><path d="m13 38h2v2h-2z"/><path d="m17 38h2v2h-2z"/><path d="m21 38h2v2h-2z"/><path d="m25 38h2v2h-2z"/><path d="m29 38h2v2h-2z"/><path d="m33 38h2v2h-2z"/><path d="m37 38h2v2h-2z"/><path d="m41 38h2v2h-2z"/><path d="m45 38h2v2h-2z"/><path d="m49 38h2v2h-2z"/><path d="m53 38h2v2h-2z"/><path d="m9 42h2v2h-2z"/><path d="m13 42h2v2h-2z"/><path d="m17 42h2v2h-2z"/><path d="m21 42h2v2h-2z"/><path d="m25 42h2v2h-2z"/><path d="m29 42h2v2h-2z"/><path d="m33 42h2v2h-2z"/><path d="m37 42h2v2h-2z"/><path d="m41 42h2v2h-2z"/><path d="m45 42h2v2h-2z"/><path d="m49 42h2v2h-2z"/><path d="m53 42h2v2h-2z"/></g><path d="m13 9h2v2h-2z" fill="#1a6fb0"/><path d="m17 9h4v2h-4z" fill="#1a6fb0"/></svg>