<svg id="Layer_1" height="512" viewBox="0 0 128 128" width="512" xmlns="http://www.w3.org/2000/svg" data-name="Layer 1"><path d="m5.895 19.91h116.21v78.583h-116.21z" fill="#18bdb1"/><path d="m92.597 19.91h-13.857l-34.474 78.583h13.858z" fill="#2de0c7"/><path d="m111.069 19.91h-3.653l-34.474 78.583h3.653z" fill="#2de0c7"/><path d="m31.323 98.493h7.306l34.473-78.583h-7.306z" fill="#2de0c7"/><path d="m5.895 88.657h116.21v9.836h-116.21z" fill="#383c7c"/><path d="m5.895 19.91h116.21v6.127h-116.21z" fill="#383c7c"/><g fill="#29295b"><path d="m114.5 108.09a3.251 3.251 0 0 0 3.164-4l-1.322-5.6h-8.016l3.174 7.6a3.251 3.251 0 0 0 3 2z"/><path d="m13.5 108.09a3.251 3.251 0 0 1 -3.164-4l1.322-5.6h8.016l-3.174 7.6a3.251 3.251 0 0 1 -3 2z"/><path d="m70.708 91.7h-13.416a1.875 1.875 0 0 0 0 3.75h13.416a1.875 1.875 0 1 0 0-3.75z"/><path d="m17.451 91.7h-2.118a1.875 1.875 0 0 0 0 3.75h2.118a1.875 1.875 0 1 0 0-3.75z"/></g><path d="m54.2 64.8h-22.144a5.069 5.069 0 0 1 -5.069-5.069v-13.344a3.565 3.565 0 0 1 3.565-3.565h25.154a3.565 3.565 0 0 1 3.565 3.565v13.344a5.069 5.069 0 0 1 -5.071 5.069z" fill="#fd831f"/><path d="m43.129 67.157a13.325 13.325 0 0 1 -13.329-13.324v-7.778c0-7.359 26.649-7.359 26.649 0v7.778a13.325 13.325 0 0 1 -13.32 13.324z" fill="#fef5e3"/><path d="m62.7 88.657h-39.141v-7.025a14.475 14.475 0 0 1 14.474-14.475h10.192a14.475 14.475 0 0 1 14.475 14.475z" fill="#383c7c"/><path d="m43.129 62.439a7.04 7.04 0 0 1 -6.021-2.957 1.75 1.75 0 0 1 2.961-1.865 3.631 3.631 0 0 0 3.061 1.322 3.631 3.631 0 0 0 3.062-1.323 1.75 1.75 0 0 1 2.961 1.867 7.047 7.047 0 0 1 -6.024 2.956z" fill="#29295b"/><path d="m26.987 49.295h14.3a8.451 8.451 0 0 0 8.451-8.451v-2.992a5.46 5.46 0 0 0 -5.46-5.46h-6.307a10.984 10.984 0 0 0 -10.984 10.984z" fill="#fda736"/><path d="m59.219 48.53h-4.133a5.4 5.4 0 0 1 -5.4-5.4v-5.4h4.214a5.315 5.315 0 0 1 5.315 5.315z" fill="#fd831f"/><path d="m48.951 54.4h-.627a1.75 1.75 0 0 1 0-3.5h.627a1.75 1.75 0 1 1 0 3.5z" fill="#29295b"/><path d="m37.935 54.4h-.628a1.75 1.75 0 0 1 0-3.5h.628a1.75 1.75 0 0 1 0 3.5z" fill="#29295b"/><path d="m28.359 54.685h1.441v-5.39h-1.441a2.7 2.7 0 0 0 -2.7 2.7 2.7 2.7 0 0 0 2.7 2.69z" fill="#f7d9b5"/><path d="m57.9 54.685h-1.446v-5.39h1.446a2.7 2.7 0 0 1 2.7 2.7 2.7 2.7 0 0 1 -2.7 2.69z" fill="#f7d9b5"/><path d="m38.033 67.157a14.577 14.577 0 0 0 -1.668.1l6.764 9.489 6.764-9.489a14.577 14.577 0 0 0 -1.668-.1z" fill="#fef5e3"/><path d="m28.225 74.783h29.809v13.874h-29.809z" fill="#2de0c7"/><path d="m25.708 80.943h.492a3.793 3.793 0 0 1 3.793 3.793 3.793 3.793 0 0 1 -3.793 3.794h-.494a3.3 3.3 0 0 1 -3.3-3.3v-.988a3.3 3.3 0 0 1 3.3-3.3z" fill="#f7d9b5"/><path d="m59.563 80.943h.494a3.793 3.793 0 0 1 3.793 3.793 3.793 3.793 0 0 1 -3.793 3.793h-.494a3.3 3.3 0 0 1 -3.3-3.3v-.988a3.3 3.3 0 0 1 3.3-3.298z" fill="#f7d9b5" transform="matrix(-1 0 0 -1 120.113 169.473)"/><path d="m68.719 36.476h45.97v18.719h-45.97z" fill="#fef5e3"/><path d="m80.821 48.295v2.178h-7.132v-9.78h2.42v7.6z" fill="#ff5c3c"/><path d="m83.565 40.692h2.435v9.78h-2.435z" fill="#ff5c3c"/><path d="m98.939 40.692-3.873 9.78h-2.733l-3.872-9.78h2.733l2.506 6.335 2.506-6.335z" fill="#ff5c3c"/><path d="m103.8 42.87v1.523h4.783v2.179h-4.783v1.723h5.268v2.178h-7.7v-9.78h7.7v2.177z" fill="#ff5c3c"/></svg>