<svg height="512" viewBox="0 0 64 64" width="512" xmlns="http://www.w3.org/2000/svg"><g id="online-smartphone-shopping-6" data-name="online-smartphone-shopping"><path d="m39 51v8a2.006 2.006 0 0 1 -2 2h-32a2.006 2.006 0 0 1 -2-2v-8z" fill="#2488ff"/><path d="m3 9h36v42h-36z" fill="#bddbff"/><path d="m39 9h-36v36a36 36 0 0 1 36-36z" fill="#d7e9ff"/><circle cx="21" cy="56" fill="#ffda44" r="2"/><path d="m39 5v4h-36v-4a2.006 2.006 0 0 1 2-2h32a2.006 2.006 0 0 1 2 2z" fill="#2488ff"/><path d="m9 3h-4a2.006 2.006 0 0 0 -2 2v4a6.018 6.018 0 0 1 6-6z" fill="#50a0ff"/><path d="m19 5h4v2h-4z" fill="#fff"/><rect fill="#50a0ff" height="6" rx="1.5" width="3" x="4" y="52"/><path d="m31 26h30v16h-30z" fill="#b6eb92"/><g fill="#7ed63e"><path d="m61 37v5h-5a5 5 0 0 1 5-5z"/><path d="m61 26v5a5 5 0 0 1 -5-5z"/><path d="m31 26h5a5 5 0 0 1 -5 5z"/><path d="m36 42h-5v-5a5 5 0 0 1 5 5z"/></g><path d="m53 22v4h-22v8h-2a2.006 2.006 0 0 1 -2-2v-10z" fill="#aafff5"/><path d="m53 20v2h-26v-2a2.006 2.006 0 0 1 2-2h22a2.006 2.006 0 0 1 2 2z" fill="#00eed1"/><circle cx="46" cy="34" fill="#ffda44" r="5"/><path d="m11 37h10 4l-1 10h-16l-1-10z" fill="#00d7df"/><path d="m10 40h2v4h-2z" fill="#009986"/><path d="m13 40h2v4h-2z" fill="#009986"/><path d="m17 40h2v4h-2z" fill="#009986"/><path d="m20 40h2v4h-2z" fill="#009986"/><path d="m12 39h-2v-5h-2v-2h3a1 1 0 0 1 1 1z" fill="#806749"/><path d="m22 39h-2v-6a1 1 0 0 1 1-1h3v2h-2z" fill="#806749"/><path d="m23 13v4h-3v2h-8v-2h-3v-4h5a2 2 0 0 0 4 0z" fill="#d80027"/><path d="m12 19h8v5h-8z" fill="#ffda44"/><path d="m19 5h4v2h-4z" fill="#fff"/><path d="m17 29v-2h-2v2h-2l3 4 3-4z" fill="#ff3051"/><path d="m29 34h2v1h-2z" fill="#898890"/><path d="m32 42h7v1h-7z" fill="#898890"/></g></svg>