<svg height="512" viewBox="0 0 64 64" width="512" xmlns="http://www.w3.org/2000/svg"><path d="m41 51v8a2.006 2.006 0 0 1 -2 2h-32a2.006 2.006 0 0 1 -2-2v-8z" fill="#2488ff"/><path d="m5 9h36v42h-36z" fill="#bddbff"/><path d="m41 9h-36v36a36 36 0 0 1 36-36z" fill="#d7e9ff"/><circle cx="23" cy="56" fill="#ffda44" r="2"/><path d="m41 5v4h-36v-4a2.006 2.006 0 0 1 2-2h32a2.006 2.006 0 0 1 2 2z" fill="#2488ff"/><path d="m11 3h-4a2.006 2.006 0 0 0 -2 2v4a6.018 6.018 0 0 1 6-6z" fill="#50a0ff"/><path d="m21 5h4v2h-4z" fill="#fff"/><rect fill="#50a0ff" height="6" rx="1.5" width="3" x="6" y="52"/><rect fill="#aafff5" height="27" rx="4" width="44" x="15" y="18"/><path d="m51 35a3 3 0 1 1 -2 5.22 3 3 0 1 1 0-4.44 2.974 2.974 0 0 1 2-.78z" fill="#ffda44"/><path d="m15 24h44v5h-44z" fill="#00b6bd"/><g fill="#1a6fb0"><path d="m19 34h4v2h-4z"/><path d="m19 39h10v2h-10z"/></g></svg>