<svg height="464pt" viewBox="-40 0 464 464.00024" width="464pt" xmlns="http://www.w3.org/2000/svg"><path d="m48 0h288c26.511719 0 48 21.492188 48 48v368h-384v-368c0-26.507812 21.492188-48 48-48zm0 0" fill="#4398d1"/><path d="m336 0h-80c26.511719 0 48 21.492188 48 48v368h80v-368c0-26.507812-21.488281-48-48-48zm0 0" fill="#408fc9"/><path d="m48 368h288c26.511719 0 48 21.492188 48 48s-21.488281 48-48 48h-288c-26.507812 0-48-21.492188-48-48s21.492188-48 48-48zm0 0" fill="#b8bbbd"/><path d="m336 440h-288c-21.859375-.035156-40.933594-14.835938-46.398438-36-3.785156 14.367188-.675781 29.679688 8.414063 41.433594s23.125 18.613281 37.984375 18.566406h288c14.859375.046875 28.894531-6.8125 37.984375-18.566406s12.199219-27.066406 8.414063-41.433594c-5.464844 21.164062-24.539063 35.964844-46.398438 36zm0 0" fill="#4398d1"/><path d="m288 392h64v32h-64zm0 0" fill="#e34b87"/><path d="m288 408h64v16h-64zm0 0" fill="#bf3d75"/><path d="m200 424h48l8-16v-16h-64v16zm0 0" fill="#e34b87"/><path d="m256 408h-64l8 16h48zm0 0" fill="#bf3d75"/><path d="m64 408c0 8.835938-7.164062 16-16 16s-16-7.164062-16-16 7.164062-16 16-16 16 7.164062 16 16zm0 0" fill="#e34b87"/><path d="m48 416c-7.273438-.027344-13.613281-4.957031-15.433594-12-.359375 1.304688-.550781 2.648438-.566406 4 0 8.835938 7.164062 16 16 16s16-7.164062 16-16c-.015625-1.351562-.207031-2.695312-.566406-4-1.820313 7.042969-8.160156 11.972656-15.433594 12zm0 0" fill="#bf3d75"/><g fill="#e34b87"><path d="m152 400h16v16h-16zm0 0"/><path d="m120 400h16v16h-16zm0 0"/><path d="m88 400h16v16h-16zm0 0"/></g></svg>