<svg height="512pt" viewBox="-16 0 512 512" width="512pt" xmlns="http://www.w3.org/2000/svg"><path d="m442.976562 194.996094c-4.207031 0-7.613281-3.40625-7.613281-7.609375v-144.484375c0-15.261719-12.417969-27.679688-27.679687-27.679688h-213.804688c-15.265625 0-27.679687 12.417969-27.679687 27.679688v62.308594c0 4.203124-3.410157 7.609374-7.613281 7.609374-4.203126 0-7.609376-3.40625-7.609376-7.609374v-62.308594c0-23.65625 19.246094-42.902344 42.902344-42.902344h213.804688c23.65625 0 42.902344 19.246094 42.902344 42.902344v144.484375c0 4.203125-3.40625 7.609375-7.609376 7.609375zm0 0" fill="#464646"/><path d="m287.230469 512h-257.285157c-16.539062 0-29.945312-13.40625-29.945312-29.945312v-333.738282c0-16.539062 13.40625-29.945312 29.945312-29.945312h257.285157c16.535156 0 29.945312 13.40625 29.945312 29.945312v333.742188c-.003906 16.535156-13.410156 29.941406-29.945312 29.941406zm0 0" fill="#4172cc"/><path d="m288.148438 118.371094h-43.207032c16.03125 0 29.027344 12.992187 29.027344 29.023437v335.582031c0 16.03125-12.996094 29.023438-29.027344 29.023438h43.207032c16.03125 0 29.023437-12.996094 29.023437-29.023438v-335.582031c0-16.03125-12.992187-29.023437-29.023437-29.023437zm0 0" fill="#3567c3"/><path d="m193.601562 253.152344h-33.230468c-1.328125 0-2.554688.71875-3.207032 1.878906l-37.726562 67.371094c-1.371094 2.449218.402344 5.46875 3.207031 5.46875h28.5c2.820313 0 4.589844 3.046875 3.191407 5.496094l-36.027344 63.152343c-2.164063 3.792969 2.917968 7.519531 5.886718 4.316407l84.777344-91.449219c2.179688-2.351563.511719-6.171875-2.695312-6.171875h-27.28125c-2.777344 0-4.550782-2.964844-3.238282-5.414063l21.082032-39.234375c1.316406-2.449218-.457032-5.414062-3.238282-5.414062zm0 0" fill="#fff692"/><path d="m108.539062 177.238281c0 8.589844-6.960937 15.550781-15.550781 15.550781-8.585937 0-15.550781-6.960937-15.550781-15.550781 0-8.589843 6.964844-15.550781 15.550781-15.550781 8.589844 0 15.550781 6.960938 15.550781 15.550781zm0 0" fill="#e04955"/><path d="m174.136719 177.238281c0 8.589844-6.960938 15.550781-15.550781 15.550781-8.585938 0-15.550782-6.960937-15.550782-15.550781 0-8.589843 6.964844-15.550781 15.550782-15.550781 8.589843 0 15.550781 6.960938 15.550781 15.550781zm0 0" fill="#e04955"/><path d="m239.734375 177.238281c0 8.589844-6.960937 15.550781-15.550781 15.550781-8.585938 0-15.550782-6.960937-15.550782-15.550781 0-8.589843 6.964844-15.550781 15.550782-15.550781 8.589844 0 15.550781 6.960938 15.550781 15.550781zm0 0" fill="#e04955"/><path d="m227.214844 118.371094h-137.253906v-13.863282c0-5.21875 4.226562-9.445312 9.445312-9.445312h118.359375c5.21875 0 9.449219 4.226562 9.449219 9.445312zm0 0" fill="#464646"/><path d="m473.648438 242.945312h-61.347657c-3.109375 0-5.625-2.519531-5.625-5.628906v-54.453125c0-3.105469 2.515625-5.625 5.625-5.625h61.347657c3.109374 0 5.628906 2.519531 5.628906 5.625v54.453125c0 3.109375-2.519532 5.628906-5.628906 5.628906zm0 0" fill="#464646"/><path d="m458.074219 177.238281v65.707031h15.574219c3.109374 0 5.628906-2.519531 5.628906-5.628906v-54.453125c0-3.105469-2.519532-5.625-5.628906-5.625zm0 0" fill="#333"/><path d="m464.175781 242.945312h-42.402343v28.488282c0 3.105468 2.519531 5.625 5.625 5.625h31.152343c3.109375 0 5.628907-2.519532 5.628907-5.625v-28.488282zm0 0" fill="#b4aaaa"/><g fill="#464646"><path d="m28.472656 163.578125c4.203125 0 7.613282-3.40625 7.613282-7.609375v-9.132812c0-4.203126-3.410157-7.609376-7.613282-7.609376s-7.609375 3.40625-7.609375 7.609376v9.132812c-.003906 4.203125 3.40625 7.609375 7.609375 7.609375zm0 0"/><path d="m288.699219 163.578125c4.203125 0 7.613281-3.40625 7.613281-7.609375v-9.132812c0-4.203126-3.410156-7.609376-7.613281-7.609376s-7.609375 3.40625-7.609375 7.609376v9.132812c0 4.203125 3.40625 7.609375 7.609375 7.609375zm0 0"/><path d="m20.859375 483.535156c0 4.203125 3.410156 7.609375 7.613281 7.609375s7.609375-3.40625 7.609375-7.609375v-9.132812c0-4.203125-3.40625-7.613282-7.609375-7.613282s-7.613281 3.410157-7.613281 7.613282zm0 0"/><path d="m281.089844 483.535156c0 4.203125 3.40625 7.609375 7.609375 7.609375 4.207031 0 7.613281-3.40625 7.613281-7.609375v-9.132812c0-4.203125-3.410156-7.613282-7.613281-7.613282s-7.609375 3.410157-7.609375 7.613282zm0 0"/></g><path d="m110.839844 462.382812c-4.203125 0-7.609375 3.40625-7.609375 7.609376 0 4.207031 3.40625 7.613281 7.609375 7.613281h95.492187c4.203125 0 7.613281-3.40625 7.613281-7.613281 0-4.203126-3.410156-7.609376-7.613281-7.609376zm0 0" fill="#fff692"/><path d="m451.492188 206.871094c4.203124 0 7.613281-3.40625 7.613281-7.609375s-3.410157-7.613281-7.613281-7.613281h-17.035157c-4.203125 0-7.609375 3.410156-7.609375 7.613281s3.40625 7.609375 7.609375 7.609375zm0 0" fill="#4172cc"/></svg>