<?xml version="1.0"?>
<svg xmlns="http://www.w3.org/2000/svg" viewBox="0 0 64 64" width="512" height="512"><g id="Power_Bank" data-name="Power Bank"><path d="M33,3H9A6,6,0,0,0,3,9V47H39V9A6,6,0,0,0,33,3Z" style="fill:#898890"/><rect x="3" y="41" width="36" height="12" rx="6" style="fill:#acabb1"/><rect x="47" y="12" width="4" height="6" style="fill:#d8d7da"/><path d="M52,18v8a2.006,2.006,0,0,1-2,2H48a2.006,2.006,0,0,1-2-2V18h6Z" style="fill:#e6e7e8"/><path d="M34,52.91V55a2.006,2.006,0,0,1-2,2H30a2.006,2.006,0,0,1-2-2V45h6Z" style="fill:#e6e7e8"/><rect x="16" y="45" width="8" height="4" style="fill:#e6e7e8"/><circle cx="10" cy="47" r="2" style="fill:#e6e7e8"/><polygon points="25 23 18 33 19 23 15 23 23 13 22 23 25 23" style="fill:#ff6243"/><path d="M53,62H33a3,3,0,0,1-3-3V57h2v2a1,1,0,0,0,1,1H53a5.006,5.006,0,0,0,5-5V45a3,3,0,0,0-3-3H53a5.006,5.006,0,0,1-5-5V28h2v9a3,3,0,0,0,3,3h2a5.006,5.006,0,0,1,5,5V55A7.008,7.008,0,0,1,53,62Z" style="fill:#acabb1"/><rect x="30" y="57" width="2" height="2" style="fill:#898890"/><rect x="48" y="28" width="2" height="2" style="fill:#898890"/></g></svg>
