<svg height="472pt" viewBox="-3 0 471 472" width="472pt" xmlns="http://www.w3.org/2000/svg"><path d="m16.5 0h192c8.835938 0 16 7.164062 16 16v312c0 8.835938-7.164062 16-16 16h-192c-8.835938 0-16-7.164062-16-16v-312c0-8.835938 7.164062-16 16-16zm0 0" fill="#e0e0e2"/><path d="m24.5 24h176v240h-176zm0 0" fill="#bdfdff"/><path d="m200.5 24h-176v176c0-97.203125 78.796875-176 176-176zm0 0" fill="#fff"/><path d="m320.5 136h128c8.835938 0 16 7.164062 16 16v176c0 8.835938-7.164062 16-16 16h-128c-8.835938 0-16-7.164062-16-16v-176c0-8.835938 7.164062-16 16-16zm0 0" fill="#e0e0e2"/><path d="m432.5 232c0 26.507812-21.492188 48-48 48s-48-21.492188-48-48 21.492188-48 48-48 48 21.492188 48 48zm0 0" fill="#3d9ae2"/><path d="m352.5 344h64v32h-64zm0 0" fill="#898890"/><path d="m80.5 184h64v32h-64zm0 0" fill="#ff7956"/><path d="m80.5 152h64v32h-64zm0 0" fill="#ff9478"/><path d="m80.5 88h64v64h-64zm0 0" fill="#ffbcab"/><path d="m96.5 64h32v24h-32zm0 0" fill="#e0e0e2"/><path d="m128.5 304c0 8.835938-7.164062 16-16 16s-16-7.164062-16-16 7.164062-16 16-16 16 7.164062 16 16zm0 0" fill="#ffda44"/><path d="m88.5 344h48v40h-48zm0 0" fill="#898890"/><path d="m88.5 344h48v16h-48zm0 0" fill="#787680"/><path d="m352.5 344h64v16h-64zm0 0" fill="#787680"/><path d="m352.5 472h-208c-22.082031-.027344-39.972656-17.917969-40-40v-48h16v48c0 13.253906 10.746094 24 24 24h208c13.253906 0 24-10.746094 24-24v-56h16v56c-.027344 22.082031-17.917969 39.972656-40 40zm0 0" fill="#004fac"/><path d="m104.5 344h16v16h-16zm0 0" fill="#57565c"/><path d="m96.5 96c4.417969 0 8 3.582031 8 8v24c0 4.417969-3.582031 8-8 8s-8-3.582031-8-8v-24c0-4.417969 3.582031-8 8-8zm0 0" fill="#ffe1da"/><path d="m332.5 152c6.628906 0 12 5.371094 12 12v16c0 6.628906-5.371094 12-12 12s-12-5.371094-12-12v-16c0-6.628906 5.371094-12 12-12zm0 0" fill="#fff"/></svg>