<svg height="355.743pt" viewBox="1 1 355.743 355.743" width="355.743pt" xmlns="http://www.w3.org/2000/svg"><path d="m12.277344 0h61.378906c6.777344 0 12.273438 5.496094 12.273438 12.277344v263.929687c0 6.78125-5.496094 12.277344-12.273438 12.277344h-61.378906c-6.78125 0-12.277344-5.496094-12.277344-12.277344v-263.929687c0-6.78125 5.496094-12.277344 12.277344-12.277344zm0 0" fill="#0bcefb"/><path d="m12.277344 331.449219h61.378906c6.777344 0 12.273438 5.496093 12.273438 12.273437 0 6.78125-5.496094 12.277344-12.273438 12.277344h-61.378906c-6.78125 0-12.277344-5.496094-12.277344-12.277344 0-6.777344 5.496094-12.273437 12.277344-12.273437zm0 0" fill="#93999a"/><path d="m30.691406 288.484375h24.550782v42.964844h-24.550782zm0 0" fill="#d0d8da"/><g fill="#93999a"><path d="m30.691406 288.484375h24.550782v6.136719h-24.550782zm0 0"/><path d="m61.378906 245.515625c0 10.171875-8.242187 18.414063-18.414062 18.414063-10.167969 0-18.414063-8.242188-18.414063-18.414063 0-10.167969 8.246094-18.414063 18.414063-18.414063 10.171875 0 18.414062 8.246094 18.414062 18.414063zm0 0"/><path d="m61.378906 178c0 10.171875-8.242187 18.414062-18.414062 18.414062-10.167969 0-18.414063-8.242187-18.414063-18.414062 0-10.167969 8.246094-18.414062 18.414063-18.414062 10.171875 0 18.414062 8.246093 18.414062 18.414062zm0 0"/><path d="m55.242188 110.484375c0 6.777344-5.496094 12.273437-12.277344 12.273437-6.777344 0-12.273438-5.496093-12.273438-12.273437 0-6.78125 5.496094-12.277344 12.273438-12.277344 6.78125 0 12.277344 5.496094 12.277344 12.277344zm0 0"/><path d="m55.242188 49.101562c0 6.78125-5.496094 12.277344-12.277344 12.277344-6.777344 0-12.273438-5.496094-12.273438-12.277344 0-6.777343 5.496094-12.273437 12.273438-12.273437 6.78125 0 12.277344 5.496094 12.277344 12.273437zm0 0"/></g><path d="m42.964844 227.105469c-10.167969 0-18.414063 8.242187-18.414063 18.414062.019531 1.027344.121094 2.054688.308594 3.066407 1.652344-10 11.097656-16.765626 21.097656-15.113282 7.757813 1.28125 13.835938 7.359375 15.117188 15.113282.183593-1.011719.289062-2.039063.304687-3.066407 0-10.171875-8.242187-18.414062-18.414062-18.414062zm0 0" fill="#656b76"/><path d="m42.964844 165.726562c8.96875.023438 16.613281 6.5 18.109375 15.34375.183593-1.011718.289062-2.039062.304687-3.070312 0-10.167969-8.242187-18.414062-18.414062-18.414062-10.167969 0-18.414063 8.246093-18.414063 18.414062.019531 1.03125.121094 2.058594.308594 3.070312 1.492187-8.84375 9.140625-15.320312 18.105469-15.34375zm0 0" fill="#656b76"/><path d="m42.964844 104.34375c5.582031.023438 10.445312 3.804688 11.839844 9.207031.277343-1 .425781-2.03125.4375-3.066406 0-6.78125-5.496094-12.277344-12.277344-12.277344-6.777344 0-12.273438 5.496094-12.273438 12.277344.011719 1.035156.15625 2.066406.433594 3.066406 1.394531-5.402343 6.261719-9.183593 11.839844-9.207031zm0 0" fill="#656b76"/><path d="m42.964844 42.964844c5.582031.023437 10.445312 3.804687 11.839844 9.207031.277343-1 .425781-2.03125.4375-3.070313 0-6.777343-5.496094-12.273437-12.277344-12.273437-6.777344 0-12.273438 5.496094-12.273438 12.273437.011719 1.039063.15625 2.070313.433594 3.070313 1.394531-5.402344 6.261719-9.1875 11.839844-9.207031zm0 0" fill="#656b76"/><path d="m214.828125 178c-3.390625 0-6.136719-2.746094-6.136719-6.136719v-24.550781c0-3.390625 2.746094-6.136719 6.136719-6.136719s6.136719 2.746094 6.136719 6.136719v24.550781c0 3.390625-2.746094 6.136719-6.136719 6.136719zm0 0" fill="#d0d8da"/><path d="m141.171875 178c-3.386719 0-6.136719-2.746094-6.136719-6.136719v-24.550781c0-3.390625 2.75-6.136719 6.136719-6.136719 3.390625 0 6.136719 2.746094 6.136719 6.136719v24.550781c0 3.390625-2.746094 6.136719-6.136719 6.136719zm0 0" fill="#d0d8da"/><path d="m122.757812 171.863281h110.484376c6.777343 0 12.273437 5.496094 12.273437 12.273438v159.585937c0 6.78125-5.496094 12.277344-12.273437 12.277344h-110.484376c-6.777343 0-12.273437-5.496094-12.273437-12.277344v-159.585937c0-6.777344 5.496094-12.273438 12.273437-12.273438zm0 0" fill="#0bcefb"/><path d="m128.898438 196.414062v6.136719c0 3.390625 2.746093 6.140625 6.136718 6.140625s6.136719-2.75 6.136719-6.140625v-6.136719zm0 0" fill="#089abb"/><path d="m214.828125 196.414062v6.136719c0 3.390625 2.746094 6.140625 6.136719 6.140625s6.140625-2.75 6.140625-6.140625v-6.136719zm0 0" fill="#089abb"/><path d="m214.828125 294.621094c0 20.339844-16.488281 36.828125-36.828125 36.828125s-36.828125-16.488281-36.828125-36.828125 16.488281-36.828125 36.828125-36.828125 36.828125 16.488281 36.828125 36.828125zm0 0" fill="#93999a"/><path d="m190.277344 220.964844c0 6.78125-5.496094 12.277344-12.277344 12.277344-6.777344 0-12.273438-5.496094-12.273438-12.277344 0-6.777344 5.496094-12.273438 12.273438-12.273438 6.78125 0 12.277344 5.496094 12.277344 12.273438zm0 0" fill="#93999a"/><path d="m178 263.929688c19.140625.015624 35.078125 14.6875 36.675781 33.761718.078125-1.015625.152344-2.03125.152344-3.070312 0-20.339844-16.488281-36.828125-36.828125-36.828125s-36.828125 16.488281-36.828125 36.828125c0 1.039062.074219 2.054687.152344 3.070312 1.597656-19.074218 17.535156-33.746094 36.675781-33.761718zm0 0" fill="#656b76"/><path d="m178 214.828125c5.582031.019531 10.445312 3.804687 11.839844 9.207031.277344-1 .425781-2.03125.4375-3.070312 0-6.777344-5.496094-12.273438-12.277344-12.273438s-12.273438 5.496094-12.273438 12.273438c.011719 1.039062.15625 2.070312.433594 3.070312 1.394532-5.40625 6.257813-9.1875 11.839844-9.207031zm0 0" fill="#656b76"/><path d="m190.277344 294.621094c0 6.78125-5.496094 12.277344-12.277344 12.277344-6.777344 0-12.273438-5.496094-12.273438-12.277344s5.496094-12.277344 12.273438-12.277344c6.78125 0 12.277344 5.496094 12.277344 12.277344zm0 0" fill="#656b76"/><path d="m135.035156 147.308594h12.273438v6.140625h-12.273438zm0 0" fill="#656b76"/><path d="m208.691406 147.308594h12.273438v6.140625h-12.273438zm0 0" fill="#656b76"/><path d="m116.621094 98.207031h122.757812c3.390625 0 6.136719 2.746094 6.136719 6.136719v36.828125c0 3.390625-2.746094 6.136719-6.136719 6.136719h-122.757812c-3.390625 0-6.136719-2.746094-6.136719-6.136719v-36.828125c0-3.390625 2.746094-6.136719 6.136719-6.136719zm0 0" fill="#93999a"/><path d="m220.964844 122.757812c0 3.390626-2.746094 6.140626-6.136719 6.140626s-6.136719-2.75-6.136719-6.140626c0-3.390624 2.746094-6.136718 6.136719-6.136718s6.136719 2.746094 6.136719 6.136718zm0 0" fill="#0bcefb"/><path d="m196.414062 122.757812c0 3.390626-2.746093 6.140626-6.136718 6.140626s-6.140625-2.75-6.140625-6.140626c0-3.390624 2.75-6.136718 6.140625-6.136718s6.136718 2.746094 6.136718 6.136718zm0 0" fill="#0bcefb"/><path d="m165.726562 128.898438h-30.691406c-3.390625 0-6.140625-2.75-6.140625-6.140626 0-3.386718 2.75-6.136718 6.140625-6.136718h30.691406c3.386719 0 6.136719 2.75 6.136719 6.136718 0 3.390626-2.75 6.140626-6.136719 6.140626zm0 0" fill="#0bcefb"/><path d="m214.828125 116.621094c-3.390625 0-6.136719 2.75-6.136719 6.140625 0 1.625.648438 3.1875 1.796875 4.335937l8.679688-8.679687c-1.152344-1.148438-2.710938-1.796875-4.339844-1.796875zm0 0" fill="#acddea"/><path d="m184.136719 122.757812c0 1.628907.648437 3.1875 1.800781 4.339844l8.679688-8.679687c-2.398438-2.394531-6.285157-2.394531-8.683594 0-1.148438 1.152343-1.796875 2.714843-1.796875 4.339843zm0 0" fill="#acddea"/><path d="m135.035156 116.621094c-3.390625 0-6.140625 2.75-6.140625 6.136718 0 3.390626 2.75 6.140626 6.140625 6.140626h6.136719l12.277344-12.277344zm0 0" fill="#acddea"/><path d="m227.105469 196.414062c0 3.390626-2.75 6.136719-6.140625 6.136719s-6.136719-2.746093-6.136719-6.136719c0-3.390624 2.746094-6.140624 6.136719-6.140624s6.140625 2.75 6.140625 6.140624zm0 0" fill="#93999a"/><path d="m141.171875 196.414062c0 3.390626-2.746094 6.136719-6.136719 6.136719s-6.140625-2.746093-6.140625-6.136719c0-3.390624 2.75-6.140624 6.140625-6.140624s6.136719 2.75 6.136719 6.140624zm0 0" fill="#93999a"/><path d="m282.34375 0h61.378906c6.78125 0 12.277344 5.496094 12.277344 12.277344v263.929687c0 6.78125-5.496094 12.277344-12.277344 12.277344h-61.378906c-6.777344 0-12.273438-5.496094-12.273438-12.277344v-263.929687c0-6.78125 5.496094-12.277344 12.273438-12.277344zm0 0" fill="#0bcefb"/><path d="m282.34375 331.449219h61.378906c6.78125 0 12.277344 5.496093 12.277344 12.273437 0 6.78125-5.496094 12.277344-12.277344 12.277344h-61.378906c-6.777344 0-12.273438-5.496094-12.273438-12.277344 0-6.777344 5.496094-12.273437 12.273438-12.273437zm0 0" fill="#93999a"/><path d="m300.757812 288.484375h24.554688v42.964844h-24.554688zm0 0" fill="#d0d8da"/><path d="m300.757812 288.484375h24.554688v6.136719h-24.554688zm0 0" fill="#93999a"/><path d="m331.449219 245.515625c0 10.171875-8.246094 18.414063-18.414063 18.414063-10.171875 0-18.414062-8.242188-18.414062-18.414063 0-10.167969 8.242187-18.414063 18.414062-18.414063 10.167969 0 18.414063 8.246094 18.414063 18.414063zm0 0" fill="#93999a"/><path d="m331.449219 178c0 10.171875-8.246094 18.414062-18.414063 18.414062-10.171875 0-18.414062-8.242187-18.414062-18.414062 0-10.167969 8.242187-18.414062 18.414062-18.414062 10.167969 0 18.414063 8.246093 18.414063 18.414062zm0 0" fill="#93999a"/><path d="m325.3125 110.484375c0 6.777344-5.496094 12.273437-12.277344 12.273437s-12.277344-5.496093-12.277344-12.273437c0-6.78125 5.496094-12.277344 12.277344-12.277344s12.277344 5.496094 12.277344 12.277344zm0 0" fill="#93999a"/><path d="m325.3125 49.101562c0 6.78125-5.496094 12.277344-12.277344 12.277344s-12.277344-5.496094-12.277344-12.277344c0-6.777343 5.496094-12.273437 12.277344-12.273437s12.277344 5.496094 12.277344 12.273437zm0 0" fill="#93999a"/><path d="m313.035156 227.105469c-10.167968 0-18.414062 8.242187-18.414062 18.414062.019531 1.027344.121094 2.054688.308594 3.066407 1.652343-10 11.097656-16.765626 21.097656-15.113282 7.753906 1.28125 13.832031 7.359375 15.113281 15.113282.1875-1.011719.289063-2.039063.308594-3.066407 0-10.171875-8.246094-18.414062-18.414063-18.414062zm0 0" fill="#656b76"/><path d="m313.035156 165.726562c8.964844.023438 16.613282 6.5 18.105469 15.34375.1875-1.011718.289063-2.039062.308594-3.070312 0-10.167969-8.242188-18.414062-18.414063-18.414062-10.167968 0-18.414062 8.246093-18.414062 18.414062.019531 1.03125.121094 2.058594.308594 3.070312 1.492187-8.84375 9.136718-15.320312 18.105468-15.34375zm0 0" fill="#656b76"/><path d="m313.035156 104.34375c5.582032.023438 10.445313 3.804688 11.839844 9.207031.277344-1 .425781-2.03125.4375-3.066406 0-6.78125-5.496094-12.277344-12.277344-12.277344s-12.277344 5.496094-12.277344 12.277344c.015626 1.035156.160157 2.066406.4375 3.066406 1.394532-5.402343 6.257813-9.183593 11.839844-9.207031zm0 0" fill="#656b76"/><path d="m313.035156 42.964844c5.582032.023437 10.445313 3.804687 11.839844 9.207031.277344-1 .425781-2.03125.4375-3.070313 0-6.777343-5.496094-12.273437-12.277344-12.273437s-12.277344 5.496094-12.277344 12.273437c.015626 1.039063.160157 2.070313.4375 3.070313 1.394532-5.402344 6.257813-9.1875 11.839844-9.207031zm0 0" fill="#656b76"/></svg>