<svg height="512" viewBox="0 0 64 64" width="512" xmlns="http://www.w3.org/2000/svg"><rect fill="#d1e7f8" height="58" rx="4" width="46" x="9" y="3"/><path d="m12 9h40v44h-40z" fill="#2488ff"/><circle cx="32" cy="57" fill="#ff3051" r="2"/><path d="m12 18v35h31.4c-18.02-3.79-31.4-18.006-31.4-35z" fill="#006df0"/><path d="m29 5h2v2h-2z" fill="#6d6e71"/><path d="m33 5h2v2h-2z" fill="#6d6e71"/><g fill="#f1f2f2"><path d="m47 26a1 1 0 0 1 -.707-.293l-11-11a1 1 0 0 1 1.414-1.414l11 11a1 1 0 0 1 -.707 1.707z"/><path d="m48 21a1 1 0 0 1 -.707-.293l-7-7a1 1 0 0 1 1.414-1.414l7 7a1 1 0 0 1 -.707 1.707z"/></g></svg>