<?xml version="1.0"?>
<svg xmlns="http://www.w3.org/2000/svg" xmlns:xlink="http://www.w3.org/1999/xlink" viewBox="0 0 512 512" width="512" height="512"><defs><linearGradient id="linear-gradient" x1="16" y1="256" x2="496" y2="256" gradientUnits="userSpaceOnUse"><stop offset="0" stop-color="#35e0d1"/><stop offset="1" stop-color="#f07ff1"/></linearGradient></defs><g id="gradient"><path d="M232,184a8,8,0,1,1-8-8A8,8,0,0,1,232,184Zm56-8a8,8,0,1,0,8,8A8,8,0,0,0,288,176Zm-51.578,79.155a43.989,43.989,0,0,0,39.156,0,8,8,0,1,0-7.156-14.31,27.917,27.917,0,0,1-24.844,0,8,8,0,1,0-7.156,14.31ZM88,392a24,24,0,1,1,24,24A24.027,24.027,0,0,1,88,392Zm16,0a8,8,0,1,0,8-8A8.009,8.009,0,0,0,104,392Zm392-8v56a23.863,23.863,0,0,1-4.077,13.367A15.923,15.923,0,0,1,496,464v16a16.019,16.019,0,0,1-16,16H32a16.019,16.019,0,0,1-16-16V464a15.936,15.936,0,0,1,.711-4.715A7.957,7.957,0,0,1,16,456V328a8,8,0,0,1,8-8h88.59a56.421,56.421,0,0,1,42.387-46.431A30.691,30.691,0,0,1,182.64,256h5.486A71.66,71.66,0,0,1,184,232V216h-4a28,28,0,0,1,0-56h4V143.335a23.9,23.9,0,0,1-18.119-19.39l-5.772-34.63A8,8,0,0,1,168,80H288a40.045,40.045,0,0,1,40,40v40h4a28,28,0,0,1,0,56h-4v16a71.66,71.66,0,0,1-4.126,24h5.507a30.655,30.655,0,0,1,27.7,17.581A56.334,56.334,0,0,1,400,328v52.305A31.793,31.793,0,0,1,416,376h72A8,8,0,0,1,496,384Zm-16,8H432v48a8.009,8.009,0,0,0,8,8h32a8.009,8.009,0,0,0,8-8ZM216,448s.284-13.381.82-16H200v16Zm40-32a23.917,23.917,0,0,0-20.985,12.407A23.644,23.644,0,0,0,232,440v8H360a24.028,24.028,0,0,0,24-24V368H336v32h16a8,8,0,0,1,0,16Zm135.978,32h25.4A23.885,23.885,0,0,1,416,440a31.8,31.8,0,0,1-17.487-5.221A39.9,39.9,0,0,1,391.978,448ZM400,408a16.019,16.019,0,0,0,16,16V392A16.019,16.019,0,0,0,400,408ZM360,291.385v22A30.653,30.653,0,0,1,329.381,344H304a8,8,0,0,1-7.8-6.255,63.8,63.8,0,0,1-80.394,0A8,8,0,0,1,208,344h-8v72h24.015A39.929,39.929,0,0,1,256,400h64V360a8,8,0,0,1,8-8h56V328A40.254,40.254,0,0,0,360,291.385Zm-64,.459a71.889,71.889,0,0,1-80,0v22.615a47.909,47.909,0,0,0,80,0ZM329.381,272H312v56h17.381A14.635,14.635,0,0,0,344,313.381V286.619A14.635,14.635,0,0,0,329.381,272Zm-33.736-50.958L312,204.687V178.806L284.155,144h-56.31L200,178.806v25.881l16.355,16.355A61.942,61.942,0,0,1,240.2,209.673a7.973,7.973,0,0,1,.647-5.251l8-16a8,8,0,1,1,14.31,7.156l-5.421,10.842,1.62,1.62A62.089,62.089,0,0,1,295.645,221.042ZM200,144v9.194L207.355,144Zm112,0h-7.355L312,153.194Zm16,32v24h4a12,12,0,0,0,0-24ZM189.554,128H312v-8a24.027,24.027,0,0,0-24-24H177.444l4.219,25.315A7.976,7.976,0,0,0,189.554,128ZM184,200V176h-4a12,12,0,0,0,0,24Zm21.436,56H208a8,8,0,0,1,8,8v7.16c.958.979,1.941,1.934,2.965,2.834a55.969,55.969,0,0,0,74.072,0c1.022-.9,2-1.854,2.963-2.833V264a8,8,0,0,1,8-8h2.564A55.277,55.277,0,0,0,312,232v-4.687l-10.343,10.344a8,8,0,0,1-11.314,0A46.32,46.32,0,0,0,257.373,224h-2.746a46.32,46.32,0,0,0-32.97,13.657,8,8,0,0,1-11.314,0L200,227.313V232A55.277,55.277,0,0,0,205.436,256ZM168,313.36a14.414,14.414,0,0,0,1.643,6.64H192a8,8,0,0,1,8,8V272H182.64a14.631,14.631,0,0,0-14.051,10.7c-.009.034-.019.068-.029.1a13.889,13.889,0,0,0-.56,3.84ZM128.831,320h23.908a30.294,30.294,0,0,1-.739-6.64V291.385A40.4,40.4,0,0,0,128.831,320ZM32,448H184V336H32Zm448.01,32L480,464H32v16H480.01ZM424,360h16c0-4.5,1.734-6.42,5.657-10.343C450.022,345.292,456,339.314,456,328s-5.978-17.292-10.343-21.657C441.734,302.42,440,300.5,440,296H424c0,11.314,5.978,17.292,10.343,21.657C438.266,321.58,440,323.5,440,328s-1.734,6.42-5.657,10.343C429.978,342.708,424,348.686,424,360Zm56-64H464c0,11.314,5.978,17.292,10.343,21.657C478.266,321.58,480,323.5,480,328s-1.734,6.42-5.657,10.343C469.978,342.708,464,348.686,464,360h16c0-4.5,1.734-6.42,5.657-10.343C490.022,345.292,496,339.314,496,328s-5.978-17.292-10.343-21.657C481.734,302.42,480,300.5,480,296ZM496,24v88a24,24,0,1,1-24-24h8V66.606L440,78.035V112a24,24,0,1,1-24-24h8V40a8,8,0,0,1,5.8-7.692l56-16A8,8,0,0,1,496,24Zm-72,80h-8a8,8,0,1,0,8,8Zm56,0h-8a8,8,0,1,0,8,8Zm0-64V34.606L440,46.034v15.36l40-11.428ZM16,216a24.027,24.027,0,0,1,24-24h8V160a8,8,0,0,1,5.47-7.589l24-8a8,8,0,0,1,5.06,15.178L64,165.766V216a24,24,0,0,1-48,0Zm16,0a8,8,0,0,0,16,0v-8H40A8.009,8.009,0,0,0,32,216Zm352,8a24.027,24.027,0,0,1,24-24h8V168a8,8,0,0,1,5.47-7.589l24-8a8,8,0,0,1,5.06,15.178L432,173.766V224a24,24,0,0,1-48,0Zm16,0a8,8,0,0,0,16,0v-8h-8A8.009,8.009,0,0,0,400,224Z" style="fill:url(#linear-gradient)"/></g></svg>
