<?xml version="1.0" standalone="no"?>
<!DOCTYPE svg PUBLIC "-//W3C//DTD SVG 20010904//EN"
 "http://www.w3.org/TR/2001/REC-SVG-20010904/DTD/svg10.dtd">
<svg version="1.0" xmlns="http://www.w3.org/2000/svg"
 width="2000.000000pt" height="2000.000000pt" viewBox="0 0 2000.000000 2000.000000"
 preserveAspectRatio="xMidYMid meet">
<metadata>
Created by potrace 1.15, written by Peter Selinger 2001-2017
</metadata>
<g transform="translate(0.000000,2000.000000) scale(0.100000,-0.100000)"
fill="#000000" stroke="none">
<path d="M11500 19228 l0 -683 -35 -20 c-23 -13 -84 -88 -182 -221 l-148 -201
-395 -368 c-217 -202 -453 -422 -525 -489 -71 -67 -204 -191 -295 -276 l-166
-155 924 -3 c508 -1 1338 -1 1845 0 l922 3 -740 647 -740 647 -125 177 c-155
220 -166 233 -207 250 l-33 14 0 680 0 680 -50 0 -50 0 0 -682z"/>
<path d="M2333 17540 c-232 -25 -475 -119 -663 -258 -269 -199 -452 -489 -526
-832 -28 -132 -26 -391 5 -530 114 -515 492 -907 996 -1035 212 -54 443 -54
658 1 162 41 262 85 408 181 290 188 494 483 580 833 20 83 23 120 23 295 1
184 -2 209 -26 306 -44 173 -106 313 -200 454 -59 87 -148 186 -160 178 -6 -3
-8 -1 -4 5 8 13 -94 106 -188 170 -189 130 -401 207 -636 232 -106 11 -161 11
-267 0z m320 -325 c106 -18 159 -36 262 -86 118 -57 143 -73 225 -142 178
-149 300 -357 351 -602 18 -84 16 -313 -4 -401 -37 -164 -104 -307 -203 -434
-68 -86 -96 -113 -193 -186 -193 -145 -422 -213 -670 -201 -426 21 -793 294
-929 692 -43 126 -55 217 -49 379 6 183 26 267 98 412 153 311 441 525 774
574 87 13 249 11 338 -5z"/>
<path d="M1810 16746 c0 -16 93 -196 101 -196 12 0 4 29 -22 83 -21 41 -13 49
17 16 10 -12 123 -106 251 -210 l231 -190 -5 -38 c-3 -21 0 -47 6 -58 9 -18 0
-28 -92 -99 -56 -43 -149 -116 -205 -162 -109 -88 -113 -88 -69 6 11 23 17 46
13 49 -12 13 -35 -22 -66 -102 -18 -44 -37 -86 -43 -94 -10 -11 -8 -13 8 -8
11 4 54 13 95 22 98 20 110 24 110 37 0 6 -14 8 -37 3 -21 -4 -51 -9 -68 -12
-26 -5 -23 0 30 39 33 25 125 98 205 162 136 111 146 117 178 111 19 -4 47 -1
63 5 27 11 32 9 96 -44 60 -50 101 -71 91 -48 -1 5 -35 36 -73 69 -69 59 -71
61 -67 101 4 38 10 45 138 147 124 99 150 125 124 125 -6 0 -70 -47 -142 -105
-124 -98 -134 -103 -150 -88 -19 17 -68 21 -103 9 -16 -6 -51 19 -170 119 -83
70 -195 163 -250 207 -55 45 -104 85 -110 90 -13 12 83 -1 109 -14 23 -12 43
4 24 19 -7 6 -49 16 -93 23 -44 7 -90 17 -102 21 -13 5 -23 7 -23 5z"/>
<path d="M7276 15605 c-78 -20 -154 -64 -205 -121 -44 -47 -91 -134 -91 -170
0 -31 -9 -35 -43 -17 -38 19 -138 21 -192 3 -108 -35 -207 -139 -255 -265 -29
-77 -32 -212 -6 -299 23 -77 168 -369 235 -473 45 -70 57 -83 79 -83 53 0 56
9 38 99 -20 103 -21 202 0 270 17 59 8 57 114 27 105 -30 227 -15 258 32 15
22 15 28 0 69 l-16 44 45 -27 c75 -44 181 -75 274 -81 103 -7 144 9 157 60 l9
32 22 -35 c12 -19 45 -81 74 -137 28 -57 55 -103 60 -103 9 0 8 104 -2 183
l-7 58 37 -6 c49 -8 99 15 124 58 49 81 -3 287 -108 435 -39 53 -136 120 -189
128 -37 6 -38 8 -22 25 19 22 29 93 20 144 -10 49 -65 108 -129 136 -66 29
-196 35 -281 14z"/>
<path d="M13785 14340 c-165 -19 -281 -68 -365 -154 -161 -164 -198 -207 -229
-269 -70 -138 -27 -253 89 -232 l35 6 -37 -30 c-43 -36 -78 -104 -78 -150 0
-76 68 -147 167 -173 38 -11 42 -15 48 -54 9 -62 56 -129 99 -144 20 -6 46 -8
58 -5 78 24 142 125 137 217 -3 49 -1 53 26 65 46 19 62 16 75 -17 17 -41 80
-94 129 -108 117 -36 176 14 173 143 l-1 62 68 66 c64 62 71 66 104 60 31 -5
40 -1 80 36 56 52 103 67 155 50 65 -21 93 -55 102 -129 l5 -45 24 75 c32 97
33 210 4 292 -29 79 -72 139 -182 249 -109 109 -179 149 -301 173 -95 18 -294
27 -385 16z m280 -511 c-14 -63 33 -116 94 -107 26 4 31 1 31 -17 0 -11 7 -31
16 -44 16 -22 15 -24 -47 -87 l-63 -64 -17 26 c-9 14 -30 39 -45 54 -16 16
-37 38 -48 49 -25 27 -94 37 -148 20 -50 -16 -62 -43 -25 -60 l23 -11 -23 -45
c-13 -26 -23 -56 -23 -68 0 -16 -10 -24 -49 -36 -49 -15 -49 -15 -80 13 -18
16 -46 31 -62 35 -28 5 -29 7 -13 24 41 45 -31 67 -94 29 -18 -11 -35 -20 -39
-20 -7 0 3 180 12 201 3 9 19 19 34 22 16 3 41 9 56 13 l27 7 -16 -31 c-34
-66 -12 -92 78 -92 67 0 135 19 206 58 54 30 169 113 194 141 26 28 29 26 21
-10z m-44 -260 c75 -53 96 -192 38 -250 -23 -23 -62 -24 -120 -4 -111 39 -160
155 -99 235 15 20 30 26 82 31 35 3 65 7 66 7 2 1 17 -7 33 -19z m-392 -119
c33 -17 61 -70 61 -114 0 -84 -77 -180 -145 -180 -43 0 -63 17 -91 79 -31 64
-31 95 -3 95 20 0 21 4 17 50 -5 46 -3 52 21 69 44 31 84 32 140 1z"/>
<path d="M6586 13348 c-6 -57 -10 -194 -26 -988 -5 -278 -12 -563 -14 -635 -3
-71 0 -281 6 -466 5 -185 8 -349 6 -365 -2 -23 -13 -5 -54 91 -29 66 -135 314
-237 550 -102 237 -191 449 -198 473 -13 44 -29 56 -29 22 0 -25 34 -109 158
-395 55 -126 158 -366 230 -532 l131 -302 -10 -136 c-10 -125 -8 -157 6 -143
18 18 24 295 20 888 -3 434 0 861 10 1230 8 311 14 578 15 594 0 29 1 29 31
-17 17 -25 66 -79 109 -120 91 -86 185 -137 311 -168 208 -53 461 8 621 151
l55 49 7 -46 c3 -25 6 -152 6 -282 0 -363 -19 -625 -95 -1321 -46 -415 -75
-708 -75 -747 0 -13 4 -23 8 -23 5 0 19 107 31 238 16 169 27 244 39 262 41
64 316 403 472 582 22 26 36 49 31 52 -14 9 -298 -321 -448 -520 -31 -41 -57
-73 -59 -71 -2 2 11 145 30 318 71 638 92 999 81 1364 -11 402 -22 469 -64
387 -41 -80 -183 -172 -321 -207 -78 -21 -224 -23 -300 -6 -30 7 -98 33 -150
58 -80 38 -107 59 -177 129 -84 85 -110 97 -50 22 76 -95 215 -181 354 -219
113 -31 264 -24 384 18 105 36 216 108 255 164 l29 42 8 -77 c9 -91 7 -95 -82
-166 -203 -163 -493 -199 -715 -89 -124 62 -261 184 -299 266 -5 13 -15 23
-20 23 -6 0 -7 23 -3 60 4 37 3 60 -3 60 -5 0 -12 -24 -15 -52z"/>
<path d="M8432 13046 c-128 -37 -224 -350 -193 -629 6 -54 47 -288 91 -520
152 -805 191 -1011 193 -1012 21 -3 92 -51 130 -89 26 -26 51 -46 54 -42 12
11 -49 75 -106 113 -33 21 -62 45 -65 53 -5 13 -56 287 -166 880 -16 85 -45
243 -65 350 -43 222 -57 442 -36 553 33 170 86 277 156 312 22 11 42 21 44 22
1 1 1 6 0 10 -2 5 -19 5 -37 -1z"/>
<path d="M15093 12951 c-28 -4 -55 -10 -59 -13 -12 -13 -114 -428 -154 -627
-92 -465 -103 -817 -34 -1103 14 -56 32 -111 42 -122 9 -11 11 -16 5 -12 -17
9 -17 11 10 -70 13 -41 21 -87 19 -113 l-3 -43 -126 -60 c-69 -32 -127 -58
-128 -56 -8 8 -144 343 -200 493 -105 283 -171 519 -214 769 -12 65 -21 120
-21 123 0 2 -13 -3 -30 -12 -65 -34 -67 -27 -76 255 -4 102 -8 186 -9 187 -1
2 -38 -22 -83 -53 -158 -108 -333 -319 -457 -550 -26 -49 -60 -109 -75 -134
-15 -25 -55 -97 -88 -160 -94 -180 -273 -526 -323 -622 -24 -49 -46 -88 -49
-88 -3 0 -15 21 -28 48 -14 29 -177 224 -418 502 -218 250 -410 471 -426 490
-19 22 -32 30 -35 22 -10 -25 -97 -135 -169 -211 -81 -86 -190 -166 -274 -201
-30 -13 -59 -27 -64 -31 -11 -9 34 -75 273 -404 222 -305 415 -563 553 -736
113 -144 258 -289 286 -288 9 0 125 22 257 48 239 48 240 48 262 28 86 -77
121 -404 65 -617 -20 -77 -20 -92 1 -85 36 12 603 76 630 71 62 -12 64 -16 37
-101 -18 -58 -28 -76 -44 -80 -12 -2 -239 -25 -506 -50 -267 -26 -593 -57
-725 -70 -132 -13 -410 -41 -617 -61 l-377 -37 -1081 433 -1080 433 0 284 0
283 -100 0 c-89 0 -100 -2 -100 -17 0 -10 -5 -61 -10 -112 -13 -118 -53 -213
-116 -270 -44 -41 -67 -50 -199 -75 -44 -8 -129 -26 -190 -40 -120 -27 -296
-47 -620 -71 -245 -17 -651 -35 -815 -35 l-115 0 -1 153 c-1 88 -8 192 -17
247 -21 123 -59 256 -72 250 -5 -3 -8 -9 -6 -15 15 -43 51 -206 60 -269 6 -43
11 -142 11 -222 l0 -144 -54 0 -54 0 1 168 c0 114 -5 196 -16 260 -21 116 -48
212 -59 212 -11 0 -11 -1 11 -88 11 -43 25 -113 31 -157 14 -93 17 -372 4
-385 -5 -4 -196 -10 -424 -12 -403 -3 -416 -2 -454 18 -48 25 -97 106 -120
200 -30 118 -20 135 93 153 83 13 89 21 15 21 -32 0 -69 3 -81 6 -45 12 -31
87 19 97 13 3 -26 4 -87 3 l-110 -1 -6 -80 c-14 -183 -48 -255 -158 -337 -78
-59 -123 -72 -221 -65 -196 13 -421 166 -552 377 l-43 69 -95 -5 c-52 -2 -284
-11 -515 -19 -231 -8 -488 -17 -571 -21 l-151 -6 39 -99 c21 -55 38 -106 38
-113 0 -11 304 -189 789 -461 l104 -59 -49 -12 c-104 -24 -168 -69 -224 -155
-48 -74 -69 -138 -114 -344 -56 -255 -99 -543 -131 -889 l-15 -159 48 -56 c27
-31 68 -83 93 -115 l44 -60 7 90 c21 271 41 480 47 491 4 7 147 -152 356 -396
l350 -409 6 -138 c4 -77 7 -293 8 -481 l1 -342 57 -48 c32 -26 77 -67 101 -89
l43 -42 -1 465 c-1 256 0 467 2 469 4 4 588 34 666 34 l52 0 0 -248 c0 -623
71 -1206 265 -2180 41 -205 78 -384 81 -397 6 -24 4 -25 -45 -25 -28 0 -51 -4
-51 -10 0 -7 212 -10 615 -10 403 0 615 3 615 10 0 7 -192 10 -555 10 -305 0
-555 3 -555 6 0 4 -31 163 -70 353 -164 815 -236 1309 -270 1836 -13 210 -13
607 1 720 15 124 18 296 5 292 -6 -2 -12 -22 -14 -45 l-3 -42 -70 35 c-38 20
-75 33 -82 29 -7 -4 -9 -4 -5 1 5 4 -27 29 -71 55 -185 112 -338 222 -467 337
l-72 63 -6 108 c-4 59 -9 139 -12 179 l-6 72 133 -133 c139 -138 234 -219 404
-348 112 -85 290 -208 299 -208 23 0 -13 31 -144 124 -274 195 -532 415 -650
557 -41 50 -47 61 -49 110 -8 202 -53 470 -101 601 -17 45 -29 82 -27 83 1 2
70 -36 152 -82 179 -101 745 -417 1115 -623 146 -81 435 -242 642 -357 207
-116 380 -207 385 -202 4 4 98 14 208 23 110 9 424 34 699 56 274 22 509 40
522 40 22 0 24 -4 24 -51 0 -33 10 -76 29 -123 58 -144 102 -334 131 -561 35
-279 40 -376 28 -569 -14 -229 -14 -275 6 -701 32 -682 37 -878 43 -1628 l6
-757 98 0 99 0 0 533 c0 683 -15 1254 -55 2082 -17 349 -44 819 -50 852 -2 12
-7 82 -10 156 l-8 135 174 7 c96 4 213 10 260 14 l87 6 6 -55 c4 -30 25 -210
46 -400 179 -1586 208 -1821 296 -2410 63 -425 157 -934 234 -1270 17 -74 36
-159 42 -187 7 -35 16 -53 25 -53 15 0 176 40 181 44 1 2 -18 90 -42 197 -174
764 -316 1701 -461 3044 -62 576 -99 896 -147 1275 -28 223 -51 427 -52 455
l-1 50 215 17 c118 9 497 39 841 67 344 28 638 51 652 51 l27 0 -45 -67 c-84
-124 -98 -190 -154 -683 -27 -234 -83 -766 -96 -905 -3 -27 -23 -232 -45 -455
-82 -836 -162 -1669 -172 -1795 -6 -75 -15 -133 -22 -138 -20 -13 14 -25 153
-51 127 -24 295 -47 453 -61 59 -6 67 -9 70 -28 3 -22 6 -22 268 -28 368 -9
765 -10 784 -3 9 3 16 14 16 23 0 22 89 225 101 229 5 2 7 7 4 12 -3 5 10 52
30 105 45 125 117 377 154 540 65 289 104 533 166 1030 25 204 55 422 65 486
23 133 87 429 95 438 11 10 120 19 238 20 108 1 118 0 113 -16 -153 -522 -331
-1253 -477 -1958 -62 -297 -179 -909 -179 -933 0 -14 19 -21 115 -38 l116 -20
4 20 c2 12 34 176 70 366 149 783 322 1544 478 2110 117 422 110 402 132 397
17 -3 1935 -766 1943 -772 1 -1 -27 -148 -62 -326 -120 -594 -224 -1203 -340
-1979 -76 -504 -91 -618 -85 -624 2 -2 53 -11 113 -20 80 -12 111 -13 117 -5
3 6 9 37 13 68 37 313 253 1657 346 2146 51 271 148 747 153 751 4 4 145 24
168 24 20 0 21 -4 15 -42 -3 -24 -11 -90 -16 -148 -6 -58 -15 -134 -20 -170
-31 -213 -89 -646 -95 -705 -3 -38 -10 -92 -15 -120 -13 -70 -48 -335 -55
-425 -4 -41 -20 -171 -36 -289 -16 -118 -27 -216 -25 -218 5 -5 178 -33 207
-33 31 0 31 -2 74 361 14 117 37 297 52 399 14 102 31 239 38 305 13 119 62
474 90 653 8 51 15 111 15 133 0 32 39 329 44 336 2 2 304 44 369 50 31 3 57
9 57 13 0 5 8 6 18 4 9 -3 100 7 202 21 102 14 203 28 225 30 23 3 191 25 375
51 184 25 353 48 375 50 35 4 417 55 518 69 l37 5 -5 -37 c-3 -21 -30 -299
-60 -618 -30 -319 -98 -1023 -149 -1565 -52 -542 -93 -986 -92 -988 6 -6 227
-25 232 -20 6 6 13 74 124 1238 105 1107 207 2160 225 2340 8 80 21 233 30
340 8 107 18 240 22 295 5 55 8 296 8 535 -1 382 -4 456 -22 610 -77 621 -238
983 -538 1205 -338 251 -750 253 -1093 7 -41 -29 -76 -52 -77 -50 -1 2 -15 75
-29 163 -153 904 -368 1586 -626 1984 -296 456 -731 756 -1200 827 -95 14
-338 17 -437 5z m-811 -2149 c37 -108 64 -200 60 -204 -7 -7 -419 -148 -432
-148 -5 0 24 55 63 123 40 67 108 191 152 275 44 83 82 152 85 152 3 0 35 -89
72 -198z m3873 -858 c147 -35 310 -145 412 -279 62 -80 141 -235 177 -347 60
-187 106 -460 127 -753 11 -159 8 -785 -5 -890 -3 -22 -7 -83 -11 -135 -6
-100 -31 -375 -41 -447 l-5 -41 -147 50 c-81 27 -291 98 -467 158 -720 244
-1209 411 -1213 415 -3 2 16 28 41 57 71 84 150 209 203 323 38 81 54 105 69
105 28 0 95 41 116 70 32 44 48 136 60 344 15 264 6 637 -21 890 l-22 199 59
59 c117 119 296 217 434 238 66 10 155 4 234 -16z m-2835 -307 c12 -87 19
-161 17 -164 -5 -5 -78 9 -235 43 -62 14 -72 19 -67 34 3 10 -8 54 -24 99 -26
72 -28 83 -14 88 9 3 24 1 34 -5 24 -15 32 -15 26 1 -4 13 222 79 234 68 4 -3
16 -77 29 -164z m-520 14 l-51 -59 -137 29 c-75 16 -141 31 -147 33 -5 1 44
11 110 20 66 10 140 21 165 26 25 4 60 8 78 9 l33 1 -51 -59z m-10049 -202
c60 -19 106 -63 143 -142 31 -66 83 -253 73 -263 -2 -3 -17 27 -33 66 -16 38
-34 70 -41 70 -15 0 -12 -11 45 -130 33 -71 47 -114 53 -170 14 -123 25 -300
18 -300 -3 0 -24 39 -47 88 -41 90 -76 197 -88 268 -11 71 -1 68 -205 55 -266
-16 -243 -19 -235 33 17 108 76 320 101 357 48 73 121 96 216 68z"/>
<path d="M4895 12513 c-63 -87 -222 -232 -316 -288 -46 -27 -120 -64 -164 -82
-44 -18 -81 -37 -83 -43 -5 -14 -1 -13 85 21 183 72 379 220 486 367 17 23 34
39 38 35 16 -17 129 -235 129 -249 0 -23 -118 -134 -199 -188 -94 -63 -219
-117 -377 -163 -125 -37 -164 -58 -76 -42 76 15 207 57 302 98 118 52 221 120
302 201 l68 68 61 -117 c164 -314 425 -866 579 -1226 11 -25 24 -44 29 -40 11
6 6 19 -74 200 -47 105 -87 194 -207 455 -112 243 -510 1018 -535 1041 -5 4
-26 -18 -48 -48z"/>
<path d="M14358 12415 c-14 -44 -20 -87 -11 -82 5 3 21 -49 37 -116 58 -251
152 -576 242 -832 68 -193 205 -535 215 -535 5 0 9 2 9 4 0 3 -33 87 -74 188
-177 441 -375 1094 -405 1333 -4 39 -9 53 -13 40z"/>
<path d="M8730 8128 c0 -30 -53 -122 -97 -169 -126 -136 -326 -147 -445 -25
-38 39 -48 44 -48 22 0 -23 88 -94 138 -110 78 -26 132 -29 196 -13 107 29
200 109 251 219 26 56 32 88 15 88 -5 0 -10 -6 -10 -12z"/>
<path d="M857 7992 c-64 -131 -69 -160 -37 -244 26 -66 45 -92 64 -85 12 5 9
16 -17 64 -46 85 -44 138 9 229 63 109 79 155 52 153 -7 0 -39 -53 -71 -117z"/>
<path d="M6400 8101 c0 -29 46 -109 90 -155 75 -79 150 -111 260 -111 71 1 95
5 146 29 61 27 134 89 121 102 -3 4 -23 -8 -44 -26 -50 -44 -126 -78 -194 -86
-136 -16 -295 82 -345 213 -15 39 -34 58 -34 34z"/>
<path d="M7283 7964 c3 -11 9 -103 13 -205 3 -103 10 -192 14 -199 6 -10 50
-10 194 -3 102 5 187 11 188 14 2 2 2 43 0 91 l-3 87 -116 61 c-63 34 -150 83
-192 109 -42 26 -82 51 -90 55 -10 6 -12 4 -8 -10z"/>
<path d="M4104 7876 c-4 -9 0 -24 9 -34 37 -40 68 -132 79 -229 13 -117 16
-229 6 -238 -4 -4 -22 -1 -40 8 -18 8 -50 18 -70 22 -36 7 -37 9 -40 54 -2 33
-7 46 -18 46 -11 0 -16 -14 -18 -51 -3 -50 -4 -52 -36 -58 -87 -16 -194 -137
-217 -243 -15 -75 -6 -191 20 -267 12 -33 21 -71 21 -85 0 -37 -32 -84 -74
-110 -20 -13 -34 -27 -31 -32 4 -5 -1 -6 -9 -3 -18 7 -186 -156 -186 -180 0
-9 -4 -16 -9 -16 -9 0 -41 -82 -41 -106 0 -15 77 -47 92 -38 6 4 8 2 5 -3 -4
-6 7 -16 24 -22 42 -14 127 -76 163 -118 16 -18 33 -33 38 -33 5 0 29 -9 53
-20 42 -19 116 -94 121 -122 16 -91 16 -92 -15 -150 -35 -64 -38 -90 -16 -139
l14 -34 1 35 c1 90 68 212 157 286 126 104 129 111 87 215 -21 50 -27 83 -28
149 -1 116 28 194 93 249 25 21 56 41 68 45 25 8 45 63 47 132 0 23 4 40 7 38
9 -5 19 78 19 155 -1 141 -50 273 -127 341 -17 15 -30 30 -27 32 12 13 20 102
12 145 -5 26 -12 89 -17 139 -9 99 -45 195 -87 235 -21 20 -24 20 -30 5z"/>
<path d="M7726 7839 c-7 -18 -33 -804 -41 -1204 -15 -737 -37 -1367 -66 -1829
-5 -92 -7 -171 -4 -175 9 -9 939 -14 1073 -6 125 8 159 29 40 24 -40 -1 -304
-2 -587 -1 l-513 2 6 63 c25 255 50 905 66 1692 11 562 26 1049 40 1280 5 87
5 154 0 159 -6 6 -11 4 -14 -5z"/>
<path d="M2627 6469 c-27 -87 -34 -93 -85 -75 -66 23 -134 29 -192 17 -58 -13
-114 -47 -104 -63 4 -6 2 -8 -3 -5 -16 10 -66 -41 -59 -59 4 -10 2 -13 -6 -8
-8 5 -9 2 -5 -10 4 -9 3 -15 -2 -12 -31 20 -42 -175 -14 -240 9 -22 20 -69 23
-106 7 -69 34 -128 51 -111 6 6 4 21 -6 39 -8 16 -15 37 -15 47 0 28 167 -145
175 -181 5 -23 -4 -53 -34 -126 -23 -52 -48 -121 -56 -153 -16 -61 -19 -220
-4 -229 5 -3 9 -11 9 -17 0 -7 -5 -4 -11 6 -9 16 -44 17 -509 17 -360 0 -500
-3 -500 -11 0 -6 11 -59 25 -118 14 -58 33 -135 41 -171 9 -36 18 -72 21 -80
3 -8 7 -19 8 -25 10 -73 19 -104 28 -98 5 3 7 1 4 -4 -4 -6 4 -58 17 -114 59
-257 81 -344 88 -347 5 -2 6 -7 3 -12 -5 -7 14 -87 151 -655 26 -110 48 -204
48 -210 1 -6 41 -11 95 -13 l93 -3 -6 28 c-27 124 -46 271 -46 351 0 174 46
393 113 545 14 31 23 57 20 57 -3 0 1 8 9 18 9 9 26 37 38 62 58 117 172 258
275 340 l65 52 0 91 0 92 427 -3 427 -3 -29 31 c-16 17 -88 60 -160 97 -156
79 -187 103 -214 168 -32 77 -35 123 -15 194 15 55 26 72 90 136 l74 73 -35
107 c-19 58 -35 119 -35 136 0 16 -4 29 -9 29 -10 0 -52 120 -45 132 3 4 0 8
-6 8 -6 0 -20 19 -32 43 -43 89 -59 113 -124 175 l-66 64 20 48 c14 33 18 58
13 80 l-6 33 -18 -54z"/>
<path d="M5252 6232 c-7 -13 -50 -47 -95 -76 l-82 -53 2 -164 3 -164 81 -92
c45 -51 90 -105 100 -120 19 -28 19 -24 18 222 -1 138 -4 300 -8 360 -5 98 -7
107 -19 87z"/>
<path d="M4225 5352 c4 -12 1 -47 -5 -77 -6 -30 -10 -56 -9 -57 7 -8 -62 -70
-111 -101 -71 -45 -100 -77 -103 -113 l-2 -29 83 -3 c78 -3 83 -2 91 20 5 13
31 48 59 78 102 114 107 174 21 271 -25 28 -29 30 -24 11z"/>
<path d="M5271 5263 c-2 -18 -108 -130 -147 -153 -33 -21 -34 -24 -34 -81 l0
-59 80 0 80 0 0 -190 0 -190 -72 0 -73 0 7 -152 c18 -373 57 -815 104 -1178
23 -183 72 -502 77 -506 1 -1 46 6 100 14 90 15 98 18 93 36 -12 50 -67 439
-90 636 -51 429 -90 997 -102 1480 -6 217 -18 397 -23 343z"/>
<path d="M6265 4350 c-4 -7 195 -10 589 -10 391 0 596 3 596 10 0 7 -203 10
-589 10 -383 0 -592 -4 -596 -10z"/>
<path d="M7590 4350 c0 -7 210 -10 610 -10 400 0 610 3 610 10 0 7 -210 10
-610 10 -400 0 -610 -3 -610 -10z"/>
<path d="M7751 3801 c-12 -8 -13 -37 -8 -168 4 -87 14 -187 22 -223 9 -36 18
-89 22 -117 3 -29 6 -53 7 -53 0 0 45 -16 99 -35 77 -27 97 -32 97 -20 0 8 5
15 10 15 17 0 168 -78 285 -148 145 -86 303 -162 338 -162 50 0 114 21 148 49
26 22 31 32 26 53 -11 43 -179 286 -310 448 -69 85 -151 187 -182 225 -31 39
-63 78 -71 88 -12 15 -11 17 11 17 14 0 25 5 25 10 0 14 -13 13 -78 -6 -91
-27 -260 -14 -412 31 -8 3 -21 1 -29 -4z"/>
<path d="M7315 3693 c-89 -24 -221 -28 -314 -9 -46 9 -85 15 -88 12 -2 -2 7
-62 21 -133 37 -190 58 -327 65 -432 l6 -94 98 -33 c91 -31 97 -31 97 -13 0
10 1 19 3 19 2 0 46 -19 98 -41 123 -54 323 -130 443 -168 72 -23 115 -31 170
-31 131 0 296 42 296 75 0 26 -67 101 -149 167 -46 37 -163 123 -260 190 -239
168 -292 218 -346 333 -23 49 -48 107 -56 127 -7 21 -18 39 -23 41 -6 2 -33
-2 -61 -10z"/>
<path d="M10984 3683 c-3 -10 -16 -43 -27 -73 -12 -30 -21 -58 -19 -62 1 -5
-2 -8 -8 -8 -5 0 -10 -6 -10 -13 0 -8 -9 -22 -20 -32 -12 -10 -18 -25 -16 -32
3 -7 2 -13 -2 -13 -5 0 -23 -20 -41 -44 -18 -24 -50 -57 -71 -72 -21 -16 -36
-33 -32 -39 3 -5 2 -7 -3 -3 -4 4 -26 -3 -49 -14 -22 -12 -46 -23 -53 -24 -16
-3 -195 -54 -213 -61 -8 -3 -24 -8 -35 -10 -42 -7 -72 -25 -88 -53 -17 -28
-17 -29 5 -55 30 -34 109 -44 413 -51 126 -3 234 -9 240 -14 15 -12 186 -40
300 -49 127 -10 367 -6 510 9 149 15 325 46 338 59 6 6 14 41 19 78 4 37 15
88 23 114 22 64 84 133 140 155 25 9 45 21 45 25 0 24 -73 -7 -124 -51 -61
-54 -106 -167 -106 -265 0 -44 -10 -49 -145 -70 -162 -24 -162 -24 -317 -36
-162 -12 -349 -6 -518 17 -134 19 -180 35 -180 62 0 29 29 49 100 67 263 66
364 109 448 188 45 43 59 51 85 48 39 -4 95 -26 119 -47 9 -9 22 -14 29 -12
32 11 -95 78 -147 78 l-24 0 0 149 c0 170 -1 172 -78 144 -35 -12 -79 -17
-167 -17 -140 0 -186 6 -239 28 -50 21 -75 20 -82 -1z"/>
<path d="M10552 895 c-98 -30 -162 -117 -162 -219 0 -76 11 -81 175 -81 138 0
203 14 271 56 42 26 44 55 8 127 -52 105 -174 154 -292 117z m43 -125 c42 -47
8 -120 -55 -120 -33 0 -70 40 -70 76 0 57 86 87 125 44z"/>
<path d="M11147 899 c-22 -13 -47 -68 -47 -104 0 -20 -5 -25 -25 -25 -22 0
-25 -4 -25 -35 0 -31 3 -35 25 -35 l25 0 0 -110 0 -110 40 0 40 0 0 110 0 110
45 0 c45 0 45 0 45 35 0 35 0 35 -45 35 -41 0 -45 2 -45 24 0 32 24 49 60 44
29 -4 30 -3 30 34 l0 38 -52 0 c-29 0 -61 -5 -71 -11z"/>
<path d="M12570 696 l0 -216 40 0 40 0 0 54 0 55 51 -55 c50 -52 54 -54 103
-54 l50 0 -40 43 c-21 23 -53 57 -69 75 l-29 32 69 70 69 70 -50 0 c-46 0 -53
-4 -94 -45 -24 -25 -48 -45 -52 -45 -4 0 -9 51 -10 113 l-3 112 -37 3 -38 3 0
-215z"/>
<path d="M7380 799 l0 -70 -26 20 c-58 46 -150 17 -180 -55 -29 -70 -5 -173
47 -199 36 -19 100 -19 125 0 25 19 34 19 34 -1 0 -10 7 -14 23 -12 22 3 22 4
25 196 l2 192 -25 0 c-24 0 -25 -2 -25 -71z m-25 -85 c23 -15 25 -23 25 -90 0
-64 -3 -75 -22 -88 -23 -16 -73 -21 -103 -10 -23 9 -45 57 -45 99 0 39 22 90
42 98 27 11 80 6 103 -9z"/>
<path d="M9340 799 l0 -70 -26 20 c-32 25 -92 28 -133 6 -77 -39 -82 -209 -8
-258 32 -21 106 -22 133 -2 25 19 34 19 34 0 0 -8 9 -15 20 -15 19 0 20 7 20
195 0 188 -1 195 -20 195 -18 0 -20 -7 -20 -71z m-26 -90 c23 -18 26 -27 26
-84 0 -57 -3 -66 -26 -84 -31 -25 -81 -27 -111 -6 -49 34 -49 146 0 180 30 21
80 19 111 -6z"/>
<path d="M9590 675 c0 -189 1 -195 20 -195 11 0 23 7 26 15 5 13 9 13 34 0 93
-48 190 19 190 130 0 112 -97 178 -190 130 l-30 -16 0 66 c0 63 -1 65 -25 65
l-25 0 0 -195z m194 24 c41 -48 29 -154 -19 -173 -30 -11 -80 -6 -103 10 -19
13 -22 24 -22 89 0 65 3 76 22 89 12 9 39 16 59 16 29 0 43 -7 63 -31z"/>
<path d="M11425 773 c-11 -3 -26 -10 -34 -17 -11 -8 -15 -8 -18 2 -3 6 -20 12
-39 12 l-34 0 0 -145 0 -145 40 0 40 0 0 94 c0 102 10 126 54 126 13 0 31 12
44 30 22 29 22 29 3 40 -21 11 -24 11 -56 3z"/>
<path d="M11577 766 c-49 -18 -67 -34 -84 -73 -28 -69 -11 -150 42 -191 48
-38 147 -37 200 2 20 14 20 15 -3 39 -22 23 -26 24 -50 11 -39 -20 -76 -17
-100 9 -12 13 -22 26 -22 30 0 4 45 7 100 7 l100 0 0 36 c0 99 -90 163 -183
130z"/>
<path d="M11891 770 c-18 -4 -47 -22 -64 -39 -26 -25 -31 -39 -35 -92 -4 -47
0 -71 13 -96 19 -35 84 -73 126 -73 38 0 96 19 110 36 10 12 9 19 -9 36 -18
19 -25 20 -47 10 -14 -7 -36 -12 -48 -12 -28 0 -67 26 -67 46 0 11 20 14 100
14 l100 0 0 33 c0 94 -85 159 -179 137z"/>
<path d="M12235 773 c-11 -3 -28 -12 -37 -21 -16 -14 -18 -14 -18 1 0 13 -9
17 -40 17 l-40 0 0 -205 0 -205 40 0 40 0 0 70 c0 39 2 70 3 70 2 0 18 -7 36
-16 44 -22 94 -11 139 31 36 33 37 35 37 109 0 69 -2 77 -29 105 -25 26 -86
54 -106 50 -3 -1 -14 -4 -25 -6z m65 -93 c24 -24 26 -77 4 -108 -20 -29 -76
-30 -104 -2 -45 45 -13 130 50 130 17 0 39 -9 50 -20z"/>
<path d="M7547 752 c-32 -20 -67 -86 -67 -127 0 -42 35 -108 69 -128 52 -31
137 -22 190 19 2 2 -1 10 -8 17 -9 12 -17 11 -51 -5 -62 -31 -125 -5 -145 60
-6 22 -6 22 109 22 114 0 116 0 116 23 -1 40 -37 105 -69 121 -39 21 -109 20
-144 -2z"/>
<path d="M7826 749 c-19 -15 -26 -30 -26 -55 0 -44 22 -63 103 -89 70 -23 86
-50 45 -79 -29 -21 -56 -20 -101 3 -31 16 -38 17 -48 5 -7 -8 -10 -16 -8 -18
36 -28 60 -36 109 -36 87 0 131 45 109 109 -10 30 -31 41 -123 68 -45 14 -56
40 -27 64 29 24 47 24 94 0 36 -19 38 -19 47 0 24 45 -122 69 -174 28z"/>
<path d="M8221 744 c-77 -64 -59 -217 29 -254 37 -15 95 -7 121 16 18 16 19
16 19 -19 0 -42 -28 -76 -62 -78 -45 -2 -73 3 -97 18 -20 13 -25 13 -32 2 -14
-22 -11 -26 25 -43 43 -20 118 -21 157 0 49 25 59 64 59 234 0 144 -1 150 -20
150 -11 0 -23 -7 -26 -15 -5 -13 -9 -13 -34 0 -46 24 -104 19 -139 -11z m147
-30 c19 -13 22 -24 22 -84 0 -62 -2 -70 -26 -89 -35 -28 -77 -26 -111 3 -24
21 -28 31 -28 79 0 45 5 60 24 81 29 30 84 35 119 10z"/>
<path d="M8510 625 c0 -138 1 -145 20 -145 19 0 20 7 20 104 0 101 1 105 26
125 35 28 99 29 114 2 5 -11 10 -67 10 -125 l0 -106 26 0 26 0 -3 126 c-4 118
-5 127 -28 145 -31 25 -96 25 -138 -1 -33 -20 -33 -20 -33 0 0 13 -7 20 -20
20 -19 0 -20 -7 -20 -145z"/>
<path d="M8869 753 c-85 -52 -87 -202 -5 -253 56 -34 140 -27 195 16 2 2 -1
10 -8 17 -9 12 -17 11 -51 -5 -50 -25 -90 -17 -125 24 -45 53 -38 58 90 58
113 0 115 0 115 23 -1 40 -37 105 -69 121 -39 21 -109 20 -142 -1z"/>
<path d="M9880 759 c0 -8 25 -73 55 -145 34 -83 53 -139 48 -151 -11 -31 -35
-53 -60 -53 -16 0 -23 -6 -23 -20 0 -30 64 -28 92 3 19 22 157 340 158 365 0
8 -9 12 -21 10 -18 -2 -31 -26 -68 -116 -34 -85 -47 -109 -53 -95 -4 10 -25
61 -47 113 -30 73 -44 96 -60 98 -12 2 -21 -2 -21 -9z"/>
<path d="M12440 625 l0 -145 40 0 40 0 0 145 0 145 -40 0 -40 0 0 -145z"/>
<path d="M10820 610 c-83 -42 -276 -63 -372 -41 -34 8 -37 7 -28 -9 18 -34 85
-81 138 -96 94 -28 186 -1 254 74 33 36 55 78 46 87 -1 2 -19 -5 -38 -15z"/>
</g>
</svg>
